<svg width="50" height="32" viewBox="0 0 50 32" fill="none" xmlns="http://www.w3.org/2000/svg">
<g clip-path="url(#clip0_109_10364)">
<path d="M0.194336 8.06934C0.663514 21.3644 11.5894 32 25.0011 32C38.4129 32 49.3362 21.3644 49.8079 8.06934H0.194336Z" fill="#1A292D"/>
<path d="M24.9986 16.1387C38.7076 16.1387 49.821 12.5259 49.821 8.06934C49.821 3.61277 38.7076 0 24.9986 0C11.2896 0 0.17627 3.61277 0.17627 8.06934C0.17627 12.5259 11.2896 16.1387 24.9986 16.1387Z" fill="#D78D2E"/>
<path d="M24.9986 0C11.2888 0 0.17627 3.61345 0.17627 8.06934C0.17627 12.5252 11.2888 16.1387 24.9986 16.1387C38.7085 16.1387 49.821 12.5252 49.821 8.06934C49.821 3.61345 38.7085 0 24.9986 0ZM24.9986 14.5704C12.0898 14.5704 1.62787 11.6284 1.62787 7.99676C1.62787 4.36517 12.0924 1.42568 24.9986 1.42568C37.9049 1.42568 48.3694 4.36776 48.3694 7.99935C48.3694 11.6309 37.9049 14.573 24.9986 14.573V14.5704Z" fill="#304044"/>
<path d="M24.9987 2.99393C36.9614 2.99393 46.8168 5.52127 48.1984 8.78219C48.3072 8.52557 48.3694 8.26376 48.3694 7.99677C48.3694 4.36777 37.905 1.4231 24.9987 1.4231C12.0924 1.4231 1.62793 4.36777 1.62793 7.99677C1.62793 8.26376 1.69014 8.52557 1.79901 8.78219C3.18062 5.52387 13.036 2.99393 24.9987 2.99393Z" fill="#1A292D"/>
<path d="M42.2182 5.66638C41.2513 5.31903 39.9423 5.10388 38.4958 5.10388C37.0494 5.10388 35.7404 5.31903 34.7735 5.66638H33.1094V7.12316C33.1094 8.23778 35.5201 9.14244 38.4958 9.14244C41.4716 9.14244 43.8823 8.23778 43.8823 7.12316V5.66638H42.2182Z" fill="#E8E8DF"/>
<path d="M38.4958 7.76085C41.4707 7.76085 43.8823 6.85679 43.8823 5.74157C43.8823 4.62635 41.4707 3.72229 38.4958 3.72229C35.521 3.72229 33.1094 4.62635 33.1094 5.74157C33.1094 6.85679 35.521 7.76085 38.4958 7.76085Z" fill="#FFFFF4"/>
<path d="M41.5988 5.345C41.5988 7.07136 35.3491 7.07136 35.3491 5.345C35.3491 3.61863 36.7489 2.21887 38.4752 2.21887C40.2016 2.21887 41.6014 3.61863 41.6014 5.345H41.5988Z" fill="#FCB712"/>
<path d="M39.5095 3.06909C39.6987 3.11057 39.8802 3.17796 40.0461 3.27128L39.7713 3.57974C39.5847 3.48643 39.3825 3.42681 39.1699 3.41125L39.5095 3.06909Z" fill="#FFCE6C"/>
<path d="M41.0492 4.38593L40.5956 4.58034C40.5178 4.31594 40.3727 4.07746 40.186 3.88823L40.4789 3.57458C40.7252 3.79492 40.9222 4.07228 41.0492 4.38593Z" fill="#FFCE6C"/>
<path d="M34.5245 10.3686C33.5758 10.0291 32.2953 9.81909 30.88 9.81909C29.4647 9.81909 28.1816 10.0291 27.2354 10.3686H25.605V11.7969C25.605 12.8908 27.9664 13.7747 30.88 13.7747C33.7936 13.7747 36.155 12.8882 36.155 11.7969V10.3686H34.5245Z" fill="#E8E8DF"/>
<path d="M30.88 12.419C33.7933 12.419 36.155 11.5335 36.155 10.4412C36.155 9.34887 33.7933 8.46338 30.88 8.46338C27.9667 8.46338 25.605 9.34887 25.605 10.4412C25.605 11.5335 27.9667 12.419 30.88 12.419Z" fill="#FFFFF4"/>
<path d="M33.918 10.055C33.918 11.745 27.7954 11.745 27.7954 10.055C27.7954 8.3649 29.1667 6.99365 30.8567 6.99365C32.5468 6.99365 33.918 8.3649 33.918 10.055Z" fill="#FCB712"/>
<path d="M31.8704 7.82571C32.0544 7.86719 32.2333 7.93199 32.3966 8.02272L32.127 8.326C31.9455 8.23527 31.7459 8.17824 31.5386 8.1601L31.873 7.82312L31.8704 7.82571Z" fill="#FFCE6C"/>
<path d="M33.3792 9.11403L32.936 9.30325C32.8582 9.04404 32.7182 8.81074 32.5342 8.6267L32.8193 8.31824C33.0604 8.53339 33.2548 8.80556 33.3792 9.11403Z" fill="#FFCE6C"/>
<path d="M31.2821 5.66897C31.2821 6.73693 26.8262 6.73693 26.8262 5.66897C26.8262 4.60101 27.8241 3.73523 29.0528 3.73523C30.2815 3.73523 31.2795 4.60101 31.2795 5.66897H31.2821Z" fill="#5EDD7C"/>
<path d="M20.4027 10.3842C20.4027 11.4521 15.9468 11.4521 15.9468 10.3842C15.9468 9.31622 16.9448 8.45044 18.1734 8.45044C19.4021 8.45044 20.4001 9.31622 20.4001 10.3842H20.4027Z" fill="#5EDD7C"/>
<path d="M41.1607 11.4884C41.1607 12.2324 38.0527 12.2324 38.0527 11.4884C38.0527 10.7445 38.7474 10.1405 39.6054 10.1405C40.4634 10.1405 41.1581 10.7445 41.1581 11.4884H41.1607Z" fill="#5EDD7C"/>
<path d="M46.2388 8.73558C46.2388 9.24623 44.1055 9.24623 44.1055 8.73558C44.1055 8.22492 44.5824 7.81018 45.1708 7.81018C45.7593 7.81018 46.2362 8.22492 46.2362 8.73558H46.2388Z" fill="#5EDD7C"/>
<path d="M23.5547 12.6911C23.5547 13.2018 21.4214 13.2018 21.4214 12.6911C21.4214 12.1805 21.8983 11.7657 22.4868 11.7657C23.0752 11.7657 23.5521 12.1805 23.5521 12.6911H23.5547Z" fill="#5EDD7C"/>
<path d="M25.1646 9.0543C25.1646 9.56495 23.0312 9.56495 23.0312 9.0543C23.0312 8.54365 23.5082 8.12891 24.0966 8.12891C24.685 8.12891 25.162 8.54365 25.162 9.0543H25.1646Z" fill="#5EDD7C"/>
<path d="M12.9195 12.0664C12.9195 12.577 10.7861 12.577 10.7861 12.0664C10.7861 11.5557 11.2631 11.141 11.8515 11.141C12.4399 11.141 12.9169 11.5557 12.9169 12.0664H12.9195Z" fill="#5EDD7C"/>
<path d="M24.0992 6.45448C24.0992 9.01552 13.4092 9.01552 13.4092 6.45448C13.4092 3.89344 15.8017 1.81714 18.7542 1.81714C21.7066 1.81714 24.0992 3.89344 24.0992 6.45448Z" fill="#F7AA9C"/>
<path d="M13.7178 9.20216C13.7178 11.7632 3.02783 11.7632 3.02783 9.20216C3.02783 6.64113 5.42038 4.56482 8.37283 4.56482C11.3253 4.56482 13.7178 6.64113 13.7178 9.20216Z" fill="#F7AA9C"/>
<g opacity="0.3">
<path d="M13.7178 9.20213C13.7178 9.23842 13.7152 9.27471 13.7101 9.30841C13.5545 6.86661 11.2242 4.92769 8.37283 4.92769C5.52147 4.92769 3.19114 6.86661 3.03561 9.30841C3.03042 9.27471 3.02783 9.24102 3.02783 9.20213C3.02783 6.6385 5.41779 4.56738 8.37283 4.56738C11.3279 4.56738 13.7178 6.6411 13.7178 9.20213Z" fill="white"/>
<path d="M29.0556 4.10081C30.1884 4.10081 31.1215 4.83698 31.2641 5.78571C31.2771 5.74942 31.2848 5.71054 31.2848 5.67165C31.2848 4.60369 30.2869 3.73792 29.0582 3.73792C27.8295 3.73792 26.8315 4.60369 26.8315 5.67165C26.8315 5.71054 26.8393 5.74942 26.8523 5.78571C26.9923 4.83439 27.9254 4.10081 29.0608 4.10081H29.0556Z" fill="white"/>
<path d="M18.1762 8.81334C19.309 8.81334 20.2421 9.54951 20.3847 10.4982C20.3977 10.4619 20.4054 10.4231 20.4054 10.3842C20.4054 9.31622 19.4075 8.45044 18.1788 8.45044C16.9501 8.45044 15.9521 9.31622 15.9521 10.3842C15.9521 10.4231 15.9599 10.4619 15.9729 10.4982C16.1129 9.54692 17.046 8.81334 18.1814 8.81334H18.1762Z" fill="white"/>
<path d="M39.6082 10.5034C40.3677 10.5034 41.0002 10.9778 41.135 11.6025C41.1531 11.5662 41.1635 11.5299 41.1635 11.4884C41.1635 10.7445 40.4688 10.1405 39.6108 10.1405C38.7528 10.1405 38.0581 10.7445 38.0581 11.4884C38.0581 11.5273 38.0685 11.5662 38.0866 11.6025C38.2214 10.9778 38.8539 10.5034 39.6134 10.5034H39.6082Z" fill="white"/>
<path d="M45.1708 8.17308C45.6608 8.17308 46.0677 8.46081 46.1921 8.84963C46.2181 8.81593 46.2362 8.77705 46.2362 8.73558C46.2362 8.22492 45.7593 7.81018 45.1708 7.81018C44.5824 7.81018 44.1055 8.22492 44.1055 8.73558C44.1055 8.77705 44.1236 8.81334 44.1495 8.84963C44.2765 8.46081 44.6835 8.17308 45.1708 8.17308Z" fill="white"/>
<path d="M22.4897 12.1286C22.9796 12.1286 23.3866 12.4164 23.511 12.8052C23.5369 12.7715 23.5551 12.7326 23.5551 12.6911C23.5551 12.1805 23.0781 11.7657 22.4897 11.7657C21.9013 11.7657 21.4243 12.1805 21.4243 12.6911C21.4243 12.7326 21.4425 12.7689 21.4684 12.8052C21.5954 12.4164 22.0024 12.1286 22.4897 12.1286Z" fill="white"/>
<path d="M24.0996 8.49193C24.5895 8.49193 24.9964 8.77966 25.1209 9.16848C25.1468 9.13478 25.1649 9.0959 25.1649 9.05442C25.1649 8.54377 24.688 8.12903 24.0996 8.12903C23.5111 8.12903 23.0342 8.54377 23.0342 9.05442C23.0342 9.0959 23.0523 9.13219 23.0782 9.16848C23.2053 8.77966 23.6122 8.49193 24.0996 8.49193Z" fill="white"/>
<path d="M11.8515 11.5039C12.3414 11.5039 12.7484 11.7916 12.8728 12.1804C12.8987 12.1467 12.9169 12.1079 12.9169 12.0664C12.9169 11.5557 12.4399 11.141 11.8515 11.141C11.2631 11.141 10.7861 11.5557 10.7861 12.0664C10.7861 12.1079 10.8043 12.1442 10.8302 12.1804C10.9572 11.7916 11.3642 11.5039 11.8515 11.5039Z" fill="white"/>
<path d="M18.7542 2.1826C21.6081 2.1826 23.9333 4.12412 24.0836 6.56851C24.0888 6.53222 24.0992 6.49593 24.0992 6.45705C24.0992 3.89601 21.7066 1.8197 18.7542 1.8197C15.8017 1.8197 13.4092 3.89601 13.4092 6.45705C13.4092 6.49593 13.4195 6.53222 13.4247 6.56851C13.5751 4.12671 15.9002 2.1826 18.7542 2.1826Z" fill="white"/>
</g>
</g>
<defs>
<clipPath id="clip0_109_10364">
<rect width="49.6473" height="32" fill="white" transform="translate(0.17627)"/>
</clipPath>
</defs>
</svg>
