<svg width="24" height="32" viewBox="0 0 24 32" fill="none" xmlns="http://www.w3.org/2000/svg">
<g clip-path="url(#clip0_109_10306)">
<path d="M18.4507 20.6541L22.637 13.0229L23.8372 6.08112C23.889 5.71562 23.6376 5.37605 23.2721 5.32421L21.4939 5.065C21.1284 5.01315 20.7888 5.26459 20.737 5.63008L18.4507 20.6541Z" fill="#FFE170"/>
<path d="M11.9806 0C12.8438 0 13.5463 0.702471 13.5463 1.56565V24.3247H10.4124V1.56565C10.4124 0.702471 11.1148 0 11.9806 0Z" fill="#FFCD70"/>
<path d="M8.84681 1.52673C9.71259 1.52673 10.4125 2.2292 10.4125 3.09239V25.8514H7.27856V3.09239C7.27856 2.22661 7.98104 1.52673 8.84422 1.52673H8.84681Z" fill="#FFB65C"/>
<path d="M5.20393 3.06242C6.06576 2.97989 6.82941 3.61245 6.9117 4.4717L9.08119 27.1271L5.96156 27.4258L3.79231 4.77302C3.70978 3.91119 4.34234 3.14753 5.20159 3.06525L5.20393 3.06242Z" fill="#FFE170"/>
<path d="M9.912 4.6814C10.7778 4.6814 11.4777 5.38387 11.4777 6.24705V21.1234H8.34375V6.24964C8.34375 5.38387 9.04622 4.68399 9.9094 4.68399L9.912 4.6814Z" fill="#FFE170"/>
<path d="M5.45368 6.74602C6.31552 6.66349 7.07917 7.29604 7.16145 8.1553L8.57953 22.9639L5.4599 23.2626L4.04182 8.45403C3.95929 7.5922 4.59185 6.82855 5.4511 6.74626L5.45368 6.74602Z" fill="#FFCD70"/>
<path d="M5.50802 20.6541L1.36318 13.0229L0.16302 6.08112C0.111177 5.71562 0.362615 5.37605 0.728107 5.32421L2.50632 5.065C2.87181 5.01315 3.21138 5.26459 3.26322 5.63008L5.50802 20.6541Z" fill="#FFCD70"/>
<path d="M16.6802 25.8514H13.5463L13.5463 3.09243C13.5463 2.22665 14.2487 1.52677 15.1119 1.52677C15.9777 1.52677 16.6776 2.22924 16.6776 3.09243L16.6776 25.8514H16.6802Z" fill="#FFE170"/>
<path d="M17.9983 27.4314L14.8787 27.1327L17.0482 4.47729C17.1307 3.61545 17.8967 2.98572 18.7559 3.06801C19.6178 3.15053 20.2475 3.91652 20.1652 4.77578L17.9957 27.4311L17.9983 27.4314Z" fill="#FFB65C"/>
<path d="M14.3591 23.2634L11.2395 22.9647L12.6576 8.15613C12.7401 7.29429 13.5061 6.66456 14.3653 6.74685C15.2272 6.82938 15.8569 7.59536 15.7746 8.45462L14.3565 23.2632L14.3591 23.2634Z" fill="#FFB65C"/>
<path d="M18.0002 23.8729L14.8806 23.5742L16.2987 8.76562C16.3812 7.90379 17.1472 7.27406 18.0065 7.35634C18.8683 7.43887 19.498 8.20486 19.4157 9.06411L17.9977 23.8727L18.0002 23.8729Z" fill="#FFCD70"/>
<path d="M20.33 13.0229C19.3864 13.0229 18.531 13.5595 18.1007 14.3968C16.955 16.626 14.6325 18.1502 11.9548 18.1502C9.27709 18.1502 6.95453 16.626 5.80881 14.3968C5.37851 13.5569 4.5231 13.0229 3.57956 13.0229H1.36328L4.90415 29.7475C5.01561 31.0202 6.08357 32 7.3615 32H16.6388C17.9167 32 18.9847 31.0228 19.0961 29.7475L22.637 13.0229H20.33Z" fill="#CE2A19"/>
<path d="M16.6387 32C17.9166 32 18.9846 31.0228 19.0961 29.7475L22.6369 13.0229H20.3299C19.3864 13.0229 18.531 13.5595 18.1007 14.3968L15.5759 32H16.6387Z" fill="#B21A12"/>
<path d="M10.4123 26.6861C11.8683 26.6861 13.0485 25.5058 13.0485 24.0499C13.0485 22.594 11.8683 21.4137 10.4123 21.4137C8.95639 21.4137 7.77612 22.594 7.77612 24.0499C7.77612 25.5058 8.95639 26.6861 10.4123 26.6861Z" fill="white"/>
</g>
<defs>
<clipPath id="clip0_109_10306">
<rect width="23.6896" height="32" fill="white" transform="translate(0.155273)"/>
</clipPath>
</defs>
</svg>
