<svg width="50" height="32" viewBox="0 0 50 32" fill="none" xmlns="http://www.w3.org/2000/svg">
<path d="M0.674654 23.5781C0.674654 23.5781 -1.82734 32.0001 15.9746 32.0001C17.2786 32.0001 26.3086 31.9721 27.4546 31.9201C46.2325 31.0541 44.5305 23.5221 44.5305 23.5221C44.5345 25.9901 0.680654 26.0501 0.676654 23.5801L0.674654 23.5781Z" fill="#FFB749"/>
<path d="M44.5282 23.52C44.5282 23.534 44.5282 23.548 44.5242 23.562C44.3442 25.05 34.5982 26.25 22.6022 26.25C10.6063 26.25 1.77231 25.16 0.766316 23.768C0.706316 23.688 0.674316 23.602 0.674316 23.52C0.674316 22.804 2.89431 22.15 6.5283 21.664C10.5323 21.126 16.2523 20.79 22.6022 20.79C33.8822 20.79 43.1722 21.852 44.3902 23.214C44.4802 23.316 44.5282 23.416 44.5282 23.52Z" fill="#C46E00"/>
<g style="mix-blend-mode:darken">
<path d="M44.3906 23.2141C42.9986 23.8361 41.2106 24.3921 38.9206 24.8141C37.0246 25.1621 34.7806 25.4181 32.1286 25.5401C30.9826 25.5921 21.9527 25.6201 20.6487 25.6201C18.6147 25.6201 16.8447 25.5101 15.3067 25.3141C10.3887 24.6921 7.83471 23.1981 6.53271 21.6621C10.5367 21.1241 16.2567 20.7881 22.6067 20.7881C33.8866 20.7881 43.1766 21.8501 44.3946 23.2121L44.3906 23.2141Z" fill="black" fill-opacity="0.16"/>
</g>
<path d="M5.55063 15.784C5.55063 15.784 3.04864 24.206 20.8506 24.206C22.1546 24.206 31.1845 24.178 32.3305 24.126C51.1085 23.26 49.4065 15.728 49.4065 15.728C49.4105 18.196 5.55663 18.256 5.55263 15.786L5.55063 15.784Z" fill="#FFB749"/>
<path d="M49.4046 15.7261C49.4046 17.2321 39.5887 18.4561 27.4787 18.4561C15.3688 18.4561 5.55078 17.2321 5.55078 15.7261C5.55078 15.3681 6.10078 15.0281 7.10478 14.7141C10.3308 13.7061 18.2367 12.9961 27.4787 12.9961C34.5207 12.9961 40.7867 13.4081 44.7987 14.0521C47.6847 14.5161 49.4026 15.0961 49.4026 15.7261H49.4046Z" fill="#C46E00"/>
<g style="mix-blend-mode:darken">
<path d="M44.7984 14.0521C42.3624 15.5301 38.1824 16.8261 31.0305 17.1561C29.8865 17.2081 20.8545 17.2361 19.5525 17.2361C13.0905 17.2361 9.30653 16.1281 7.10254 14.7141C10.3285 13.7061 18.2345 12.9961 27.4765 12.9961C34.5184 12.9961 40.7844 13.4081 44.7964 14.0521H44.7984Z" fill="black" fill-opacity="0.16"/>
</g>
<path d="M4.45639 7.40012C4.45639 7.40012 1.9544 15.8221 19.7563 15.8221C21.0603 15.8221 30.0903 15.7941 31.2363 15.7421C50.0142 14.8761 48.3122 7.34412 48.3122 7.34412C48.3162 9.81211 4.46239 9.87211 4.45839 7.40212L4.45639 7.40012Z" fill="#FFB749"/>
<path d="M48.3084 7.34207C48.3084 8.85006 38.4904 10.0721 26.3825 10.0721C14.2745 10.0721 4.45654 8.85006 4.45654 7.34207C4.45654 5.83407 14.2325 2.71008 26.3425 2.71008C38.4524 2.71008 48.3104 5.83407 48.3104 7.34207H48.3084Z" fill="#C46E00"/>
<g style="mix-blend-mode:darken">
<path d="M32.0082 4.39012C31.7522 5.44411 30.6162 6.21011 29.4382 6.96011C26.1802 7.11211 22.9742 6.90211 19.8402 6.19811C19.3102 6.08011 18.9142 5.63811 18.8522 5.09811C18.7642 4.33812 18.7642 3.64412 18.9862 3.12412C18.9982 3.08612 19.0202 3.04412 19.0482 3.00012C20.8522 2.67412 25.3802 2.08412 32.0542 2.74012C32.1422 3.41012 32.1722 4.00812 32.0102 4.39012H32.0082Z" fill="black" fill-opacity="0.16"/>
</g>
<path d="M30.1367 6.22606C31.3167 5.47606 32.4507 4.71006 32.7067 3.65607C32.9307 3.12607 32.7887 2.17607 32.6267 1.20007L29.9067 3.43407L30.1387 6.22606H30.1367Z" fill="#FCCF61"/>
<path d="M19.5506 4.36408C19.4626 3.60409 19.4606 2.91209 19.6826 2.39209L30.1366 3.54009C30.3986 4.26408 30.4126 5.15008 30.1366 6.22808C26.8786 6.38008 23.6726 6.17008 20.5386 5.46608C20.0086 5.34608 19.6126 4.90408 19.5486 4.36408H19.5506Z" fill="#FDE77A"/>
<path d="M22.7541 0.206083C22.7541 0.206083 19.9141 1.68608 19.6841 2.39208C22.9641 3.37007 26.4701 3.68807 30.138 3.54007L32.626 1.20208C31.662 -0.0739156 23.5921 -0.199915 22.7541 0.206083Z" fill="#F8C73B"/>
<path d="M25.7145 1.20207C25.7145 1.20207 24.3425 1.00608 24.4765 1.41007C24.6105 1.81407 24.1905 1.91407 25.0905 2.15007C25.9905 2.38607 26.6285 2.15007 27.1345 2.15007C27.6405 2.15007 28.0105 1.23007 27.4385 1.20207C26.8665 1.17407 25.7145 1.20207 25.7145 1.20207Z" fill="#FFDA88"/>
</svg>
