<svg width="42" height="32" viewBox="0 0 42 32" fill="none" xmlns="http://www.w3.org/2000/svg">
<g clip-path="url(#clip0_109_10435)">
<path d="M39.9601 12.3982C39.8953 14.109 36.9869 15.6306 32.5025 16.6026C29.2701 17.3025 25.2186 17.7225 20.8197 17.7225C19.9462 17.7225 19.0882 17.7043 18.2431 17.6732C8.95809 17.3233 1.78304 15.0992 1.67676 12.3982H39.9601Z" fill="#1A292D"/>
<path d="M20.8171 19.0081C32.0466 19.0081 41.1499 16.0488 41.1499 12.3982C41.1499 8.74759 32.0466 5.78821 20.8171 5.78821C9.58766 5.78821 0.484375 8.74759 0.484375 12.3982C0.484375 16.0488 9.58766 19.0081 20.8171 19.0081Z" fill="#1A292D"/>
<path d="M36.3728 9.20209C35.6055 8.9014 34.7319 8.62404 33.7651 8.3752C33.6536 7.91898 33.5136 7.52757 33.3633 7.19836C34.312 7.43943 35.1907 7.70902 35.9943 8.00193C35.9943 8.00711 35.9995 8.01748 36.0021 8.02267L36.015 8.05377C36.1447 8.38038 36.2665 8.76402 36.3728 9.1995V9.20209Z" fill="#304044"/>
<path d="M20.8173 8.24298C30.6156 8.24298 38.6901 10.3141 39.8203 12.984C39.9084 12.774 39.9603 12.5589 39.9603 12.3412C39.9603 9.36797 31.3906 6.95728 20.8173 6.95728C10.2439 6.95728 1.67432 9.36538 1.67432 12.3386C1.67432 12.5563 1.72616 12.7715 1.81429 12.9814C2.94447 10.3115 11.019 8.24039 20.8173 8.24039V8.24298Z" fill="#1A292D"/>
<path d="M41.1189 12.7715C40.5487 23.4875 31.6784 32.0001 20.8173 32.0001C9.95621 32.0001 1.08849 23.4875 0.515625 12.7715C0.984803 15.5244 6.63827 17.8288 14.3577 18.6687C16.2033 18.8709 18.1655 18.9875 20.2055 19.0056C20.3455 19.0056 20.4855 19.0056 20.6255 19.0056H20.8173C23.7905 19.0056 26.6133 18.7983 29.1588 18.425C30.0298 18.3006 30.867 18.1502 31.6654 17.9869C33.2129 17.6681 34.6204 17.2845 35.8491 16.8438C38.9001 15.7577 40.8494 14.3346 41.1164 12.7664L41.1189 12.7715Z" fill="#1A292D"/>
<path d="M40.1338 10.3348C40.1338 10.3348 40.1234 10.3245 40.1182 10.3193C40.0482 10.2493 39.9731 10.1819 39.8953 10.1145C39.859 10.0808 39.8253 10.0497 39.7864 10.016C39.7139 9.95638 39.6361 9.89676 39.5609 9.83714C39.5169 9.80344 39.478 9.76975 39.4313 9.73605C39.3691 9.69198 39.3043 9.64532 39.2369 9.59866C39.1851 9.56237 39.1306 9.52608 39.0736 9.48979C39.0529 9.47424 39.0321 9.46128 39.0088 9.44573C38.9284 9.39389 38.8481 9.34204 38.7651 9.2902C38.7133 9.26169 38.664 9.22799 38.6096 9.19688C38.467 9.11393 38.3193 9.03099 38.1664 8.95063C38.1041 8.91693 38.0393 8.88583 37.9771 8.85472C37.8994 8.81584 37.8242 8.77436 37.7438 8.73807C37.7335 8.73289 37.7231 8.7277 37.7127 8.72511C37.6453 8.69141 37.5753 8.66031 37.5079 8.6292C37.4172 8.58773 37.3265 8.54626 37.2332 8.50478C37.1632 8.47368 37.0932 8.44257 37.0232 8.41406C36.9195 8.36999 36.8133 8.32592 36.707 8.28186C36.6448 8.25594 36.5826 8.23001 36.5177 8.20668C36.3467 8.13929 36.1704 8.07189 35.9915 8.00709C35.9915 8.01227 35.9967 8.02264 35.9993 8.02783L36.0123 8.05893C36.1419 8.38554 36.2637 8.76918 36.37 9.20466C36.6422 9.31094 36.8988 9.41981 37.1425 9.53127C37.1736 9.54423 37.2021 9.55978 37.2332 9.57274C37.3084 9.60903 37.3809 9.64273 37.4535 9.67902C37.5054 9.70494 37.5572 9.73086 37.6065 9.75679C37.6402 9.77493 37.6739 9.79308 37.7075 9.81122C37.7801 9.84751 37.8501 9.88639 37.9175 9.92527C38.0134 9.97712 38.1041 10.0316 38.1949 10.086C38.1949 10.086 38.2001 10.0886 38.2026 10.0912C38.283 10.1404 38.3608 10.1923 38.4385 10.2415C38.4774 10.2674 38.5163 10.2934 38.5552 10.3193C38.6226 10.3659 38.69 10.4126 38.7522 10.4618C38.8325 10.5215 38.9077 10.5837 38.9803 10.6433C38.9829 10.6433 38.9855 10.6485 38.9881 10.6511C39.0451 10.7003 39.0995 10.7496 39.1514 10.7988C39.1695 10.817 39.1903 10.8325 39.2084 10.8507C39.2395 10.8818 39.268 10.9103 39.2965 10.9414C39.3276 10.9751 39.3613 11.0088 39.3898 11.0425C39.4158 11.071 39.4391 11.1021 39.465 11.1332C39.4935 11.1669 39.522 11.2032 39.548 11.2369C39.5713 11.2654 39.592 11.2965 39.6128 11.325C39.6361 11.3613 39.6594 11.3976 39.6828 11.4339C39.7009 11.4624 39.719 11.4935 39.7346 11.522C39.7553 11.5609 39.7735 11.5972 39.7916 11.6361C39.8046 11.6646 39.8201 11.6931 39.8305 11.7216C39.8487 11.7631 39.8616 11.8072 39.8772 11.8512C39.8849 11.8746 39.8953 11.9005 39.9005 11.9238C39.9186 11.9886 39.9316 12.0508 39.942 12.1156C39.9472 12.1519 39.9497 12.1908 39.9523 12.2271C39.9549 12.2686 39.9601 12.31 39.9601 12.3489C39.9601 12.3671 39.9601 12.3904 39.9601 12.4085C39.916 13.5854 38.5293 14.6689 36.2119 15.5476C35.1569 15.9494 33.9049 16.3071 32.4999 16.6104C31.6212 16.8022 30.6777 16.9707 29.6875 17.1185C27.0357 17.5099 24.0184 17.7302 20.8171 17.7302C20.519 17.7302 20.2235 17.7302 19.9306 17.725C19.3604 17.7198 18.7979 17.7043 18.2406 17.6836C16.6464 17.6239 15.1118 17.5073 13.6706 17.344C6.70033 16.556 1.76489 14.6482 1.67676 12.4085C1.67676 12.3904 1.67676 12.3671 1.67676 12.3489C1.67676 9.98749 7.07879 7.98117 14.5934 7.25537C16.5453 7.06614 18.6397 6.96505 20.8197 6.96505C25.8122 6.96505 30.3614 7.50162 33.7701 8.38295C33.6586 7.92673 33.5186 7.53532 33.3683 7.20612C29.913 6.32479 25.5556 5.79858 20.8197 5.79858C18.6216 5.79858 16.5064 5.91264 14.5234 6.1226C6.37113 6.97542 0.484375 9.46387 0.484375 12.3982C0.484375 12.5226 0.494744 12.647 0.515481 12.7689C0.984659 15.5217 6.63812 17.8261 14.3575 18.666C16.2031 18.8682 18.1654 18.9848 20.2054 19.003C20.3454 19.003 20.4853 19.003 20.6253 19.003H20.8171C23.7903 19.003 26.6132 18.7956 29.1587 18.4223C30.0296 18.2979 30.8669 18.1475 31.6653 17.9842C33.2128 17.6654 34.6203 17.2818 35.849 16.8411C38.8999 15.755 40.8492 14.3319 41.1162 12.7637C41.137 12.6392 41.1473 12.5174 41.1473 12.393C41.1473 11.6724 40.7896 10.9777 40.1312 10.3271L40.1338 10.3348Z" fill="#304044"/>
<path d="M27.2584 13.8783C27.1962 14.3423 27.1106 14.8348 27.0044 15.3533C26.8773 15.9598 26.7089 16.5456 26.5119 17.1081C24.3008 17.4348 21.833 17.6421 19.215 17.7017C18.6965 17.7147 18.1729 17.7199 17.6415 17.7199C17.3434 17.7199 17.0479 17.7199 16.755 17.7147C16.7369 17.6732 16.7136 17.6343 16.6954 17.5929C15.6534 17.5307 14.6398 17.4425 13.6704 17.3311C12.4676 17.1963 11.3297 17.0252 10.2617 16.8282C9.3752 14.8426 8.40833 11.929 8.19836 8.28967C8.17763 7.94232 8.16467 7.5872 8.15948 7.22689C8.1543 7.09988 8.1543 6.97286 8.1543 6.84326C8.1543 5.60421 8.4498 4.46108 9.27669 4.41183C13.1157 4.1889 11.8974 0 14.1655 0C15.4978 0 16.2547 0.394006 16.6799 0.826894C17.105 1.25978 17.7297 1.32458 18.2429 1.04204C18.4918 0.904658 18.8028 0.679141 19.1476 0.541758C19.4846 0.401782 19.8552 0.344755 20.2285 0.533981C21.7579 1.30903 21.3976 2.70879 22.2374 3.66529C23.0643 4.60624 24.1737 5.42017 24.941 5.92823C25.011 5.97489 25.0784 6.01895 25.1432 6.06043C25.5916 6.34816 25.9856 6.7292 26.2993 7.18283C26.4782 7.43945 26.6311 7.72199 26.7503 8.02527C26.7555 8.03564 26.7581 8.04601 26.7633 8.05638C26.911 8.42706 27.051 8.86254 27.1599 9.37319C27.4035 10.4982 27.5124 11.9835 27.2584 13.8809V13.8783Z" fill="#258C38"/>
<path d="M33.3347 13.8784C33.2699 14.3424 33.187 14.8349 33.0781 15.3533C33.0729 15.3844 33.0703 15.9469 33.0677 16.4731C32.8811 16.5146 32.6919 16.5586 32.5 16.6001C31.6213 16.7919 30.6778 16.9604 29.6876 17.1082C27.0358 17.4996 24.0186 17.7199 20.8173 17.7199C20.5192 17.7199 20.2237 17.7199 19.9307 17.7147C19.6897 17.7147 19.4512 17.7095 19.2127 17.7018C18.6943 17.7147 18.1707 17.7199 17.6393 17.7199C17.3412 17.7199 17.0457 17.7199 16.7528 17.7147C16.7346 17.6733 16.7113 17.6344 16.6932 17.5929C15.6537 15.4725 14.3136 11.9109 14.2332 7.27877C14.2332 7.13361 14.228 6.98845 14.228 6.84069C14.228 6.59962 14.2384 6.36633 14.2617 6.14082C14.3602 5.20246 14.6842 4.45074 15.3504 4.40926C18.3288 4.23818 18.264 1.67455 19.1479 0.536602C19.3994 0.2074 19.7337 -0.00256348 20.2418 -0.00256348C21.5768 -0.00256348 22.3311 0.391442 22.7562 0.82433C23.1839 1.25722 23.806 1.32202 24.3218 1.03948C24.8169 0.764711 25.5557 0.150373 26.3048 0.528826C27.8368 1.30388 27.4739 2.70363 28.3163 3.66013C29.221 4.68662 30.4574 5.56536 31.2221 6.05527C31.5798 6.28338 31.9013 6.5763 32.1786 6.91587C32.4404 7.23729 32.6582 7.60019 32.8215 8.00197C32.8215 8.00716 32.8267 8.01753 32.8292 8.02271L32.8422 8.05382C32.8552 8.08751 32.8681 8.12121 32.8837 8.15491C32.9977 8.45819 33.1066 8.80554 33.1999 9.19954C33.2129 9.25398 33.2258 9.31101 33.2388 9.37062C33.4825 10.4956 33.5913 11.9809 33.3399 13.8784H33.3347Z" fill="#44C660"/>
<path d="M34.5194 8.95326L33.2829 3.59012C33.1896 2.21887 34.9263 2.09963 35.0197 3.47088L34.5194 8.95326Z" fill="#44C660"/>
<path d="M34.6357 8.7511L36.8961 3.73271C37.653 2.58439 39.1072 3.54089 38.3503 4.68921L34.6357 8.7511Z" fill="#44C660"/>
<path d="M34.9132 7.50167L35.3695 2.0167C35.6987 0.681746 37.3887 1.09908 37.0595 2.43403L34.9106 7.50167H34.9132Z" fill="#44C660"/>
<path d="M33.599 16.346C34.1718 15.4362 34.7188 14.5315 35.2372 13.6269C35.6364 12.9322 36.0174 12.2401 36.3803 11.5506C36.4918 11.3432 36.5981 11.1332 36.7044 10.9259C36.9273 10.4904 37.1424 10.0575 37.3472 9.62721C37.4872 9.3343 37.6246 9.04138 37.7594 8.74847C37.8579 8.53073 37.9538 8.31818 38.0471 8.10044C38.4333 6.63588 32.2433 5.00023 31.8571 6.46739C31.8389 6.59181 31.8234 6.71364 31.8052 6.83806C31.756 7.188 31.7067 7.54313 31.6575 7.90084C31.5927 8.39335 31.5279 8.89104 31.4631 9.39651C31.4294 9.65572 31.3982 9.91753 31.3645 10.1819C31.2246 11.3017 31.0924 12.4526 30.9654 13.6269C30.8461 14.7156 30.7321 15.8276 30.6206 16.963L33.5912 16.346H33.599Z" fill="#E89E0C"/>
<path d="M10.6742 16.906C10.1662 16.8178 9.67626 16.7219 9.2019 16.6182C8.82085 16.5353 8.44758 16.4497 8.08987 16.3616C6.97525 16.0817 5.97727 15.768 5.12186 15.4233L3.92689 12.1079L3.62101 11.2629L3.23997 10.2079L2.90558 9.27469L1.88428 6.45185L6.50088 4.79028L6.7601 5.53682L6.99339 6.21078L7.41332 7.42908L7.7477 8.40373L8.05098 9.29024L8.3413 10.1275L10.6768 16.906H10.6742Z" fill="white"/>
<path d="M6.49536 4.78769L5.10857 4.58032L0.898926 5.99304L1.87876 6.45185L6.49536 4.78769Z" fill="#F6F7F0"/>
<path d="M5.11893 15.4207C5.11893 15.4207 5.10079 15.4155 5.09301 15.4103L3.92914 14.8763L3.27851 12.9659L2.90784 11.8824L2.52161 10.7496L2.17944 9.75424L0.898926 5.99304L1.87876 6.44926L2.90006 9.2721L3.23445 10.2053L3.61549 11.2603L3.92136 12.1053L5.11634 15.4207H5.11893Z" fill="#E4E5DF"/>
<path d="M14.5026 17.4218C14.2226 17.3933 13.9453 17.3648 13.6679 17.3337C12.6181 17.2144 11.6201 17.0693 10.6714 16.906C10.1633 16.8178 9.6734 16.7219 9.19904 16.6182L6.99831 10.5267L6.7054 9.72054L6.3736 8.80292L6.03403 7.86197L5.6167 6.70588L6.98276 6.21337L10.2307 5.04431L10.7854 6.65144L11.1431 7.69348L11.4309 8.52815L11.7419 9.43281L14.4948 17.4244L14.5026 17.4218Z" fill="white"/>
<path d="M10.2362 5.04172L8.84944 4.83435L4.63721 6.24707L5.61963 6.70588L10.2362 5.04172Z" fill="#F6F7F0"/>
<path d="M9.20163 16.6182C8.82059 16.5353 8.44732 16.4497 8.0896 16.3616L6.19734 10.817L5.92257 10.0212L5.59855 9.07248L5.27713 8.13671L4.63428 6.24963L5.6167 6.70326L6.03403 7.86195L6.3736 8.80289L6.7054 9.72051L6.99831 10.5267L9.19904 16.6182H9.20163Z" fill="#E4E5DF"/>
<path d="M19.2124 17.7043C18.694 17.7173 18.1704 17.7225 17.639 17.7225C17.3409 17.7225 17.0454 17.7225 16.7525 17.7173C16.7343 17.6758 16.711 17.6369 16.6929 17.5955C17.2009 17.6292 17.7168 17.6551 18.2378 17.6732C18.5618 17.6862 18.8832 17.6966 19.2098 17.7017L19.2124 17.7043Z" fill="#304044"/>
<path d="M37.4121 11.8513L37.8528 7.75048C38.1249 6.7551 39.3821 7.09985 39.1126 8.09264L37.4121 11.8513Z" fill="#44C660"/>
<path d="M41.1705 9.77242L40.1336 10.3323L39.4286 10.7134L39.2031 10.8352L37.5415 11.7321L38.752 10.4516L38.9102 10.2831L39.4286 9.73354L40.3721 8.73297C41.1886 8.10567 41.987 9.13994 41.1653 9.76983L41.1705 9.77242Z" fill="#44C660"/>
<path d="M38.0469 10.9181L39.7188 7.14654C40.2813 6.28076 41.3752 6.9936 40.8127 7.85678L38.0469 10.9181Z" fill="#44C660"/>
<path d="M40.1233 12.1131C40.0714 12.1727 40.0144 12.2323 39.96 12.2894C39.8952 12.3594 39.8278 12.4319 39.7604 12.5019C39.5945 12.6756 39.426 12.8493 39.2523 13.0229C39.0009 13.277 38.7417 13.531 38.4773 13.785C38.3528 13.9069 38.2258 14.0261 38.0962 14.1453C37.6841 14.529 37.259 14.9126 36.8235 15.2911C36.6291 15.374 36.4243 15.457 36.2117 15.5373C35.206 15.9184 34.024 16.2631 32.6968 16.556C33.0519 15.7836 33.407 15.0267 33.7544 14.2853C34.1328 13.4843 34.5087 12.7041 34.8845 11.9446C34.9727 11.7658 35.0582 11.5869 35.1464 11.4106C35.3174 11.0685 35.4807 10.7315 35.6492 10.3997C35.7737 10.1586 35.8929 9.91755 36.0147 9.68167C36.0562 9.59613 36.1003 9.51318 36.1417 9.43023C36.2169 9.31877 36.3361 9.25915 36.4891 9.23841C36.7872 9.19694 37.2123 9.31359 37.6659 9.52355C37.8759 9.62205 38.0936 9.7387 38.3114 9.8683C38.3632 9.902 38.4176 9.93311 38.4695 9.96681C38.5602 10.0264 38.6509 10.086 38.7391 10.1483C38.8013 10.1897 38.8609 10.2338 38.9179 10.2779C39.102 10.4152 39.2756 10.5604 39.4338 10.7056C40.004 11.2292 40.3488 11.7735 40.1259 12.1027L40.1233 12.1131Z" fill="#FCB712"/>
</g>
<defs>
<clipPath id="clip0_109_10435">
<rect width="41.031" height="32" fill="white" transform="translate(0.484375)"/>
</clipPath>
</defs>
</svg>
