<svg width="42" height="32" viewBox="0 0 42 32" fill="none" xmlns="http://www.w3.org/2000/svg">
<g clip-path="url(#clip0_109_10323)">
<path d="M21.3748 32C31.3802 32 39.4913 28.1644 39.4913 23.433C39.4913 18.7016 31.3802 14.866 21.3748 14.866C11.3693 14.866 3.2583 18.7016 3.2583 23.433C3.2583 28.1644 11.3693 32 21.3748 32Z" fill="#3D2B29"/>
<path d="M41.5882 10.1353L39.4911 23.4329H3.25818L1.16113 10.1353H41.5882Z" fill="#3D2B29"/>
<path d="M41.5883 10.1353C41.5883 13.277 38.7422 16.0842 34.2707 17.9428C30.7713 19.3996 26.274 20.2731 21.3748 20.2731C15.9235 20.2731 10.9751 19.1922 7.33836 17.4322C3.5305 15.5866 1.15869 12.9996 1.15869 10.1353C1.15869 8.47371 1.95966 6.90547 3.36979 5.52126C6.71884 2.2422 13.5232 0 21.3774 0C29.2316 0 35.6342 2.11519 39.0791 5.24131C40.6785 6.69032 41.5909 8.36225 41.5909 10.1353H41.5883Z" fill="#533F38"/>
<path d="M21.3747 24.3454C32.5383 24.3454 41.5882 19.8077 41.5882 14.2101C41.5882 8.61255 32.5383 4.07483 21.3747 4.07483C10.211 4.07483 1.16113 8.61255 1.16113 14.2101C1.16113 19.8077 10.211 24.3454 21.3747 24.3454Z" fill="#533F38"/>
<path d="M41.5882 10.1353H1.16113V14.2101H41.5882V10.1353Z" fill="#533F38"/>
<path d="M21.3747 0C10.2103 0 1.16113 4.53884 1.16113 10.1353C1.16113 15.7317 10.2103 20.2706 21.3747 20.2706C32.539 20.2706 41.5882 15.7317 41.5882 10.1353C41.5882 4.53884 32.539 0 21.3747 0ZM21.3747 19.1611C10.6795 19.1611 2.21613 15.3455 2.21613 10.1353C2.21613 4.92507 10.6795 0.495099 21.3747 0.495099C32.0698 0.495099 40.5332 4.92507 40.5332 10.1353C40.5332 15.3455 32.0698 19.1611 21.3747 19.1611Z" fill="#8B746E"/>
<path d="M11.7761 4.404C11.7761 4.404 12.8855 2.41583 15.3766 2.57913C17.8676 2.74244 17.1807 1.49303 19.3685 1.38416C21.5563 1.27529 21.2426 2.41583 22.9197 2.41583C24.5968 2.41583 27.0594 1.84556 28.3243 2.89019C29.5893 3.93483 29.6878 5.04167 31.1316 4.97687C32.5755 4.91206 34.7995 5.45382 34.7451 6.86395C34.6906 8.27407 30.5899 12.9425 30.5899 12.9425L19.4748 15.221L9.64795 7.73231L11.7761 4.40141V4.404Z" fill="#DDA040"/>
<path d="M13.0282 6.48815C13.0282 6.48815 12.6601 3.17539 11.1877 3.17539C9.71541 3.17539 9.47175 1.125 7.85166 0.629904C6.55041 0.230714 3.75089 0.383651 2.71922 2.10483C2.07378 3.18316 2.86956 6.17968 1.15875 7.95789C0.959154 8.16526 -0.419866 10.1379 1.15875 12.6808C2.73736 15.2237 6.5867 15.9883 6.5867 15.9883L13.938 14.2438L13.0282 6.48815Z" fill="#97400B"/>
<path d="M30.1545 9.8501C30.1545 9.8501 30.5226 6.53735 31.995 6.53735C33.4673 6.53735 32.6534 5.41236 34.2735 4.91726C35.5747 4.51807 38.3742 4.671 39.4059 6.39219C40.0513 7.47052 39.1337 6.59178 40.8419 8.37258C41.0415 8.57996 42.4206 10.5526 40.8419 13.0955C39.3204 15.545 32.7467 17.4243 32.7467 17.4243L25.9268 14.0053L30.1571 9.8527L30.1545 9.8501Z" fill="#44C660"/>
<path d="M33.6562 9.65053C33.5863 12.73 14.4588 16.4005 11.4183 9.65053C10.7262 8.11339 10.8635 4.07483 22.5385 4.07483C25.745 4.07483 26.9893 6.01375 29.2159 7.27612C31.5385 8.59293 33.6848 8.35964 33.6562 9.65053Z" fill="white"/>
<path d="M23.1039 6.45188C23.1039 8.4556 15.8433 8.4556 15.8433 6.45188C15.8433 4.44815 17.4685 2.82288 19.4723 2.82288C21.476 2.82288 23.1013 4.44815 23.1013 6.45188H23.1039Z" fill="#FCB712"/>
<path d="M20.6777 3.81042C20.8954 3.85968 21.108 3.93744 21.3024 4.04631L20.9836 4.40662C20.7684 4.29775 20.5325 4.23035 20.2837 4.20961L20.6777 3.81042Z" fill="#FFCE6C"/>
<path d="M22.4661 5.33722L21.9398 5.56273C21.8491 5.25686 21.6806 4.9795 21.4629 4.75917L21.8025 4.39368C22.0902 4.64771 22.3183 4.97172 22.4661 5.33722Z" fill="#FFCE6C"/>
<path d="M15.3015 19.804C15.0112 19.7573 14.7235 19.7107 14.4409 19.6588C14.7261 19.7107 15.0112 19.7599 15.3015 19.804Z" fill="#1E8637"/>
<path d="M13.4167 19.454C13.1548 19.3969 12.8956 19.3399 12.6416 19.2777C12.8982 19.3399 13.1548 19.3969 13.4167 19.454Z" fill="#1E8637"/>
<path d="M14.3473 19.6407C14.0725 19.5888 13.8003 19.537 13.5308 19.48C13.8003 19.537 14.0725 19.5914 14.3473 19.6407Z" fill="#1E8637"/>
<path d="M9.16331 18.2098C8.96631 18.1347 8.7719 18.0595 8.58008 17.9791C8.7719 18.0569 8.96631 18.1347 9.16331 18.2098Z" fill="#1E8637"/>
<path d="M9.95644 18.4976C9.74647 18.425 9.5391 18.3524 9.33691 18.2772C9.54169 18.3524 9.74906 18.4276 9.95644 18.4976Z" fill="#1E8637"/>
<path d="M7.33594 17.4244C7.33594 17.4244 7.33853 17.4296 7.34112 17.4322C7.4474 17.4841 7.55886 17.5333 7.66773 17.5826C7.55627 17.5307 7.4474 17.4789 7.33853 17.4244H7.33594Z" fill="#1E8637"/>
<path d="M33.8246 17.0848C32.7359 15.7394 30.2967 14.3449 30.0997 13.8031C28.9643 10.6874 26.5355 11.9886 24.8454 11.4261C23.1579 10.8636 20.7809 11.2369 19.0934 10.1326C17.406 9.02838 14.2176 8.62142 12.302 9.5494C11.1174 10.1223 11.9495 10.5292 8.55379 11.3639C5.184 12.1908 6.56562 15.9313 6.58635 15.9883C10.0806 17.9609 15.3763 19.1611 21.3719 19.1611C26.1544 19.1611 30.4885 18.3964 33.822 17.0848H33.8246Z" fill="#1E8637"/>
<path d="M8.3985 17.9039C8.21446 17.8261 8.03042 17.7484 7.85156 17.6654C8.03042 17.7458 8.21446 17.8261 8.3985 17.9039Z" fill="#1E8637"/>
<path d="M21.3745 20.2706C19.6326 20.2706 17.9399 20.1592 16.3276 19.9518C17.9425 20.1592 19.6326 20.2706 21.3745 20.2706C21.7219 20.2706 22.064 20.2654 22.4062 20.2577C22.064 20.2654 21.7193 20.2706 21.3745 20.2706Z" fill="#1E8637"/>
<path d="M30.9296 19.0677C30.7067 19.1274 30.4786 19.187 30.2505 19.2414C30.4786 19.1844 30.7067 19.1274 30.9296 19.0677Z" fill="#1E8637"/>
<path d="M31.7458 18.8345C31.5436 18.8967 31.3363 18.9537 31.1289 19.0133C31.3363 18.9563 31.5411 18.8967 31.7458 18.8345Z" fill="#1E8637"/>
<path d="M30.0945 19.2804C29.8146 19.3478 29.5294 19.4126 29.2417 19.4722C29.5294 19.41 29.812 19.3478 30.0945 19.2804Z" fill="#1E8637"/>
<path d="M33.3585 18.298C33.1563 18.3731 32.9515 18.4457 32.7441 18.5157C32.9515 18.4457 33.1563 18.3706 33.3585 18.298Z" fill="#1E8637"/>
<path d="M29.2418 19.4747C28.643 19.6017 28.0287 19.7158 27.4014 19.8117C28.0287 19.7132 28.643 19.6017 29.2418 19.4747Z" fill="#1E8637"/>
<path d="M32.5497 18.5804C32.3527 18.6452 32.1556 18.7101 31.9561 18.7723C32.1556 18.7101 32.3552 18.6452 32.5497 18.5804Z" fill="#1E8637"/>
<path d="M33.5034 18.2435C33.7652 18.145 34.0218 18.0439 34.2733 17.9402C34.0218 18.0439 33.7652 18.1476 33.5034 18.2461V18.2435Z" fill="#1E8637"/>
<path d="M23.389 20.2213C23.078 20.2369 22.7643 20.2498 22.4507 20.2576C22.7669 20.2498 23.078 20.2369 23.389 20.2213Z" fill="#1E8637"/>
<path d="M26.3027 19.9673C26.0538 19.9984 25.8024 20.0269 25.5483 20.0554C25.8024 20.0295 26.0538 19.9984 26.3027 19.9673Z" fill="#1E8637"/>
<path d="M27.3184 19.8247C27.0436 19.8662 26.7663 19.9077 26.4863 19.9439C26.7663 19.9077 27.0436 19.8688 27.3184 19.8247Z" fill="#1E8637"/>
</g>
<defs>
<clipPath id="clip0_109_10323">
<rect width="41.1762" height="32" fill="white" transform="translate(0.412109)"/>
</clipPath>
</defs>
</svg>
