<svg width="50" height="32" viewBox="0 0 50 32" fill="none" xmlns="http://www.w3.org/2000/svg">
<g clip-path="url(#clip0_109_10198)">
<path d="M45.2553 24.5709L43.9592 26.8857L41.3645 30.5717C40.8616 31.4738 40.0943 32 39.2778 32H10.7202C9.90882 32 9.13895 31.4738 8.63348 30.5717L6.03875 26.8857L4.74268 24.5709H45.2579H45.2553Z" fill="#F5F5FC"/>
<path d="M36.4521 10.4541H12.7573V24.2262H36.4521V10.4541Z" fill="#FFCD24"/>
<path d="M12.2183 9.91492V24.7679H36.9888V9.91492H12.2183ZM13.2992 23.6896V10.9958H35.913V23.6896H13.2992Z" fill="#C46E00"/>
<path d="M12.3453 25.9914C16.6358 25.9914 20.114 22.5133 20.114 18.2228C20.114 13.9322 16.6358 10.4541 12.3453 10.4541C8.0548 10.4541 4.57666 13.9322 4.57666 18.2228C4.57666 22.5133 8.0548 25.9914 12.3453 25.9914Z" fill="#FFCD24"/>
<path d="M19.8986 16.4082C19.756 16.473 19.5953 16.5067 19.4113 16.5067C19.3983 16.5067 19.3802 16.5067 19.3672 16.5016C19.3879 16.5871 19.4061 16.6752 19.4242 16.7608C19.5227 17.2325 19.5746 17.7199 19.5746 18.2253C19.5746 17.681 19.6601 17.16 19.8208 16.6674C19.8467 16.5897 19.8727 16.5119 19.9038 16.4342V16.429C19.9038 16.429 19.9038 16.416 19.8986 16.4082ZM20.3937 16.1749C20.3859 16.1361 20.3755 16.092 20.3626 16.0531C20.3496 15.9935 20.3315 15.9313 20.3107 15.8717C20.2926 15.812 20.277 15.7498 20.2537 15.6902C20.1837 15.4699 20.106 15.2573 20.0152 15.0474C19.9375 14.8581 19.8545 14.6715 19.7612 14.49C19.5875 14.1453 19.3905 13.8161 19.1754 13.5024C19.0717 13.3521 18.9628 13.2043 18.8436 13.0618C18.7347 12.9192 18.6155 12.7766 18.4936 12.6419C17.9026 11.9912 17.2028 11.4287 16.4303 10.9932C16.0622 10.7807 15.6786 10.6044 15.282 10.4541C15.0876 10.3815 14.888 10.3115 14.6858 10.2519C13.9392 10.0316 13.1538 9.91492 12.3425 9.91492C12.2984 9.91492 12.2595 9.91492 12.2181 9.9201C11.2382 9.93306 10.2973 10.1197 9.42632 10.4463C9.14119 10.5552 8.86124 10.6744 8.58906 10.817C8.50611 10.8559 8.42835 10.8999 8.35059 10.9466C5.78177 12.3541 4.03467 15.0862 4.03467 18.2227C4.03467 22.8031 7.76476 26.5306 12.3425 26.5306C14.2633 26.5306 16.0415 25.8696 17.449 24.7653C17.6693 24.5968 17.8767 24.4154 18.0737 24.2261C18.2215 24.0888 18.3588 23.9488 18.4936 23.7984C18.5273 23.7647 18.5584 23.7259 18.5896 23.687C18.6803 23.5885 18.7632 23.4874 18.8436 23.3837C18.9602 23.2411 19.0691 23.0934 19.1754 22.943C19.3905 22.6268 19.5901 22.3002 19.7612 21.9554C19.8571 21.7688 19.9426 21.5847 20.0152 21.3955C20.106 21.1881 20.1837 20.9756 20.2537 20.7578C20.5129 19.9595 20.6503 19.1092 20.6503 18.2253C20.6503 17.5177 20.5648 16.8308 20.3911 16.1749H20.3937ZM19.3413 20.045C19.3413 20.045 19.3361 20.0502 19.3413 20.0502C19.2713 20.3224 19.1857 20.5842 19.0821 20.8408C18.9213 21.2555 18.7269 21.647 18.4962 22.0202C18.3925 22.1887 18.2837 22.352 18.167 22.5075C18.0556 22.6579 17.9389 22.8056 17.8119 22.9482C17.5838 23.2126 17.3375 23.4615 17.0706 23.6896C16.8502 23.884 16.6169 24.0602 16.3707 24.2287C16.0674 24.4309 15.7537 24.6098 15.422 24.7679C14.4888 25.2086 13.4441 25.4548 12.3451 25.4548C8.35577 25.4548 5.11559 22.2094 5.11559 18.2253C5.11559 15.5839 6.53609 13.2743 8.65387 12.0197C8.71867 11.9757 8.77829 11.9368 8.84309 11.9031C9.11527 11.7527 9.39522 11.618 9.68813 11.5013C10.4736 11.1903 11.3238 11.014 12.2181 11.001C12.2621 10.9958 12.301 10.9958 12.3425 10.9958C12.4799 10.9958 12.6198 11.001 12.752 11.0088C12.9387 11.0166 13.1201 11.0347 13.2964 11.0606C14.4499 11.211 15.5205 11.6387 16.4355 12.2686C16.9435 12.6185 17.4101 13.0333 17.8119 13.5024C17.9337 13.6372 18.0452 13.7798 18.1541 13.925C18.1593 13.9301 18.1618 13.9379 18.167 13.9431C18.2837 14.0986 18.3925 14.2619 18.4962 14.4304C18.7295 14.8011 18.9239 15.1951 19.0821 15.6099C19.1391 15.7446 19.1857 15.8768 19.2298 16.0168C19.2739 16.1464 19.3076 16.2709 19.3413 16.4005C19.3361 16.4005 19.3413 16.4056 19.3413 16.4056C19.349 16.4367 19.3594 16.4704 19.3672 16.5041C19.3879 16.5897 19.4061 16.6778 19.4242 16.7634C19.5227 17.2351 19.5746 17.7225 19.5746 18.2279C19.5746 18.8578 19.4916 19.467 19.3413 20.0502V20.045ZM19.8986 16.4082C19.756 16.473 19.5953 16.5067 19.4113 16.5067C19.3983 16.5067 19.3802 16.5067 19.3672 16.5016C19.3879 16.5871 19.4061 16.6752 19.4242 16.7608C19.5227 17.2325 19.5746 17.7199 19.5746 18.2253C19.5746 17.681 19.6601 17.16 19.8208 16.6674C19.8467 16.5897 19.8727 16.5119 19.9038 16.4342V16.429C19.9038 16.429 19.9038 16.416 19.8986 16.4082Z" fill="#C46E00"/>
<path d="M12.3454 23.8347C15.4448 23.8347 17.9574 21.3221 17.9574 18.2227C17.9574 15.1233 15.4448 12.6107 12.3454 12.6107C9.24597 12.6107 6.7334 15.1233 6.7334 18.2227C6.7334 21.3221 9.24597 23.8347 12.3454 23.8347Z" fill="#FFCD24"/>
<path d="M17.9079 15.6099C17.812 15.3973 17.7005 15.2003 17.5787 15.0059C17.4698 14.8297 17.3532 14.656 17.2236 14.4927C16.6585 13.7462 15.9197 13.137 15.0747 12.7197H15.0695C15.0125 12.6886 14.9606 12.6626 14.9062 12.6367C14.6936 12.5382 14.4707 12.4501 14.2426 12.3775C13.9393 12.279 13.6205 12.2012 13.2965 12.1494C13.115 12.1235 12.9388 12.1027 12.7521 12.0924C12.6173 12.0794 12.4799 12.0742 12.3426 12.0742C12.2985 12.0742 12.2596 12.0742 12.2181 12.0794C11.6219 12.0872 11.0491 12.1883 10.5099 12.3568C10.1989 12.4527 9.90595 12.5719 9.62081 12.7145C9.55601 12.7482 9.48602 12.7845 9.42122 12.8233C7.50044 13.8602 6.19141 15.8924 6.19141 18.228C6.19141 21.577 8.87946 24.3091 12.2181 24.3739C12.2622 24.3791 12.3011 24.3791 12.3426 24.3791C12.8014 24.3791 13.2446 24.3273 13.6775 24.2314C14.1985 24.1147 14.7014 23.9333 15.1628 23.6922C15.9742 23.2723 16.6766 22.6813 17.2262 21.9607C17.3558 21.7973 17.4724 21.6237 17.5813 21.4474C17.7031 21.253 17.8146 21.0534 17.9105 20.8434C18.2863 20.0502 18.4963 19.1637 18.4963 18.228C18.4963 17.2922 18.2838 16.4057 17.9105 15.6125L17.9079 15.6099ZM12.7547 23.28C12.6199 23.293 12.4825 23.2982 12.3452 23.2982C12.3011 23.2982 12.2596 23.2982 12.2207 23.293C9.48084 23.2282 7.27492 20.9782 7.27492 18.2254C7.27492 15.7965 8.99351 13.7591 11.285 13.2692C11.5831 13.2044 11.8941 13.1655 12.2078 13.1577H12.2207C12.2596 13.1525 12.3037 13.1525 12.3452 13.1525C12.4825 13.1525 12.6225 13.1577 12.7547 13.1707C12.9413 13.1837 13.1228 13.2096 13.2991 13.2433C14.7662 13.5232 16.013 14.4383 16.7337 15.6903C16.871 15.9287 16.9929 16.175 17.0888 16.4316C17.3013 16.9889 17.418 17.5929 17.418 18.2228C17.418 18.8527 17.3013 19.4566 17.0888 20.014C16.9929 20.2732 16.8736 20.5194 16.7337 20.7553C16.013 22.0073 14.7662 22.9223 13.2991 23.2023C13.1228 23.236 12.9413 23.2619 12.7547 23.2749V23.28Z" fill="#C46E00"/>
<path d="M12.3453 21.6755C14.2522 21.6755 15.798 20.1296 15.798 18.2228C15.798 16.3159 14.2522 14.77 12.3453 14.77C10.4384 14.77 8.89258 16.3159 8.89258 18.2228C8.89258 20.1296 10.4384 21.6755 12.3453 21.6755Z" fill="#FFCD24"/>
<path d="M13.2993 14.3475C13.1231 14.3034 12.9416 14.2697 12.755 14.2516C12.6202 14.2386 12.4828 14.2308 12.3454 14.2308C12.3013 14.2308 12.2625 14.2308 12.221 14.236C10.0747 14.3008 8.35352 16.0661 8.35352 18.2253C8.35352 20.3846 10.0747 22.1498 12.221 22.2146C12.2651 22.2198 12.3039 22.2198 12.3454 22.2198C12.4828 22.2198 12.6228 22.212 12.755 22.1991C12.9416 22.1809 13.1231 22.1472 13.2993 22.1032C15.0438 21.6755 16.3373 20.0994 16.3373 18.2279C16.3373 16.3564 15.0412 14.7804 13.2993 14.3527V14.3475ZM13.2993 20.973C13.1257 21.0378 12.9442 21.0819 12.755 21.1026C12.6202 21.1285 12.4828 21.1363 12.3454 21.1363C12.3013 21.1363 12.2625 21.1363 12.221 21.1285C10.6709 21.0689 9.43185 19.7858 9.43185 18.2227C9.43185 16.6597 10.6709 15.3792 12.221 15.3169C12.2651 15.3092 12.3039 15.3092 12.3454 15.3092C12.4828 15.3092 12.6228 15.3169 12.755 15.3429C12.9442 15.3636 13.1257 15.4077 13.2993 15.4725C14.4399 15.8665 15.259 16.9474 15.259 18.2227C15.259 19.4981 14.4399 20.579 13.2993 20.973Z" fill="#C46E00"/>
<path d="M24.6451 25.9914C28.9356 25.9914 32.4138 22.5133 32.4138 18.2228C32.4138 13.9322 28.9356 10.4541 24.6451 10.4541C20.3546 10.4541 16.8765 13.9322 16.8765 18.2228C16.8765 22.5133 20.3546 25.9914 24.6451 25.9914Z" fill="#FFCD24"/>
<path d="M32.1261 16.1309C32.1132 16.0738 32.095 16.0194 32.0795 15.9624C32.0484 15.8509 32.0095 15.7421 31.9706 15.6306C31.9758 15.6228 31.9784 15.6124 31.9836 15.6047H31.9888C32.0147 15.5476 32.0458 15.4932 32.0795 15.4362C32.0147 15.4232 31.9447 15.4103 31.8799 15.3921C31.8332 15.2625 31.7762 15.1381 31.7192 15.0111H31.7062C31.6414 15.107 31.5844 15.2107 31.53 15.3092C31.4314 15.2832 31.3278 15.2573 31.2241 15.2262C31.2552 15.291 31.2837 15.361 31.3148 15.4284C31.3407 15.4854 31.3615 15.5451 31.3848 15.6047C31.4885 15.8639 31.574 16.1231 31.644 16.3953C31.6388 16.3953 31.644 16.4005 31.644 16.4005C31.7944 16.9837 31.8773 17.5928 31.8773 18.2227C31.8773 17.5928 31.9939 16.9889 32.2065 16.4316C32.1858 16.3331 32.1598 16.2294 32.1287 16.1283L32.1261 16.1309ZM17.579 15.0033C17.5142 15.1329 17.4546 15.2677 17.4054 15.4051C17.3717 15.4777 17.3457 15.5528 17.3198 15.6306L17.3328 15.6565C17.3665 15.7265 17.4028 15.7939 17.4365 15.8691C17.4935 15.9857 17.5402 16.1024 17.5868 16.2242C17.605 16.2812 17.6257 16.3408 17.6464 16.4005C17.7164 16.1283 17.802 15.8691 17.9056 15.6099C17.8097 15.3973 17.6983 15.2003 17.5764 15.0059L17.579 15.0033ZM32.1261 16.1309C32.1132 16.0738 32.095 16.0194 32.0795 15.9624C32.0484 15.8509 32.0095 15.7421 31.9706 15.6306C31.9654 15.6228 31.9628 15.6099 31.9628 15.5995C31.854 15.5736 31.7477 15.5476 31.6336 15.5165C31.5766 15.5036 31.5118 15.4854 31.4522 15.4699C31.4263 15.5165 31.4055 15.5606 31.3822 15.6073C31.4859 15.8665 31.5714 16.1257 31.6414 16.3979C31.6362 16.3979 31.6414 16.403 31.6414 16.403C31.7918 16.9863 31.8747 17.5954 31.8747 18.2253C31.8747 17.5954 31.9914 16.9915 32.2039 16.4342C32.1832 16.3357 32.1573 16.232 32.1261 16.1309ZM32.5668 15.7161C32.5668 15.7161 32.5616 15.698 32.559 15.6902C32.5409 15.6306 32.5201 15.5684 32.4994 15.5088C32.4553 15.374 32.4087 15.2444 32.3517 15.1199C32.3439 15.094 32.3335 15.0733 32.3206 15.0474C32.2428 14.8581 32.1598 14.6715 32.0665 14.49C31.8929 14.1453 31.6958 13.8161 31.4807 13.5024C31.377 13.3521 31.2681 13.2043 31.1489 13.0618C31.04 12.9192 30.9208 12.7766 30.799 12.6419C30.208 11.9912 29.5081 11.4287 28.7356 10.9932C28.3675 10.7807 27.9839 10.6044 27.5873 10.4541C26.6723 10.1041 25.6795 9.91492 24.6478 9.91492C23.6161 9.91492 22.6233 10.1041 21.7083 10.4541C21.3117 10.6044 20.9281 10.7833 20.56 10.9932C19.7875 11.4287 19.0877 11.9912 18.4967 12.6419C18.3748 12.7766 18.2556 12.9192 18.1467 13.0618C18.0767 13.1447 18.0171 13.2225 17.9523 13.308C17.9056 13.3728 17.8616 13.4376 17.8149 13.5024C17.7501 13.5984 17.6853 13.6917 17.6205 13.7928V13.7979C17.5868 13.8498 17.5557 13.9016 17.5246 13.9535V13.9587C17.4157 14.1323 17.3172 14.3138 17.2265 14.4926C17.1306 14.6741 17.0502 14.8607 16.9725 15.05C16.8818 15.2625 16.804 15.4725 16.734 15.6928C16.4748 16.4912 16.3374 17.3414 16.3374 18.2253C16.3374 19.1092 16.4748 19.9595 16.734 20.7578C16.804 20.9782 16.8818 21.1907 16.9725 21.3955C17.0451 21.5847 17.1332 21.7714 17.2265 21.9554C17.4002 22.3002 17.5972 22.6294 17.8123 22.943C17.9212 23.0934 18.0275 23.2411 18.1441 23.3837C18.2271 23.4874 18.3074 23.5859 18.3982 23.687C18.4293 23.7259 18.4578 23.7647 18.4941 23.7984C18.6289 23.9488 18.7662 24.0888 18.914 24.2261C19.1136 24.4154 19.321 24.5968 19.5387 24.7653C20.9462 25.8696 22.7244 26.5306 24.6452 26.5306C26.566 26.5306 28.3442 25.8696 29.7517 24.7653C29.9721 24.5968 30.1794 24.4154 30.3764 24.2261C30.5242 24.0888 30.6616 23.9488 30.7964 23.7984C30.8301 23.7647 30.8612 23.7259 30.8923 23.687C30.983 23.5885 31.066 23.4874 31.1463 23.3837C31.263 23.2411 31.3718 23.0934 31.4781 22.943C31.6933 22.6268 31.8929 22.3002 32.0639 21.9554C32.1598 21.7688 32.2454 21.5847 32.318 21.3955C32.4087 21.1881 32.4865 20.9756 32.5564 20.7578C32.8157 19.9595 32.953 19.1092 32.953 18.2253C32.953 17.3414 32.8182 16.5067 32.5642 15.7187L32.5668 15.7161ZM31.644 20.045C31.644 20.045 31.6388 20.0502 31.644 20.0502C31.574 20.3224 31.4885 20.5842 31.3848 20.8408C31.2241 21.2555 31.0297 21.647 30.799 22.0202C30.6953 22.1887 30.5864 22.352 30.4698 22.5075C30.3583 22.6579 30.2417 22.8056 30.1146 22.9482C29.8865 23.2126 29.6403 23.4615 29.3733 23.6896C29.153 23.884 28.9197 24.0602 28.6734 24.2287C28.3701 24.4309 28.0565 24.6098 27.7247 24.7679C26.7915 25.2086 25.7469 25.4548 24.6478 25.4548C23.5487 25.4548 22.5015 25.2086 21.5709 24.7679C21.2391 24.6072 20.9229 24.4309 20.6222 24.2287C20.376 24.0602 20.1427 23.884 19.9223 23.6896C19.6553 23.4615 19.4091 23.21 19.181 22.9482C19.0566 22.8056 18.9399 22.6579 18.8259 22.5075C18.7092 22.352 18.6003 22.1887 18.4967 22.0202C18.2634 21.6495 18.069 21.2555 17.9108 20.8408C17.8071 20.5868 17.7216 20.3224 17.6516 20.0502V20.045C17.5013 19.4618 17.4183 18.8526 17.4183 18.2227C17.4183 17.5928 17.5013 16.9837 17.6516 16.4005V16.3953C17.7216 16.1231 17.8071 15.8639 17.9108 15.6047C17.9186 15.5787 17.929 15.558 17.9419 15.5321V15.5269C17.9679 15.4543 18.0016 15.3843 18.0327 15.3118C18.1182 15.1096 18.2193 14.91 18.3256 14.7156C18.3826 14.6171 18.437 14.5212 18.4993 14.4252C18.6029 14.2568 18.7118 14.0935 18.8285 13.9379C18.9399 13.7876 19.0566 13.6398 19.1836 13.4973C20.5082 11.9601 22.4678 10.9907 24.653 10.9907C26.8382 10.9907 28.7978 11.9627 30.1224 13.4973C30.2468 13.6398 30.3635 13.7876 30.4775 13.9379C30.5942 14.0935 30.7031 14.2568 30.8067 14.4252C30.8923 14.56 30.9752 14.7026 31.0478 14.8452C31.1126 14.9696 31.1774 15.0966 31.2344 15.2262C31.2656 15.291 31.2941 15.361 31.3252 15.4284C31.3511 15.4854 31.3718 15.5451 31.3952 15.6047C31.4988 15.8639 31.5844 16.1231 31.6544 16.3953C31.6492 16.3953 31.6544 16.4005 31.6544 16.4005C31.8047 16.9837 31.8877 17.5928 31.8877 18.2227C31.8877 18.8526 31.8047 19.4618 31.6544 20.045H31.644ZM17.579 15.0033C17.5142 15.1329 17.4546 15.2677 17.4054 15.4051C17.3717 15.4777 17.3457 15.5528 17.3198 15.6306L17.3328 15.6565C17.3665 15.7265 17.4028 15.7939 17.4365 15.8691C17.4935 15.9857 17.5402 16.1024 17.5868 16.2242C17.605 16.2812 17.6257 16.3408 17.6464 16.4005C17.7164 16.1283 17.802 15.8691 17.9056 15.6099C17.8097 15.3973 17.6983 15.2003 17.5764 15.0059L17.579 15.0033ZM32.1261 16.1309C32.1132 16.0738 32.095 16.0194 32.0795 15.9624C32.0484 15.8509 32.0095 15.7421 31.9706 15.6306C31.9758 15.6228 31.9784 15.6124 31.9836 15.6047H31.9888C32.0147 15.5476 32.0458 15.4932 32.0795 15.4362C32.0147 15.4232 31.9447 15.4103 31.8799 15.3921C31.8332 15.2625 31.7762 15.1381 31.7192 15.0111H31.7062C31.6414 15.107 31.5844 15.2107 31.53 15.3092C31.4314 15.2832 31.3278 15.2573 31.2241 15.2262C31.2552 15.291 31.2837 15.361 31.3148 15.4284C31.3407 15.4854 31.3615 15.5451 31.3848 15.6047C31.4885 15.8639 31.574 16.1231 31.644 16.3953C31.6388 16.3953 31.644 16.4005 31.644 16.4005C31.7944 16.9837 31.8773 17.5928 31.8773 18.2227C31.8773 17.5928 31.9939 16.9889 32.2065 16.4316C32.1858 16.3331 32.1598 16.2294 32.1287 16.1283L32.1261 16.1309Z" fill="#C46E00"/>
<path d="M24.6452 23.8347C27.7446 23.8347 30.2572 21.3221 30.2572 18.2227C30.2572 15.1233 27.7446 12.6107 24.6452 12.6107C21.5458 12.6107 19.0332 15.1233 19.0332 18.2227C19.0332 21.3221 21.5458 23.8347 24.6452 23.8347Z" fill="#FFCD24"/>
<path d="M29.2719 15.0474C29.2538 15.0267 29.2408 15.0033 29.2253 14.9826C29.1475 14.8737 29.0697 14.77 28.9842 14.6664C28.9842 14.6612 28.979 14.6586 28.9764 14.6534C28.9453 14.6197 28.9168 14.5808 28.8857 14.5445H28.8805C28.8105 14.4668 28.7431 14.389 28.668 14.3164C27.1023 13.6788 25.7077 13.0437 24.6631 13.0437C23.2556 13.0437 22.4131 13.4584 21.8403 14.0028C22.0658 13.855 22.2991 13.7228 22.5427 13.614C22.5427 13.6088 22.5479 13.6088 22.5479 13.6088C22.9678 13.4144 23.4163 13.2796 23.8829 13.207C23.9554 13.1992 24.0306 13.1888 24.1032 13.1811C24.1213 13.1759 24.1421 13.1759 24.1602 13.1759C24.2432 13.1681 24.3235 13.1577 24.4117 13.1577C24.4894 13.15 24.5672 13.15 24.6501 13.15C25.5833 13.15 26.4543 13.404 27.2086 13.8447C27.2086 13.8447 27.2112 13.8464 27.2164 13.8498C27.9707 14.2957 28.6032 14.9334 29.0386 15.6877C29.176 15.9261 29.2979 16.1724 29.3938 16.429C29.4145 16.3305 29.4404 16.2268 29.4715 16.1257C29.4845 16.0687 29.5026 16.0143 29.5182 15.9572C29.5493 15.8458 29.5882 15.7369 29.6271 15.6255C29.5182 15.4233 29.4015 15.2289 29.2771 15.0422L29.2719 15.0474ZM19.8987 16.4083C19.8987 16.4083 19.9039 16.4212 19.9039 16.429C19.9091 16.4161 19.9117 16.4109 19.9221 16.3979C19.9169 16.4031 19.9091 16.4031 19.9013 16.4057L19.8987 16.4083ZM29.7981 16.0065C29.7463 15.8847 29.6893 15.7654 29.6296 15.6436C29.6245 15.6384 29.6245 15.6358 29.6219 15.6306C29.513 15.4285 29.3964 15.234 29.2719 15.0474C29.1812 15.26 29.1034 15.4699 29.0335 15.6903C29.1708 15.9287 29.2927 16.175 29.3886 16.4316C29.6011 16.9889 29.7178 17.5929 29.7178 18.2228C29.7178 17.5929 29.8007 16.9837 29.9511 16.4005V16.3953C29.9044 16.2605 29.8552 16.1309 29.8007 16.0013L29.7981 16.0065ZM30.2103 15.6099C30.1144 15.3973 30.0029 15.2003 29.8811 15.0059C29.8629 14.98 29.85 14.9541 29.8292 14.9282C29.7904 14.8556 29.7437 14.7856 29.6945 14.7208C29.6426 14.643 29.5856 14.5653 29.526 14.4927C29.4689 14.4149 29.4093 14.3423 29.3445 14.2672C28.2169 12.9244 26.5294 12.0742 24.645 12.0742C22.6542 12.0742 20.8864 13.0229 19.764 14.4901C19.6343 14.6534 19.5177 14.8271 19.4088 15.0033C19.287 15.1978 19.1755 15.3973 19.0796 15.6073C19.0356 15.698 18.9941 15.7888 18.9578 15.8847C18.8878 16.0454 18.8282 16.2139 18.7712 16.3798C18.7452 16.4653 18.7193 16.5534 18.6986 16.639C18.5638 17.1444 18.4912 17.6758 18.4912 18.2228C18.4912 19.1585 18.7038 20.0451 19.077 20.8383C19.1729 21.0508 19.2844 21.2478 19.4062 21.4422C19.5151 21.6185 19.6318 21.7922 19.7614 21.9555C20.3083 22.6761 21.0134 23.2671 21.8247 23.687C22.2861 23.9281 22.7864 24.1095 23.31 24.2262C23.7429 24.3221 24.1861 24.3739 24.645 24.3739C25.1038 24.3739 25.547 24.3221 25.9799 24.2262C26.5009 24.1095 27.0038 23.9281 27.4652 23.687C28.2765 23.2671 28.979 22.6761 29.5286 21.9555C29.6582 21.7922 29.7748 21.6185 29.8837 21.4422C30.0055 21.2478 30.117 21.0482 30.2129 20.8383C30.5887 20.0451 30.7987 19.1585 30.7987 18.2228C30.7987 17.287 30.5861 16.4005 30.2129 15.6073L30.2103 15.6099ZM19.821 16.6649C19.8469 16.5871 19.8728 16.5094 19.9039 16.4316V16.4264C19.9091 16.4135 19.9117 16.4083 19.9221 16.3953C19.9687 16.2579 20.0309 16.1231 20.0957 15.9884C20.1476 15.8847 20.1994 15.7862 20.2591 15.6851C20.5494 15.1848 20.9226 14.7363 21.3633 14.3631C21.5136 14.2283 21.6744 14.1091 21.8429 13.995C22.0684 13.8472 22.3017 13.715 22.5453 13.6062C22.5453 13.601 22.5505 13.601 22.5505 13.601C22.9704 13.4066 23.4189 13.2718 23.8855 13.1992C23.958 13.1914 24.0332 13.1811 24.1058 13.1733C24.1239 13.1681 24.1447 13.1681 24.1628 13.1681C24.2458 13.1603 24.3261 13.15 24.4143 13.15C24.492 13.1422 24.5698 13.1422 24.6527 13.1422C25.5859 13.1422 26.4569 13.3962 27.2112 13.8369C27.2112 13.8369 27.2138 13.8386 27.219 13.8421C27.9733 14.2879 28.6058 14.9256 29.0412 15.6799C29.1786 15.9184 29.3004 16.1646 29.3964 16.4212C29.6089 16.9786 29.7256 17.5825 29.7256 18.2124C29.7256 18.8423 29.6089 19.4463 29.3964 20.0036C29.3004 20.2628 29.1812 20.509 29.0412 20.7449C28.1651 22.2587 26.5243 23.2826 24.6527 23.2826C22.7812 23.2826 21.1404 22.2587 20.2642 20.7449C20.1269 20.5065 20.005 20.2628 19.9091 20.0036C19.6966 19.4463 19.5799 18.8423 19.5799 18.2124C19.5799 17.6681 19.6655 17.147 19.8262 16.6545L19.821 16.6649ZM19.8987 16.4083C19.8987 16.4083 19.9039 16.4212 19.9039 16.429C19.9091 16.4161 19.9117 16.4109 19.9221 16.3979C19.9169 16.4031 19.9091 16.4031 19.9013 16.4057L19.8987 16.4083ZM29.7981 16.0065C29.7463 15.8847 29.6893 15.7654 29.6296 15.6436C29.6245 15.6384 29.6245 15.6358 29.6219 15.6306C29.513 15.4285 29.3964 15.234 29.2719 15.0474C29.2538 15.0267 29.2408 15.0033 29.2253 14.9826C29.1475 14.8737 29.0697 14.77 28.9842 14.6664C28.9842 14.6612 28.979 14.6586 28.9764 14.6534C28.9453 14.6197 28.9168 14.5808 28.8857 14.5445H28.8805C28.8105 14.4668 28.7431 14.389 28.668 14.3164C27.1023 13.6788 25.7077 13.0437 24.6631 13.0437C23.2556 13.0437 22.4131 13.4584 21.8403 14.0028C22.0658 13.855 22.2991 13.7228 22.5427 13.614C22.5427 13.6088 22.5479 13.6088 22.5479 13.6088C22.9678 13.4144 23.4163 13.2796 23.8829 13.207C23.9554 13.1992 24.0306 13.1888 24.1032 13.1811C24.1213 13.1759 24.1421 13.1759 24.1602 13.1759C24.2432 13.1681 24.3235 13.1577 24.4117 13.1577C24.4894 13.15 24.5672 13.15 24.6501 13.15C25.5833 13.15 26.4543 13.404 27.2086 13.8447C27.2086 13.8447 27.2112 13.8464 27.2164 13.8498C27.9707 14.2957 28.6032 14.9334 29.0386 15.6877C29.176 15.9261 29.2979 16.1724 29.3938 16.429C29.6063 16.9863 29.723 17.5903 29.723 18.2202C29.723 17.5903 29.8059 16.9811 29.9563 16.3979V16.3927C29.9096 16.2579 29.8603 16.1283 29.8059 15.9987L29.7981 16.0065Z" fill="#C46E00"/>
<path d="M24.6451 21.6755C26.552 21.6755 28.0979 20.1296 28.0979 18.2228C28.0979 16.3159 26.552 14.77 24.6451 14.77C22.7382 14.77 21.1924 16.3159 21.1924 18.2228C21.1924 20.1296 22.7382 21.6755 24.6451 21.6755Z" fill="#FFCD24"/>
<path d="M24.6452 14.2308C22.4445 14.2308 20.6533 16.022 20.6533 18.2227C20.6533 20.4235 22.4445 22.2146 24.6452 22.2146C26.8459 22.2146 28.6371 20.4235 28.6371 18.2227C28.6371 16.022 26.8459 14.2308 24.6452 14.2308ZM24.6452 21.1389C23.0407 21.1389 21.7317 19.8299 21.7317 18.2253C21.7317 16.6208 23.0407 15.3118 24.6452 15.3118C26.2498 15.3118 27.5588 16.6208 27.5588 18.2253C27.5588 19.8299 26.2498 21.1389 24.6452 21.1389Z" fill="#C46E00"/>
<path d="M36.9474 25.9914C41.2379 25.9914 44.716 22.5133 44.716 18.2228C44.716 13.9322 41.2379 10.4541 36.9474 10.4541C32.6569 10.4541 29.1787 13.9322 29.1787 18.2228C29.1787 22.5133 32.6569 25.9914 36.9474 25.9914Z" fill="#FFCD24"/>
<path d="M29.9639 14.8193C29.9432 14.8633 29.9198 14.9048 29.9043 14.954V14.9592C29.8965 14.9774 29.8861 14.9903 29.8835 15.0059C29.8654 14.98 29.8524 14.954 29.8317 14.9281C29.7928 14.8555 29.7462 14.7856 29.6969 14.7207C29.614 14.6896 29.5336 14.6611 29.4558 14.63C29.4351 14.6741 29.417 14.7156 29.3988 14.7596C29.3521 14.8555 29.3133 14.9489 29.2744 15.05C29.3988 15.2366 29.5155 15.431 29.6243 15.6332C29.5854 15.7446 29.5466 15.8535 29.5155 15.965C29.4973 16.022 29.4818 16.0764 29.4688 16.1335C29.4377 16.232 29.4118 16.3357 29.391 16.4367C29.6036 16.9941 29.7202 17.598 29.7202 18.2279C29.7202 17.598 29.8032 16.9889 29.9535 16.4056V16.4005C30.0235 16.1283 30.1091 15.8691 30.2127 15.6099C30.2724 15.4491 30.3423 15.2936 30.4149 15.1407C30.4357 15.094 30.459 15.05 30.4797 15.0033C30.3061 14.9463 30.135 14.8866 29.9665 14.8218L29.9639 14.8193ZM29.8809 15.0033C29.7824 15.2055 29.6943 15.4129 29.6217 15.628C29.6269 15.6332 29.6269 15.6358 29.6295 15.641C29.6891 15.7628 29.7462 15.882 29.798 16.0039C29.855 16.1335 29.9017 16.2631 29.9483 16.3979C30.0183 16.1257 30.1039 15.8665 30.2076 15.6073C30.1116 15.3947 30.0002 15.1977 29.8784 15.0033H29.8809ZM40.2573 10.607C40.1743 10.5681 40.0888 10.5344 40.0033 10.4981C39.7389 10.3945 39.4719 10.3037 39.1971 10.2312C38.4946 10.029 37.7559 9.9201 36.9912 9.91492H36.9471C35.9155 9.91492 34.9227 10.1041 34.0076 10.4541C33.611 10.6044 33.2274 10.7833 32.8593 10.9932C32.0869 11.4287 31.387 11.9912 30.796 12.6419C30.6741 12.7766 30.5549 12.9192 30.446 13.0618C30.3242 13.2043 30.2179 13.3521 30.1142 13.5024C29.925 13.7746 29.7513 14.0623 29.5958 14.3604C29.5699 14.4045 29.5492 14.446 29.5258 14.49C29.4999 14.5341 29.4792 14.5808 29.4532 14.6274C29.4325 14.6715 29.4144 14.713 29.3962 14.757C29.3496 14.8529 29.3107 14.9463 29.2718 15.0474C29.1811 15.2599 29.1033 15.4699 29.0333 15.6902C28.7741 16.4886 28.6367 17.3388 28.6367 18.2227C28.6367 19.1067 28.7741 19.9569 29.0333 20.7553C29.1033 20.9756 29.1811 21.1881 29.2718 21.3929C29.3444 21.5822 29.4325 21.7688 29.5258 21.9528C29.6995 22.2976 29.8965 22.6268 30.1116 22.9404C30.2205 23.0908 30.3268 23.2385 30.4434 23.3811C30.5264 23.4848 30.6067 23.5833 30.6975 23.6844C30.7286 23.7233 30.7571 23.7621 30.7934 23.7958C30.9282 23.9462 31.0656 24.0862 31.2133 24.2235C31.4129 24.4128 31.6203 24.5942 31.838 24.7627C33.2455 25.867 35.0238 26.528 36.9445 26.528C41.5249 26.528 45.2524 22.7979 45.2524 18.2201C45.2524 14.8141 43.1942 11.8849 40.2547 10.6018L40.2573 10.607ZM36.9471 25.4548C35.8455 25.4548 34.8008 25.2086 33.8703 24.7679C33.5385 24.6072 33.2222 24.4309 32.9215 24.2287C32.6753 24.0602 32.442 23.884 32.2217 23.6896C31.9547 23.4615 31.7084 23.21 31.4803 22.9482C31.3559 22.8056 31.2392 22.6579 31.1252 22.5075C31.0085 22.352 30.8997 22.1887 30.796 22.0202C30.5627 21.6495 30.3683 21.2555 30.2101 20.8408C30.1065 20.5868 30.0209 20.3224 29.9509 20.0502V20.045C29.8006 19.4618 29.7176 18.8526 29.7176 18.2227C29.7176 17.5928 29.8006 16.9837 29.9509 16.4005V16.3953C30.0209 16.1231 30.1065 15.8639 30.2101 15.6047C30.2698 15.444 30.3398 15.2884 30.4123 15.1355C30.4331 15.0888 30.4564 15.0448 30.4771 14.9981C30.5238 14.9022 30.573 14.8115 30.6249 14.7207C30.6819 14.6222 30.7364 14.5212 30.7986 14.4278C30.9023 14.2593 31.0111 14.096 31.1278 13.9405C31.2392 13.7902 31.3559 13.6424 31.4829 13.4999C32.5923 12.209 34.1554 11.3199 35.9155 11.0658C36.0917 11.0399 36.2732 11.0218 36.4546 11.0088C36.6179 10.9958 36.7838 10.9907 36.9497 10.9907H36.9938C37.7662 10.9958 38.5076 11.1203 39.2075 11.3536C39.5004 11.4495 39.7855 11.5661 40.0629 11.6957C40.1355 11.7294 40.2106 11.7683 40.278 11.8072C42.5954 13.0125 44.1792 15.4336 44.1792 18.2201C44.1792 22.2043 40.9364 25.4496 36.9497 25.4496L36.9471 25.4548ZM29.9639 14.8193C29.9432 14.8633 29.9198 14.9048 29.9043 14.954V14.9592C29.8965 14.9774 29.8861 14.9903 29.8835 15.0059C29.8654 14.98 29.8524 14.954 29.8317 14.9281C29.7928 14.8555 29.7462 14.7856 29.6969 14.7207C29.614 14.6896 29.5336 14.6611 29.4558 14.63C29.4351 14.6741 29.417 14.7156 29.3988 14.7596C29.3521 14.8555 29.3133 14.9489 29.2744 15.05C29.3988 15.2366 29.5155 15.431 29.6243 15.6332C29.6295 15.6384 29.6295 15.641 29.6321 15.6461C29.6917 15.768 29.7487 15.8872 29.8006 16.009C29.8576 16.1387 29.9043 16.2683 29.9509 16.403C30.0209 16.1309 30.1065 15.8717 30.2101 15.6124C30.2698 15.4517 30.3398 15.2962 30.4123 15.1433C30.4331 15.0966 30.4564 15.0525 30.4771 15.0059C30.3035 14.9489 30.1324 14.8892 29.9639 14.8244V14.8193Z" fill="#C46E00"/>
<path d="M36.9474 23.8347C40.0469 23.8347 42.5594 21.3221 42.5594 18.2227C42.5594 15.1233 40.0469 12.6107 36.9474 12.6107C33.848 12.6107 31.3354 15.1233 31.3354 18.2227C31.3354 21.3221 33.848 23.8347 36.9474 23.8347Z" fill="#FFCD24"/>
<path d="M32.4968 15.5088C32.4528 15.374 32.4061 15.2444 32.3491 15.12C32.3283 15.12 32.3024 15.1148 32.2765 15.1122C32.2065 15.2211 32.1417 15.3248 32.0769 15.4362C32.0432 15.4933 32.0121 15.5477 31.9862 15.6047H31.981C31.981 15.6047 31.9732 15.6229 31.968 15.6306C32.0069 15.7421 32.0458 15.851 32.0769 15.9624C32.0951 16.0195 32.1106 16.0739 32.1236 16.1309C32.1547 16.2294 32.1806 16.3331 32.2013 16.4342C32.2921 16.1828 32.4087 15.9417 32.5435 15.7136C32.5487 15.7058 32.5513 15.7006 32.5565 15.6928C32.5876 15.641 32.6161 15.584 32.6524 15.5321C32.6005 15.527 32.5487 15.5192 32.4968 15.5114V15.5088ZM32.191 15.6514C32.1262 15.6384 32.0562 15.6203 31.9888 15.6047H31.9836C31.9836 15.6047 31.9758 15.6229 31.9706 15.6306C32.0095 15.7421 32.0484 15.851 32.0795 15.9624C32.0976 16.0195 32.1132 16.0739 32.1262 16.1309C32.1573 16.2294 32.1832 16.3331 32.2039 16.4342C32.2946 16.1828 32.4113 15.9417 32.5461 15.7136C32.4294 15.6954 32.3076 15.6747 32.191 15.654V15.6514ZM39.8818 12.8208C39.8119 12.7819 39.7393 12.743 39.6667 12.7093C39.3893 12.5719 39.0964 12.4553 38.7957 12.3594C38.2255 12.1779 37.6215 12.0794 36.9916 12.0742H36.9475C36.7791 12.0742 36.6157 12.082 36.4524 12.095C36.271 12.1079 36.0895 12.1287 35.9133 12.1598C34.3502 12.4267 32.9919 13.2822 32.0665 14.4901C31.9369 14.6534 31.8203 14.8271 31.7114 15.0033C31.7062 15.0033 31.7062 15.0085 31.7062 15.0111C31.6414 15.107 31.5844 15.2107 31.53 15.3092C31.504 15.3611 31.4729 15.4181 31.4522 15.4699C31.4263 15.5166 31.4055 15.5606 31.3822 15.6073C31.0064 16.4005 30.7964 17.287 30.7964 18.2228C30.7964 19.1585 31.0089 20.0451 31.3822 20.8383C31.4781 21.0508 31.5896 21.2478 31.7114 21.4422C31.8203 21.6185 31.9369 21.7922 32.0665 21.9555C32.6135 22.6761 33.3185 23.2671 34.1299 23.687C34.5913 23.9281 35.0916 24.1095 35.6152 24.2262C36.0481 24.3221 36.4913 24.3739 36.9501 24.3739H36.9942C40.364 24.3532 43.1013 21.6029 43.1013 18.2228C43.1013 15.8924 41.8026 13.8628 39.8844 12.8182L39.8818 12.8208ZM36.9916 23.2956H36.9475C36.7791 23.2956 36.6157 23.2878 36.4524 23.2697C36.271 23.2515 36.0895 23.2256 35.9133 23.1867C34.4798 22.8886 33.2667 21.9866 32.559 20.7579C32.4217 20.5194 32.2998 20.2758 32.2039 20.0165C31.9914 19.4592 31.8747 18.8553 31.8747 18.2254C31.8747 17.5955 31.9914 16.9915 32.2039 16.4342C32.2946 16.1828 32.4113 15.9417 32.5461 15.7136C32.5513 15.7058 32.5539 15.7006 32.559 15.6928C32.5902 15.641 32.6187 15.584 32.655 15.5321C32.7327 15.4077 32.8157 15.2859 32.9064 15.1744C33.6322 14.2127 34.6924 13.5129 35.9159 13.2614C36.0921 13.2225 36.2736 13.1966 36.455 13.1785C36.6183 13.1603 36.7842 13.1525 36.9501 13.1525H36.9942C37.3234 13.1577 37.6448 13.1914 37.9559 13.2511C38.2799 13.3159 38.5936 13.4144 38.8968 13.544C38.9798 13.5777 39.0575 13.614 39.1353 13.6528C40.8435 14.4642 42.023 16.2087 42.023 18.2228C42.023 21.0067 39.7704 23.2723 36.9942 23.2956H36.9916ZM32.4968 15.5088C32.4528 15.374 32.4061 15.2444 32.3491 15.12C32.3283 15.12 32.3024 15.1148 32.2765 15.1122C32.2065 15.2211 32.1417 15.3248 32.0769 15.4362C32.0432 15.4933 32.0121 15.5477 31.9862 15.6047H31.981C31.981 15.6047 31.9732 15.6229 31.968 15.6306C32.0069 15.7421 32.0458 15.851 32.0769 15.9624C32.0951 16.0195 32.1106 16.0739 32.1236 16.1309C32.1547 16.2294 32.1806 16.3331 32.2013 16.4342C32.2921 16.1828 32.4087 15.9417 32.5435 15.7136C32.5487 15.7058 32.5513 15.7006 32.5565 15.6928C32.5876 15.641 32.6161 15.584 32.6524 15.5321C32.6005 15.527 32.5487 15.5192 32.4968 15.5114V15.5088Z" fill="#C46E00"/>
<path d="M36.9474 21.6755C38.8543 21.6755 40.4001 20.1296 40.4001 18.2228C40.4001 16.3159 38.8543 14.77 36.9474 14.77C35.0405 14.77 33.4946 16.3159 33.4946 18.2228C33.4946 20.1296 35.0405 21.6755 36.9474 21.6755Z" fill="#FFCD24"/>
<path d="M38.1214 14.4045H38.1162C38.0125 14.3734 37.9037 14.3475 37.7974 14.3216C37.5382 14.2645 37.266 14.236 36.9912 14.2308H36.9472C36.7787 14.2308 36.6154 14.2386 36.4521 14.2645C36.4521 14.2645 36.4495 14.2628 36.4443 14.2593C36.4443 14.2593 36.4391 14.2645 36.4365 14.2645C36.2602 14.2853 36.0814 14.3216 35.9155 14.3682C35.41 14.503 34.9434 14.7363 34.5391 15.0422C34.3187 15.2107 34.1165 15.4051 33.9299 15.6124C33.8703 15.685 33.8081 15.7602 33.7536 15.838C33.2534 16.5067 32.9604 17.331 32.9604 18.2253C32.9604 20.0683 34.2176 21.621 35.9181 22.0798C36.0944 22.1265 36.2732 22.1654 36.4572 22.1835C36.6206 22.2094 36.7865 22.2172 36.9523 22.2172H36.9964C39.1764 22.1965 40.9468 20.4131 40.9468 18.2253C40.9468 16.4342 39.7596 14.91 38.1292 14.4045H38.1214ZM36.9912 21.1337C36.9783 21.1389 36.9601 21.1389 36.9472 21.1389C36.7787 21.1389 36.6102 21.1259 36.4521 21.0922C36.2654 21.0663 36.084 21.0145 35.9129 20.9445C34.8164 20.5297 34.0362 19.4696 34.0362 18.2253C34.0362 16.9811 34.8138 15.9287 35.8999 15.5114C35.9051 15.5114 35.9077 15.5114 35.9129 15.5062C35.9699 15.488 36.0244 15.4673 36.0814 15.4465C36.2032 15.4077 36.3276 15.3766 36.4521 15.361C36.6128 15.3273 36.7813 15.3144 36.9472 15.3144C36.9601 15.3144 36.9783 15.3143 36.9912 15.3195C38.575 15.3377 39.8607 16.6363 39.8607 18.2279C39.8607 19.8195 38.575 21.1207 36.9912 21.1363V21.1337Z" fill="#C46E00"/>
<path d="M45.2553 24.5709L43.9592 26.8857H6.03875L4.74268 24.5709H45.2553Z" fill="#E6E6EF"/>
<path d="M48.3035 17.0719H1.69679C1.11699 17.0719 0.646973 17.5419 0.646973 18.1217V23.7596C0.646973 24.3394 1.11699 24.8094 1.69679 24.8094H48.3035C48.8833 24.8094 49.3533 24.3394 49.3533 23.7596V18.1217C49.3533 17.5419 48.8833 17.0719 48.3035 17.0719Z" fill="#F5F5FC"/>
<path opacity="0.16" d="M40.3301 11.2317C40.3301 11.4054 40.3171 11.5817 40.286 11.7528C40.2808 11.7709 40.2808 11.7916 40.273 11.8098C40.2134 12.1597 40.0838 12.4993 39.8894 12.8078C39.8842 12.8129 39.8842 12.8155 39.8816 12.8207C39.7857 12.9711 39.6743 13.1188 39.5498 13.2536L39.5446 13.2588C39.5239 13.2795 39.5006 13.3029 39.4798 13.3288C39.3762 13.4376 39.2647 13.5439 39.1299 13.658L39.104 13.6839C38.8266 13.9224 38.5052 14.1634 38.119 14.4097H38.1138C38.0697 14.4408 38.0308 14.4693 37.9894 14.4952C37.8209 14.6041 37.6394 14.7078 37.445 14.8115C37.3595 14.8633 37.2687 14.9074 37.1728 14.954C37.1651 14.9592 37.1599 14.9618 37.1521 14.9618C37.1003 14.9929 37.0432 15.0189 36.9888 15.0448C36.8721 15.1044 36.7503 15.1614 36.6259 15.2184C36.5663 15.2444 36.5092 15.2703 36.4496 15.2962C36.3589 15.3403 36.2682 15.3792 36.1723 15.4129C36.1412 15.431 36.1075 15.444 36.0764 15.4517C36.0193 15.4725 35.9649 15.4958 35.9079 15.5114C35.9027 15.5165 35.9001 15.5165 35.8949 15.5165C35.5709 15.6332 35.2469 15.711 34.9229 15.768C34.7725 15.7939 34.6248 15.812 34.4744 15.8198H34.4692C34.3344 15.8328 34.1971 15.8406 34.0597 15.8406C33.956 15.8457 33.8523 15.8457 33.7434 15.8457C33.4194 15.8406 33.0928 15.8069 32.7688 15.7602C32.7169 15.755 32.6651 15.7472 32.6081 15.7343C32.5899 15.7291 32.577 15.7291 32.5614 15.7265C32.5562 15.7265 32.5485 15.7265 32.5407 15.7213C32.424 15.7032 32.3022 15.6824 32.1856 15.6617C32.1207 15.6487 32.0508 15.6306 31.9834 15.615H31.9782C31.9782 15.615 31.9652 15.6099 31.9574 15.6099C31.8486 15.5839 31.7423 15.558 31.6282 15.5269C31.5712 15.514 31.5064 15.4958 31.4468 15.4803C31.4027 15.4725 31.3613 15.4595 31.3172 15.4466C31.3172 15.4466 31.3146 15.4448 31.3094 15.4414C31.058 15.3714 30.8039 15.291 30.5629 15.2029C30.511 15.1848 30.4592 15.1692 30.4073 15.1459C30.2829 15.107 30.1559 15.0629 30.0393 15.0163C29.9926 14.9981 29.9433 14.9826 29.8967 14.9644V14.9592C29.8708 14.9515 29.8448 14.9411 29.8241 14.9333C29.8034 14.9255 29.7852 14.9204 29.7671 14.9126C29.6841 14.8789 29.5986 14.8478 29.5208 14.8167C29.4768 14.7985 29.4353 14.783 29.3912 14.7648C29.215 14.6948 29.0465 14.6274 28.878 14.5523H28.8728C28.821 14.5315 28.7743 14.5134 28.725 14.4926H28.7199C28.1937 14.2671 27.6882 14.052 27.206 13.8576C27.206 13.8576 27.2035 13.8558 27.1983 13.8524C26.3662 13.5102 25.6093 13.2458 24.9638 13.1784C24.9146 13.1758 24.8628 13.1707 24.8135 13.1681C24.7617 13.1655 24.7098 13.1603 24.6606 13.1603C24.5698 13.1603 24.4843 13.1603 24.4013 13.1655C24.3158 13.1707 24.2329 13.1732 24.1499 13.1836C24.1318 13.1836 24.111 13.1836 24.0929 13.1888C24.0151 13.194 23.9451 13.2018 23.8726 13.2147C23.3386 13.2847 22.9005 13.4273 22.5376 13.6165C22.5376 13.6165 22.5324 13.6165 22.5324 13.6217C22.2395 13.772 21.9984 13.9587 21.7911 14.1609C21.1275 14.8089 20.8112 15.6358 20.3835 16.1801C20.3576 16.2242 20.3265 16.2631 20.2928 16.302C20.1839 16.4264 20.0647 16.5301 19.9299 16.6078C19.8988 16.6286 19.8729 16.6467 19.8444 16.6597C19.8392 16.6649 19.8314 16.6649 19.8236 16.6675C19.8184 16.6675 19.8158 16.6726 19.8107 16.6726C19.6888 16.7297 19.5592 16.7582 19.4141 16.7685C19.3881 16.7737 19.357 16.7737 19.3285 16.7737C19.3156 16.7737 19.2974 16.7737 19.2845 16.7685C19.2637 16.7737 19.2404 16.7737 19.2248 16.7685H19.2197C19.0071 16.7608 18.8386 16.7167 18.6935 16.6467C18.6883 16.6467 18.6883 16.6415 18.6857 16.6415C18.2632 16.4342 18.0636 16.0168 17.9314 15.5399V15.5347C17.9314 15.5347 17.9262 15.5347 17.9262 15.5295C17.8484 15.2521 17.7966 14.9566 17.7318 14.6715V14.6585C17.6747 14.4071 17.6099 14.166 17.5166 13.9587V13.9535C17.5166 13.9535 17.5114 13.9457 17.5114 13.9405V13.9353C17.4466 13.7928 17.3637 13.6683 17.26 13.5647C16.6249 12.9166 15.8706 12.7144 15.067 12.7196H15.0619C14.9582 12.7196 14.8623 12.7248 14.7586 12.7326C14.4734 12.7507 14.1883 12.7922 13.9006 12.8415H13.8954C13.7917 12.8596 13.688 12.8752 13.5843 12.8933H13.5792C13.4832 12.914 13.3847 12.9322 13.2862 12.9529C13.2344 12.9607 13.1774 12.9711 13.1229 12.984C12.9985 13.0099 12.8689 13.041 12.7419 13.0618C12.6849 13.0747 12.6304 13.0825 12.5734 13.0929C12.449 13.1188 12.3271 13.1395 12.2053 13.1629H12.1924C12.1353 13.1758 12.0835 13.1836 12.0291 13.194C11.7698 13.2329 11.5158 13.264 11.2696 13.2769C10.8367 13.2977 10.4193 13.2692 10.0305 13.1395C10.0227 13.1344 10.0098 13.1318 9.99941 13.1266C9.79203 13.0566 9.59762 12.9633 9.4084 12.8285C9.40321 12.8285 9.39544 12.8233 9.39025 12.8207C9.11808 12.6341 8.86923 12.3749 8.64371 12.0353C8.64371 12.0301 8.63853 12.0301 8.63853 12.0275C8.62557 12.0094 8.61261 11.9938 8.59965 11.9757C8.50892 11.8331 8.4493 11.6828 8.40524 11.5298C8.39746 11.5039 8.38709 11.478 8.3845 11.4521C8.34562 11.2914 8.32488 11.128 8.33784 10.957L10.2638 10.7444L12.2053 10.5319L12.7393 10.4722H12.7445L12.8352 10.4645L14.673 10.2623L17.7629 9.92529H36.9758C37.7405 9.93048 38.4767 10.0368 39.1817 10.2415C39.4591 10.3141 39.7261 10.4048 39.9879 10.5085C40.0734 10.5422 40.1616 10.5785 40.2419 10.6174C40.2808 10.7988 40.3067 10.9803 40.3119 11.1643C40.3119 11.1903 40.3119 11.2162 40.3171 11.2421L40.3301 11.2317Z" fill="black"/>
<path d="M39.2567 10.8041C39.2567 10.9907 39.2386 11.1747 39.2049 11.3562C39.1349 11.7113 38.9975 12.0509 38.7953 12.3567C38.6994 12.5045 38.5932 12.6419 38.4661 12.7715C38.4532 12.7845 38.4402 12.7974 38.4273 12.8104C38.2847 12.9581 38.1292 13.1033 37.9529 13.251C37.6807 13.4791 37.3619 13.7124 36.9912 13.9457C36.8227 14.0494 36.6413 14.1583 36.452 14.2568C36.452 14.2568 36.4495 14.2585 36.4443 14.262C36.4443 14.262 36.4391 14.2672 36.4365 14.2672C36.2732 14.3579 36.0943 14.4486 35.9155 14.5341C35.747 14.6171 35.5707 14.6949 35.3893 14.7726C35.1093 14.8945 34.8242 14.9852 34.539 15.0448C33.9999 15.1692 33.4503 15.2081 32.9086 15.1744C32.7271 15.1666 32.5405 15.1485 32.3565 15.1226C32.3357 15.1226 32.3098 15.1174 32.2839 15.1148C32.0972 15.0889 31.9132 15.0552 31.7266 15.0163H31.7136C31.4881 14.9696 31.2652 14.9126 31.0448 14.853C30.9075 14.8141 30.7675 14.77 30.6301 14.7286C30.4538 14.6767 30.2802 14.6171 30.1091 14.5549C29.9406 14.4953 29.7721 14.4305 29.6036 14.3657C29.5207 14.3346 29.4351 14.3009 29.3522 14.2697C28.8467 14.0676 28.3594 13.855 27.8902 13.645C27.885 13.645 27.885 13.6399 27.8824 13.6399C26.7134 13.1344 25.6635 12.6808 24.8263 12.6211C24.7693 12.616 24.7096 12.616 24.6526 12.616C24.5541 12.616 24.4582 12.6211 24.3623 12.6237C24.2638 12.6289 24.1679 12.6315 24.0772 12.6445C24.0175 12.6497 23.9553 12.6574 23.9009 12.6652H23.8957C23.8231 12.673 23.7531 12.686 23.6832 12.6989C22.4234 12.94 21.8064 13.658 21.3658 14.3682C20.9847 14.9722 20.7359 15.5684 20.316 15.8691C20.246 15.9209 20.1734 15.9598 20.0956 15.9909C20.0101 16.0298 19.9142 16.0557 19.8105 16.0635C19.7664 16.0687 19.7249 16.0713 19.6757 16.0713C19.6031 16.0713 19.5331 16.0661 19.4683 16.0583C19.3828 16.0506 19.305 16.0324 19.2298 16.0117C19.1313 15.978 19.0406 15.9339 18.9629 15.8821C18.5948 15.641 18.4367 15.1951 18.3252 14.7156C18.2656 14.4616 18.2215 14.1972 18.1645 13.9483C18.1593 13.9405 18.1593 13.9302 18.1567 13.9224C18.1049 13.6969 18.0452 13.4869 17.9545 13.3055C17.9027 13.1888 17.8327 13.0851 17.7523 12.9996C17.3557 12.5849 16.9099 12.3645 16.4407 12.266C15.7512 12.1105 14.9995 12.222 14.2478 12.3749C13.9315 12.4345 13.6127 12.5045 13.3016 12.5641C13.1591 12.59 13.0217 12.616 12.8817 12.6367H12.8765C12.8324 12.6445 12.7987 12.6497 12.7547 12.6574C12.5732 12.6834 12.3918 12.7015 12.2207 12.7145C11.9485 12.7326 11.6893 12.7274 11.4353 12.6834H11.4301C11.1061 12.6367 10.8002 12.533 10.5099 12.3516C10.217 12.1649 9.94998 11.8979 9.70632 11.5273C9.70113 11.5195 9.69336 11.5065 9.68817 11.4962C9.58967 11.3354 9.5145 11.1721 9.47302 11.0011C9.42636 10.8248 9.40822 10.6382 9.42636 10.4437C9.47302 9.47688 10.2584 8.3804 11.7023 7.39539C14.0922 5.75197 18.2941 4.39887 23.9475 4.40924C30.8401 4.41442 34.6946 5.87121 36.8435 7.37465C36.8486 7.37465 36.8512 7.37983 36.8564 7.37983C37.6678 7.94492 38.2328 8.52038 38.6346 9.01548C38.925 9.37838 39.109 9.79571 39.1945 10.2286C39.2386 10.4178 39.2542 10.6096 39.2542 10.8015L39.2567 10.8041Z" fill="url(#paint0_linear_109_10198)"/>
<path d="M15.7514 11.3277C17.0914 11.3277 18.1777 10.2414 18.1777 8.90147C18.1777 7.56149 17.0914 6.47522 15.7514 6.47522C14.4115 6.47522 13.3252 7.56149 13.3252 8.90147C13.3252 10.2414 14.4115 11.3277 15.7514 11.3277Z" fill="#9E3D20"/>
<path d="M23.9324 7.11284C25.8966 7.11284 27.4888 5.52058 27.4888 3.55642C27.4888 1.59226 25.8966 0 23.9324 0C21.9682 0 20.376 1.59226 20.376 3.55642C20.376 5.52058 21.9682 7.11284 23.9324 7.11284Z" fill="#9E3D20"/>
<path d="M32.6938 11.3847C34.5019 11.3847 35.9677 9.9189 35.9677 8.11079C35.9677 6.30268 34.5019 4.83691 32.6938 4.83691C30.8857 4.83691 29.4199 6.30268 29.4199 8.11079C29.4199 9.9189 30.8857 11.3847 32.6938 11.3847Z" fill="#9E3D20"/>
<path d="M32.266 8.4582C32.0275 8.45302 31.8772 8.71742 31.9886 8.92738C32.0586 9.05958 32.1545 9.18141 32.2816 9.22029C32.4889 9.28251 32.6963 9.25399 32.87 9.19437C33.137 9.10365 33.1577 8.73038 32.9037 8.60855C32.7378 8.52819 32.5226 8.46339 32.266 8.4582Z" fill="#BC4E35"/>
<path d="M34.2101 6.64102C34.3785 6.63843 34.4848 6.82506 34.4071 6.97281C34.3578 7.06613 34.2904 7.15167 34.1997 7.18018C34.0519 7.22425 33.9068 7.20351 33.7824 7.16204C33.5931 7.09723 33.5802 6.83284 33.759 6.7473C33.8783 6.69027 34.0286 6.64361 34.2101 6.64102Z" fill="#BC4E35"/>
<path d="M32.6884 10.563C31.0191 10.563 29.6452 9.31095 29.4431 7.69604C29.4275 7.83084 29.4146 7.96563 29.4146 8.10301C29.4146 9.90973 30.8791 11.3769 32.6884 11.3769C34.4977 11.3769 35.9623 9.91233 35.9623 8.10301C35.9623 7.96563 35.9519 7.82824 35.9338 7.69604C35.7316 9.31095 34.3578 10.563 32.6884 10.563Z" fill="#89311D"/>
<path d="M31.107 6.54255C31.107 6.54255 30.9282 6.48293 30.9567 6.64365C30.9852 6.80436 31.3144 6.92619 31.3818 6.7914C31.4492 6.65661 31.3118 6.56329 31.107 6.54515V6.54255Z" fill="#BC4E35"/>
<path d="M23.3646 3.77679C23.0458 3.77161 22.8462 4.12155 22.9939 4.4015C23.0873 4.57776 23.2143 4.73848 23.3828 4.79032C23.6601 4.87327 23.9349 4.83438 24.1656 4.75662C24.5207 4.63738 24.5466 4.13969 24.2122 3.97898C23.9919 3.87011 23.7068 3.78457 23.3646 3.77938V3.77679Z" fill="#BC4E35"/>
<path d="M25.9491 1.36342C26.1746 1.36083 26.3145 1.60708 26.2109 1.80668C26.1461 1.9311 26.0553 2.04516 25.9361 2.08145C25.7391 2.14107 25.5447 2.11255 25.3814 2.05812C25.1299 1.97258 25.1118 1.62264 25.3503 1.50599C25.5084 1.43082 25.708 1.36861 25.9516 1.36342H25.9491Z" fill="#BC4E35"/>
<path d="M22.4182 1.75232C22.4182 1.75232 22.1823 1.67197 22.2186 1.88452C22.2549 2.09708 22.693 2.26298 22.7837 2.07893C22.8745 1.89489 22.6878 1.77824 22.4182 1.74973V1.75232Z" fill="#BC4E35"/>
<path d="M16.0933 9.30838C16.2852 9.30579 16.4044 9.51575 16.3163 9.68424C16.2592 9.79052 16.1841 9.88643 16.083 9.91753C15.9171 9.96678 15.7512 9.94345 15.6112 9.89679C15.3986 9.82421 15.3805 9.52612 15.5827 9.42762C15.7149 9.36281 15.886 9.31097 16.0933 9.30579V9.30838Z" fill="#BC4E35"/>
<path d="M14.5382 7.85425C14.4034 7.85425 14.3178 8.002 14.3801 8.12124C14.4189 8.19641 14.4734 8.2664 14.5459 8.28714C14.6652 8.32343 14.7818 8.30528 14.8803 8.27418C15.0307 8.22233 15.0436 8.01237 14.8985 7.94238C14.8052 7.89572 14.6833 7.85943 14.5356 7.85684L14.5382 7.85425Z" fill="#BC4E35"/>
<path d="M17.0188 7.77383C17.0188 7.77383 17.1614 7.72458 17.1406 7.85419C17.1199 7.9838 16.8555 8.0823 16.8011 7.97084C16.7466 7.85937 16.8581 7.78938 17.0214 7.77383H17.0188Z" fill="#BC4E35"/>
<path d="M15.7514 10.7989C14.4917 10.7989 13.4574 9.83976 13.3382 8.61108C13.3304 8.68885 13.3252 8.7692 13.3252 8.84956C13.3252 10.1897 14.4113 11.2758 15.7514 11.2758C17.0916 11.2758 18.1777 10.1897 18.1777 8.84956C18.1777 8.7692 18.1725 8.68885 18.1647 8.61108C18.0455 9.83976 17.0112 10.7989 15.7514 10.7989Z" fill="#89311D"/>
<path d="M23.9324 6.45967C22.079 6.45967 20.5574 5.04177 20.3915 3.22986C20.3812 3.33873 20.376 3.4476 20.376 3.55906C20.376 5.5239 21.9676 7.11548 23.9324 7.11548C25.8972 7.11548 27.4888 5.5239 27.4888 3.55906C27.4888 3.4476 27.481 3.33873 27.4733 3.22986C27.3074 5.04177 25.7858 6.45967 23.9324 6.45967Z" fill="#89311D"/>
</g>
<defs>
<linearGradient id="paint0_linear_109_10198" x1="24.339" y1="2.32775" x2="24.339" y2="22.3209" gradientUnits="userSpaceOnUse">
<stop stop-color="#F23920"/>
<stop offset="1" stop-color="#D62300"/>
</linearGradient>
<clipPath id="clip0_109_10198">
<rect width="48.7064" height="32" fill="white" transform="translate(0.646973)"/>
</clipPath>
</defs>
</svg>
