<svg width="44" height="32" viewBox="0 0 44 32" fill="none" xmlns="http://www.w3.org/2000/svg">
<g clip-path="url(#clip0_109_10496)">
<path d="M42.443 11.0659C42.373 12.8934 39.2676 14.5161 34.4773 15.5555C31.0272 16.3046 26.6983 16.7505 21.9988 16.7505C21.0656 16.7505 20.148 16.7323 19.2485 16.6986C9.33356 16.3254 1.66859 13.951 1.55713 11.0659H42.4456H42.443Z" fill="#1A292D"/>
<path d="M21.9986 18.1269C33.9911 18.1269 43.7129 14.9656 43.7129 11.0659C43.7129 7.1662 33.9911 4.00488 21.9986 4.00488C10.006 4.00488 0.28418 7.1662 0.28418 11.0659C0.28418 14.9656 10.006 18.1269 21.9986 18.1269Z" fill="#1A292D"/>
<path d="M38.614 7.65197C37.7949 7.33055 36.8617 7.03504 35.83 6.76805C35.7108 6.28073 35.5605 5.8634 35.4023 5.51086C36.4159 5.77008 37.3542 6.05781 38.2122 6.37146C38.2122 6.37923 38.22 6.38701 38.22 6.39478L38.233 6.42848C38.3703 6.77842 38.5025 7.18539 38.614 7.65197Z" fill="#304044"/>
<path d="M21.9984 6.62554C32.4629 6.62554 41.0844 8.83664 42.2923 11.688C42.3882 11.4625 42.4427 11.2344 42.4427 11.0011C42.4427 7.82571 33.2898 5.25171 21.9984 5.25171C10.7071 5.25171 1.5542 7.82571 1.5542 11.0037C1.5542 11.237 1.60863 11.4651 1.70454 11.6906C2.91248 8.83923 11.5339 6.62814 21.9984 6.62814V6.62554Z" fill="#1A292D"/>
<path d="M43.6818 11.4625C43.0727 22.9068 33.5984 32 21.9986 32C10.3987 32 0.927025 22.9068 0.317871 11.4625C0.818155 14.4045 6.85785 16.8645 15.1009 17.7614C17.0709 17.9765 19.1679 18.1009 21.3453 18.1217C21.4957 18.1217 21.6434 18.1217 21.7938 18.1217H21.9986C25.1739 18.1217 28.1886 17.8987 30.9077 17.4996C31.8383 17.3648 32.73 17.2066 33.5854 17.033C35.2392 16.6934 36.7427 16.2813 38.0543 15.8121C41.3126 14.6508 43.3941 13.1318 43.6792 11.4573L43.6818 11.4625Z" fill="#1A292D"/>
<path d="M42.6294 8.85993C42.6294 8.85993 42.6191 8.84956 42.6139 8.84438C42.5387 8.7718 42.4583 8.69922 42.3754 8.62664C42.3365 8.59294 42.3002 8.55665 42.2587 8.52295C42.1836 8.45815 42.098 8.39594 42.0177 8.33113C41.971 8.29484 41.9295 8.25855 41.8803 8.22226C41.8155 8.1756 41.7455 8.12376 41.6729 8.07451C41.6159 8.03563 41.5589 7.99675 41.4993 7.95786C41.4759 7.94231 41.4526 7.92676 41.4293 7.91121C41.3437 7.85677 41.2582 7.80234 41.1675 7.74531C41.113 7.7142 41.0586 7.68051 41.0016 7.64681C40.8486 7.55867 40.6905 7.47054 40.5272 7.38241C40.4624 7.34871 40.3924 7.31501 40.325 7.27872C40.2421 7.23725 40.1617 7.19318 40.0762 7.15171C40.0658 7.14652 40.0554 7.14134 40.0451 7.13616C39.9725 7.10246 39.8999 7.06617 39.8247 7.03247C39.7288 6.9884 39.6303 6.94174 39.5318 6.89768C39.4566 6.86398 39.3841 6.83287 39.3063 6.79918C39.1948 6.75252 39.0834 6.70586 38.9693 6.6592C38.9019 6.63069 38.8371 6.60477 38.7671 6.57884C38.5831 6.50626 38.3965 6.43368 38.2046 6.3637C38.2046 6.37147 38.2124 6.37925 38.2124 6.38703L38.2254 6.42072C38.3628 6.77066 38.495 7.17763 38.6064 7.64422C38.8967 7.75827 39.1715 7.87492 39.4307 7.99156C39.4644 8.00712 39.4955 8.02267 39.5266 8.03822C39.607 8.07451 39.6847 8.11339 39.7625 8.15228C39.817 8.1782 39.8714 8.20671 39.9258 8.23522C39.9621 8.25337 39.9984 8.27411 40.0347 8.29225C40.1099 8.33113 40.1876 8.37261 40.2602 8.41408C40.3613 8.47111 40.4598 8.52814 40.5557 8.58516C40.5557 8.58516 40.5609 8.58776 40.5635 8.59035C40.6516 8.64219 40.732 8.69662 40.8149 8.75106C40.8564 8.77957 40.8979 8.8055 40.9393 8.83401C41.0119 8.88326 41.0845 8.9351 41.1519 8.98435C41.2374 9.04916 41.3178 9.11396 41.3956 9.17876C41.3982 9.18136 41.4033 9.18395 41.4059 9.18654C41.4681 9.23838 41.5226 9.29023 41.5796 9.34466C41.6003 9.36281 41.6211 9.38095 41.6392 9.3991C41.6729 9.4302 41.7014 9.4639 41.7325 9.49501C41.7662 9.5313 41.8025 9.56759 41.8336 9.60128C41.8621 9.63239 41.8881 9.66609 41.914 9.69719C41.9451 9.73348 41.9736 9.77236 42.0021 9.80865C42.0255 9.83976 42.0488 9.87346 42.0695 9.90456C42.0954 9.94345 42.1214 9.98233 42.1447 10.0186C42.1628 10.0497 42.1836 10.0808 42.1991 10.1119C42.2225 10.1534 42.2406 10.1923 42.2587 10.2338C42.2717 10.2649 42.2873 10.2934 42.3002 10.3245C42.3184 10.3712 42.3339 10.4152 42.3495 10.4619C42.3573 10.4878 42.3676 10.5137 42.3754 10.5396C42.3935 10.607 42.4091 10.677 42.4195 10.7444C42.4246 10.7833 42.4272 10.8248 42.4298 10.8637C42.4324 10.9077 42.4402 10.9518 42.4402 10.9959C42.4402 11.0166 42.4402 11.0399 42.4402 11.0581C42.3935 12.3153 40.9108 13.4739 38.4379 14.4123C37.3103 14.84 35.9754 15.2236 34.4745 15.5477C33.5362 15.7524 32.5278 15.9339 31.4702 16.0894C28.637 16.5068 25.415 16.7426 21.996 16.7426C21.6797 16.7426 21.3635 16.7426 21.0498 16.7349C20.4407 16.7271 19.8393 16.7115 19.2457 16.6908C17.5427 16.6286 15.9044 16.5016 14.3647 16.3279C6.92007 15.4854 1.64765 13.448 1.55433 11.0581C1.55433 11.0373 1.55433 11.014 1.55433 10.9959C1.55433 8.4737 7.32185 6.33259 15.3471 5.55495C17.4312 5.35276 19.6682 5.24389 21.9986 5.24389C27.3332 5.24389 32.1883 5.81675 35.8276 6.7577C35.7084 6.27038 35.5581 5.85304 35.3999 5.50051C31.7087 4.55957 27.0558 3.99707 21.9986 3.99707C19.6527 3.99707 17.3897 4.1189 15.2719 4.34442C6.57272 5.2724 0.28418 7.93194 0.28418 11.0658C0.28418 11.2006 0.294548 11.3302 0.317878 11.4624C0.818161 14.4045 6.85785 16.8645 15.1009 17.7613C17.0709 17.9765 19.1679 18.1009 21.3453 18.1217C21.4957 18.1217 21.6434 18.1217 21.7938 18.1217H21.9986C25.1739 18.1217 28.1886 17.8987 30.9078 17.4995C31.8383 17.3648 32.73 17.2066 33.5854 17.033C35.2392 16.6934 36.7427 16.2812 38.0543 15.8121C41.3126 14.6508 43.3941 13.1318 43.6792 11.4573C43.7026 11.3251 43.7129 11.1955 43.7129 11.0607C43.7129 10.2908 43.3293 9.54944 42.6268 8.85475L42.6294 8.85993Z" fill="#304044"/>
<path d="M23.8156 5.83496H11.5029V15.1174H23.8156V5.83496Z" fill="white"/>
<path d="M11.5029 5.83487L20.337 1.82483H31.3354L23.8156 5.83487H11.5029Z" fill="#F6F7F0"/>
<path d="M31.3352 1.82483V9.24095L23.8154 15.1173V5.83487L31.3352 1.82483Z" fill="#E4E5DF"/>
<path d="M34.6327 12.3879C34.2958 12.7586 34.3243 13.334 34.7001 13.6736C34.9749 13.9224 35.1797 14.2568 35.0423 14.6586C34.9853 14.8323 34.6483 15.1926 34.0988 15.6359C33.2693 15.8069 32.3905 15.9625 31.4755 16.0973C30.3064 16.2683 29.0726 16.4109 27.7843 16.5146C25.9516 16.6675 24.0101 16.7505 22.0012 16.7505C21.6824 16.7505 21.3661 16.7479 21.0551 16.7427C20.6715 16.7401 20.2904 16.7323 19.9146 16.7168C21.0058 15.8225 23.1729 13.8965 23.5358 12.4242C23.9661 10.6693 23.5643 8.23528 26.1538 7.54059C26.8459 7.35396 27.3903 6.83553 27.6236 6.15898C27.7013 5.93346 27.818 5.70535 27.9528 5.50057C28.1913 5.14027 28.4868 4.85254 28.7589 4.76181C29.0467 4.6659 29.3007 4.55963 29.5236 4.44039C30.3609 4.0075 30.7808 3.42686 31.0011 2.57664C31.2785 1.52941 31.9317 0.10114 33.5311 0.00263907C35.5841 -0.121784 35.7033 3.64978 35.6385 5.26987C35.6281 5.51872 35.6696 5.76497 35.7551 5.99567C35.8148 6.15898 35.9003 6.31451 36.004 6.45707C36.4757 7.1077 37.1342 8.31305 36.6468 9.48729C36.2139 10.5345 35.2963 11.6569 34.6353 12.3853L34.6327 12.3879Z" fill="#1E8637"/>
<path d="M41.971 11.7424C41.818 12.1079 41.6081 12.4838 41.3722 12.8467C40.6853 13.417 39.6899 13.9484 38.4405 14.4227C37.3129 14.8478 35.9754 15.2341 34.4771 15.5581C34.3527 15.5866 34.2257 15.6125 34.0986 15.6384C33.2692 15.8095 32.3904 15.965 31.4754 16.0998C30.3063 16.2709 29.0725 16.4135 27.7842 16.5172C28.3052 15.8951 28.7199 15.2496 28.8599 14.6767C29.2902 12.9219 28.8884 10.4878 31.478 9.79315C32.1701 9.60652 32.7118 9.08809 32.9477 8.41154C33.1655 7.78943 33.6554 7.15954 34.0831 7.01438C34.4615 6.88736 34.783 6.7422 35.0551 6.5789C35.2858 6.4441 35.4777 6.29117 35.6384 6.12268C35.6798 6.08121 35.7161 6.03973 35.7524 5.99826C36.0246 5.67424 36.2035 5.29319 36.3253 4.8292C36.6026 3.78197 37.2559 2.3537 38.8552 2.2552C40.9082 2.13078 41.0274 5.90235 40.9626 7.52244C40.9626 7.55613 40.96 7.59242 40.96 7.62612C40.9652 8.01754 41.0948 8.3934 41.3281 8.71223C41.5044 8.95589 41.7066 9.27732 41.8647 9.6454C42.1317 10.2597 42.2743 11.0063 41.971 11.745V11.7424Z" fill="#44C660"/>
<path d="M14.7925 15.3325C14.8676 15.4958 14.9091 15.6747 14.9091 15.8691C14.9091 16.0506 14.8728 16.2268 14.8028 16.385C14.6551 16.372 14.5099 16.3538 14.3648 16.3383C13.5197 16.245 12.7058 16.1335 11.923 16.0065C11.9204 15.9987 11.9178 15.9935 11.9126 15.9884C10.3029 15.7162 9.08974 15.4621 8.12028 15.2263C8.10732 15.2237 8.09436 15.2211 8.0814 15.2185C5.97917 14.7027 5.05378 14.2827 3.81214 13.995C3.527 14.1453 3.20039 14.2309 2.85305 14.2309C2.74677 14.2309 2.64308 14.2231 2.5394 14.2024C1.72028 14.0805 1.05669 13.474 0.854505 12.6834C0.810439 12.5175 0.787109 12.3464 0.787109 12.1649C0.787109 11.6361 0.986704 11.1566 1.31331 10.7911C1.0878 10.4878 0.953006 10.1094 0.953006 9.70241C0.953006 9.54429 0.971151 9.39135 1.01003 9.24619C1.17593 8.60852 1.67103 8.10824 2.30351 7.93716C2.29055 7.85162 2.28018 7.76349 2.28018 7.67017C2.28018 6.65664 3.0993 5.83752 4.11283 5.83752C4.66755 5.83752 5.16524 6.08378 5.49962 6.47778C5.72514 6.737 5.87548 7.06102 5.92474 7.41873C5.96103 7.41614 5.99732 7.41095 6.0362 7.40836C6.08026 7.40577 6.12433 7.40318 6.17099 7.40318C7.31153 7.40318 8.23693 8.33117 8.23693 9.47171C8.23693 9.50281 8.23433 9.53133 8.23174 9.56243C8.26285 9.56243 8.29136 9.55725 8.32247 9.55725C9.28415 9.55725 10.0851 10.2105 10.3184 11.097C10.5362 10.9389 10.8006 10.8455 11.0883 10.8455C11.6482 10.8455 12.12 11.1929 12.3144 11.6828C12.558 11.4054 12.908 11.2292 13.302 11.2292C14.033 11.2292 14.6214 11.8176 14.6214 12.5486C14.6214 12.8648 14.5073 13.15 14.3233 13.3781C14.7536 13.5932 15.0491 14.0365 15.0491 14.5523C15.0491 14.8452 14.9506 15.1148 14.7873 15.3351L14.7925 15.3325Z" fill="url(#paint0_linear_109_10496)"/>
</g>
<defs>
<linearGradient id="paint0_linear_109_10496" x1="0.789702" y1="11.1099" x2="15.0569" y2="11.1099" gradientUnits="userSpaceOnUse">
<stop stop-color="#F23920"/>
<stop offset="1" stop-color="#D62300"/>
</linearGradient>
<clipPath id="clip0_109_10496">
<rect width="43.4314" height="32" fill="white" transform="translate(0.28418)"/>
</clipPath>
</defs>
</svg>
