<svg width="34" height="32" viewBox="0 0 34 32" fill="none" xmlns="http://www.w3.org/2000/svg">
<g clip-path="url(#clip0_109_10512)">
<path d="M0.837891 32V23.8092V17.0187L33.1626 8.29626V24.6372L0.837891 32Z" fill="#9A663E"/>
<path d="M0.837891 22.1329L33.1626 14.5063V19.4338L0.837891 26.9467V22.1329Z" fill="#E2D9C9"/>
<path d="M0.837891 17.0187L10.7821 3.77062C11.606 2.67473 12.8683 1.99284 14.2362 1.89137C23.7501 1.18107 30.0738 3.30791 33.1585 8.3003L0.837891 17.0187Z" fill="#7F5332"/>
<path d="M33.1627 8.2963C32.0019 7.89447 29.1079 7.07052 28.8319 7.38711C28.4138 7.86606 6.4108 14.9812 6.4108 14.9812C6.4108 14.9812 2.23018 16.6291 0.842056 17.0147C0.773055 17.104 0.712172 18.8493 2.52648 18.48C3.25707 18.3298 3.3829 16.3328 4.96991 15.9026C5.97651 15.6306 7.09675 17.9158 8.07087 17.7494C9.45494 17.514 9.85271 14.7621 11.6792 14.9163C13.5057 15.0746 11.2611 22.896 15.5554 22.068C19.8497 21.24 15.4255 13.7879 18.3398 13.5485C21.1769 13.313 19.1597 17.1121 22.4108 16.6819C24.7487 16.3694 23.3078 13.9787 24.1115 12.6312C24.1277 12.6068 24.1399 12.5824 24.1561 12.5581C24.1602 12.554 24.1642 12.5459 24.1683 12.5419C24.1845 12.5175 24.2008 12.4972 24.217 12.4729C24.2211 12.4647 24.2251 12.4607 24.2332 12.4566C24.2495 12.4363 24.2698 12.412 24.2901 12.3917C24.2941 12.3876 24.2982 12.3795 24.3063 12.3754C24.3266 12.3552 24.3469 12.3308 24.3712 12.3105C24.3712 12.3105 24.3793 12.3064 24.3793 12.3024C24.3996 12.2821 24.424 12.2618 24.4483 12.2456C24.4524 12.2456 24.4565 12.2374 24.4605 12.2334C24.4849 12.2131 24.5133 12.1928 24.5376 12.1766C24.5458 12.1725 24.5498 12.1684 24.5579 12.1644C24.5863 12.1441 24.6148 12.1279 24.6432 12.1116C24.6513 12.1116 24.6553 12.1035 24.6635 12.0994C24.6919 12.0832 24.7244 12.0629 24.7568 12.0467C24.7609 12.0467 24.769 12.0426 24.7731 12.0386C24.8055 12.0223 24.838 12.0061 24.8745 11.9899C24.8745 11.9899 24.8786 11.9899 24.8826 11.9899C24.9192 11.9736 24.9557 11.9574 24.9963 11.9452C25.0044 11.9452 25.0085 11.9411 25.0166 11.9371C25.0531 11.9249 25.0937 11.9087 25.1343 11.8965C25.1424 11.8965 25.1505 11.8924 25.1586 11.8884C25.1992 11.8762 25.2439 11.864 25.2885 11.8519C25.2966 11.8519 25.3048 11.8519 25.3129 11.8478C25.3575 11.8356 25.4062 11.8275 25.4549 11.8153C25.459 11.8153 25.4631 11.8153 25.4671 11.8153C25.5158 11.8072 25.5645 11.795 25.6173 11.7869C25.6214 11.7869 25.6295 11.7869 25.6335 11.7869C25.6863 11.7788 25.7391 11.7707 25.7959 11.7666C25.804 11.7666 25.8162 11.7666 25.8243 11.7666C25.8771 11.7585 25.9339 11.7544 25.9907 11.7504C26.0029 11.7504 26.011 11.7504 26.0232 11.7504C26.0841 11.7463 26.1409 11.7423 26.2058 11.7382C26.214 11.7382 26.2221 11.7382 26.2302 11.7382C26.2951 11.7382 26.3641 11.7341 26.4331 11.7301C26.4697 11.7301 26.5021 11.7301 26.5346 11.7301C26.5427 11.7301 26.5468 11.7301 26.5549 11.7301C26.5874 11.7301 26.6158 11.7301 26.6442 11.7341C26.6482 11.7341 26.6564 11.7341 26.6604 11.7341C26.6888 11.7341 26.7172 11.7423 26.7457 11.7463C26.7741 11.7504 26.7984 11.7544 26.8268 11.7626C26.8309 11.7626 26.835 11.7626 26.839 11.7626C26.8634 11.7666 26.8877 11.7747 26.908 11.7829C26.908 11.7829 26.9161 11.7829 26.9202 11.7829C26.9445 11.791 26.9648 11.7991 26.9851 11.8072C27.0054 11.8153 27.0257 11.8234 27.046 11.8356C27.046 11.8356 27.0541 11.8356 27.0541 11.8397C27.0744 11.8478 27.0907 11.86 27.1069 11.8721C27.1069 11.8721 27.111 11.8721 27.115 11.8762C27.1515 11.9006 27.184 11.9249 27.2124 11.9493C27.2124 11.9493 27.2165 11.9493 27.2205 11.9533C27.2368 11.9655 27.249 11.9817 27.2611 11.9939C27.2895 12.0264 27.318 12.0589 27.3423 12.0913C27.3545 12.1076 27.3667 12.1238 27.3748 12.14C27.3991 12.1725 27.4194 12.209 27.4397 12.2456C27.6711 12.6555 27.7807 13.1547 28.7426 13.1385C29.4773 13.1263 29.7492 12.5297 29.9724 11.9736C29.9887 11.9371 30.0009 11.9006 30.0171 11.864C30.0293 11.8397 30.0374 11.8113 30.0496 11.7869C30.0536 11.7747 30.0577 11.7666 30.0617 11.7544C30.0699 11.7341 30.078 11.7139 30.0861 11.6936C30.0902 11.6814 30.0942 11.6692 30.1023 11.657C30.1105 11.6408 30.1186 11.6205 30.1267 11.6043C30.1307 11.5921 30.1389 11.5799 30.1429 11.5677C30.151 11.5515 30.1592 11.5353 30.1673 11.519C30.1713 11.5068 30.1795 11.4947 30.1835 11.4825C30.1916 11.4663 30.1997 11.4541 30.2079 11.4378C30.2119 11.4257 30.22 11.4135 30.2282 11.4054C30.2363 11.3932 30.2444 11.377 30.2525 11.3648C30.2606 11.3526 30.2647 11.3445 30.2728 11.3323C30.2809 11.3201 30.289 11.308 30.2972 11.2958C30.3053 11.2836 30.3093 11.2755 30.3175 11.2674C30.3256 11.2552 30.3337 11.243 30.3418 11.2349C30.3499 11.2268 30.358 11.2187 30.3621 11.2065C30.3702 11.1943 30.3824 11.1862 30.3905 11.174C30.3986 11.1659 30.4067 11.1578 30.4149 11.1497C30.423 11.1416 30.4352 11.1334 30.4473 11.1253C30.4555 11.1172 30.4636 11.1131 30.4717 11.105C30.4839 11.0969 30.496 11.0888 30.5042 11.0847C30.5123 11.0807 30.5204 11.0726 30.5285 11.0685C30.5407 11.0604 30.5529 11.0563 30.565 11.0523C30.5732 11.0523 30.5813 11.0441 30.5894 11.0401C30.6056 11.036 30.6219 11.032 30.634 11.0279C30.6422 11.0279 30.6503 11.0238 30.6584 11.0238C30.6827 11.0198 30.7071 11.0157 30.7355 11.0157C31.6 10.9995 31.6934 11.795 32.6066 11.6286C32.6229 11.6286 32.6432 11.6205 32.6594 11.6124H32.6675C32.6838 11.6043 32.7 11.6002 32.7162 11.5921C32.7162 11.5921 32.7203 11.5921 32.7244 11.588C32.7406 11.5799 32.7528 11.5677 32.769 11.5596C32.7852 11.5474 32.7974 11.5353 32.8096 11.5231C32.8096 11.5231 32.8136 11.519 32.8177 11.515C32.8299 11.5028 32.8421 11.4866 32.8542 11.4703C32.8542 11.4703 32.8542 11.4663 32.8583 11.4622C32.8705 11.446 32.8826 11.4297 32.8908 11.4135C32.8908 11.4135 32.8908 11.4135 32.8908 11.4094C32.9029 11.3891 32.9111 11.3729 32.9232 11.3526C32.9232 11.3526 32.9232 11.3445 32.9273 11.3404C32.9395 11.3201 32.9476 11.2998 32.9557 11.2755C32.9557 11.2755 32.9557 11.2755 32.9557 11.2714C32.9638 11.2471 32.976 11.2268 32.9841 11.2024C32.9841 11.2024 32.9841 11.1984 32.9841 11.1943C32.9922 11.17 33.0004 11.1456 33.0085 11.1172C33.0085 11.1172 33.0085 11.1091 33.0085 11.105C33.0247 11.0523 33.0409 10.9954 33.0531 10.9346C33.0531 10.9346 33.0531 10.9346 33.0531 10.9305C33.0612 10.9021 33.0653 10.8696 33.0734 10.8412C33.0734 10.8412 33.0734 10.8371 33.0734 10.8331C33.0856 10.7681 33.0937 10.7032 33.1059 10.6383C33.2155 9.81837 33.1384 8.31659 33.1384 8.31659L33.1627 8.2963Z" fill="#7F5332"/>
<path d="M20.3325 2.28919C20.3325 2.28919 20.8764 0.88483 19.2934 0C19.2934 0 18.6724 1.62354 20.3325 2.28919Z" fill="#57AD6B"/>
<path d="M19.6668 2.31354C19.6668 2.31354 19.7277 0.80771 17.9377 0.487061C17.9377 0.487061 17.8769 2.22425 19.6668 2.31354Z" fill="#57AD6B"/>
<path d="M19.752 1.95631C19.752 1.95631 20.6855 0.775181 22.2522 1.69248C22.2522 1.69248 21.1685 3.0522 19.752 1.95631Z" fill="#57AD6B"/>
<path d="M20.0688 2.54081C20.0688 2.54081 21.3352 1.72904 22.5204 3.10499C22.5204 3.10499 21.0551 4.03852 20.0688 2.54081Z" fill="#57AD6B"/>
<path d="M20.1135 1.99696C19.0907 1.41249 17.2318 0.316599 15.8152 2.7925C14.695 4.75293 15.3241 6.758 15.8436 7.83765C16.0993 8.36936 16.6554 8.68595 17.2399 8.63725C18.4332 8.53578 20.4829 8.06495 21.6031 6.10452C23.0197 3.63268 21.1364 2.58144 20.1095 1.99696H20.1135Z" fill="#EA0738"/>
<path d="M12.58 4.39173C12.58 4.39173 12.0361 2.98737 13.619 2.10254C13.619 2.10254 14.24 3.72608 12.58 4.39173Z" fill="#64C37D"/>
<path d="M13.2459 4.41608C13.2459 4.41608 13.185 2.91025 14.9749 2.5896C14.9749 2.5896 15.0358 4.32679 13.2459 4.41608Z" fill="#64C37D"/>
<path d="M13.1604 4.05885C13.1604 4.05885 12.2269 2.87772 10.6602 3.79502C10.6602 3.79502 11.7439 5.15474 13.1604 4.05885Z" fill="#64C37D"/>
<path d="M12.8441 4.64335C12.8441 4.64335 11.5778 3.83158 10.3926 5.20753C10.3926 5.20753 11.8578 6.14106 12.8441 4.64335Z" fill="#64C37D"/>
<path d="M12.7992 4.10353C13.8221 3.51906 15.681 2.42317 17.0976 4.89907C18.2178 6.85949 17.5887 8.86457 17.0692 9.94422C16.8134 10.4759 16.2574 10.7925 15.6729 10.7438C14.4796 10.6423 12.4299 10.1715 11.3096 8.21109C9.8931 5.73925 11.7764 4.68801 12.8033 4.10353H12.7992Z" fill="#FF0C38"/>
</g>
<defs>
<clipPath id="clip0_109_10512">
<rect width="32.3734" height="32" fill="white" transform="translate(0.813477)"/>
</clipPath>
</defs>
</svg>
