<svg width="46" height="32" viewBox="0 0 46 32" fill="none" xmlns="http://www.w3.org/2000/svg">
<g clip-path="url(#clip0_109_10242)">
<path d="M16.8359 25.4081C24.7799 25.4081 31.2197 22.3629 31.2197 18.6063C31.2197 14.8498 24.7799 11.8046 16.8359 11.8046C8.89199 11.8046 2.45215 14.8498 2.45215 18.6063C2.45215 22.3629 8.89199 25.4081 16.8359 25.4081Z" fill="#3D2B29"/>
<path d="M32.8866 8.04602L31.2198 18.6064H2.45483L0.788086 8.04602H32.8866Z" fill="#3D2B29"/>
<path d="M32.8866 8.04601C32.8866 12.4915 25.7012 16.092 16.8386 16.092C7.9761 16.092 0.788086 12.4915 0.788086 8.04601C0.788086 6.72661 1.42316 5.47979 2.54297 4.38072C5.2025 1.7808 10.6045 0 16.8386 0C23.0727 0 28.1585 1.67971 30.8932 4.16039C32.1634 5.3113 32.8866 6.63589 32.8866 8.04601Z" fill="#533F38"/>
<path d="M16.836 19.327C25.6991 19.327 32.884 15.7247 32.884 11.281C32.884 6.83731 25.6991 3.23499 16.836 3.23499C7.973 3.23499 0.788086 6.83731 0.788086 11.281C0.788086 15.7247 7.973 19.327 16.836 19.327Z" fill="#533F38"/>
<path d="M32.8866 8.04602H0.788086V11.281H32.8866V8.04602Z" fill="#533F38"/>
<path d="M32.8866 8.04595C32.8866 12.4915 25.7012 16.092 16.8386 16.092C7.9761 16.092 0.788086 12.4915 0.788086 8.04595C0.788086 6.72655 1.42316 5.47973 2.54297 4.38066C4.74888 3.32566 8.60858 1.83777 11.6232 2.56098C16.1076 3.6419 17.2715 3.81817 19.7626 3.23234C22.2536 2.64652 27.736 2.48581 28.9725 3.45008C29.3276 3.72744 30.0404 3.95037 30.8932 4.15774C32.1634 5.30865 32.8866 6.63323 32.8866 8.04336V8.04595Z" fill="#E68D25"/>
<path d="M17.5151 8.67846C17.5151 8.67846 16.0609 8.71216 15.2937 9.30058C14.5264 9.88899 14.4046 10.8585 14.4046 10.8585C14.4046 10.8585 13.5569 9.76716 14.4046 8.91953C15.2522 8.0719 17.5151 8.67846 17.5151 8.67846Z" fill="#70E970"/>
<path d="M16.836 0C7.97351 0 0.788086 3.60308 0.788086 8.04601C0.788086 12.4889 7.97351 16.092 16.836 16.092C25.6986 16.092 32.884 12.4889 32.884 8.04601C32.884 3.60308 25.7012 0 16.836 0ZM16.836 15.2133C8.34677 15.2133 1.62535 12.1831 1.62535 8.04601C1.62535 3.90895 8.34677 0.394006 16.836 0.394006C25.3253 0.394006 32.0467 3.91154 32.0467 8.0486C32.0467 12.1857 25.3253 15.2133 16.836 15.2133Z" fill="#8B746E"/>
<path d="M22.9844 5.08579C23.7732 5.08579 24.4127 4.44633 24.4127 3.65752C24.4127 2.86871 23.7732 2.22925 22.9844 2.22925C22.1956 2.22925 21.5562 2.86871 21.5562 3.65752C21.5562 4.44633 22.1956 5.08579 22.9844 5.08579Z" fill="#E8E158"/>
<path d="M17.6656 7.17502C18.4544 7.17502 19.0938 6.53556 19.0938 5.74675C19.0938 4.95794 18.4544 4.31848 17.6656 4.31848C16.8768 4.31848 16.2373 4.95794 16.2373 5.74675C16.2373 6.53556 16.8768 7.17502 17.6656 7.17502Z" fill="#E8E158"/>
<path d="M9.19682 4.61399C9.98564 4.61399 10.6251 3.97453 10.6251 3.18572C10.6251 2.3969 9.98564 1.75745 9.19682 1.75745C8.40801 1.75745 7.76855 2.3969 7.76855 3.18572C7.76855 3.97453 8.40801 4.61399 9.19682 4.61399Z" fill="#E8E158"/>
<path d="M12.292 8.23784C12.8388 8.23784 13.2822 7.79452 13.2822 7.24764C13.2822 6.70077 12.8388 6.25745 12.292 6.25745C11.7451 6.25745 11.3018 6.70077 11.3018 7.24764C11.3018 7.79452 11.7451 8.23784 12.292 8.23784Z" fill="#E8E158"/>
<path d="M16.6753 12.7949C17.2221 12.7949 17.6655 12.3515 17.6655 11.8047C17.6655 11.2578 17.2221 10.8145 16.6753 10.8145C16.1284 10.8145 15.6851 11.2578 15.6851 11.8047C15.6851 12.3515 16.1284 12.7949 16.6753 12.7949Z" fill="#E8E158"/>
<path d="M25.3486 9.15288C25.8955 9.15288 26.3388 8.70956 26.3388 8.16268C26.3388 7.61581 25.8955 7.17249 25.3486 7.17249C24.8017 7.17249 24.3584 7.61581 24.3584 8.16268C24.3584 8.70956 24.8017 9.15288 25.3486 9.15288Z" fill="#E8E158"/>
<path d="M6.90056 8.64744C7.28709 8.64744 7.60044 8.33409 7.60044 7.94756C7.60044 7.56103 7.28709 7.24768 6.90056 7.24768C6.51403 7.24768 6.20068 7.56103 6.20068 7.94756C6.20068 8.33409 6.51403 8.64744 6.90056 8.64744Z" fill="#E8E158"/>
<path d="M9.89959 12.5045C10.2861 12.5045 10.5995 12.1911 10.5995 11.8046C10.5995 11.4181 10.2861 11.1047 9.89959 11.1047C9.51305 11.1047 9.19971 11.4181 9.19971 11.8046C9.19971 12.1911 9.51305 12.5045 9.89959 12.5045Z" fill="#E8E158"/>
<path d="M22.9845 11.9809C23.3711 11.9809 23.6844 11.6676 23.6844 11.2811C23.6844 10.8945 23.3711 10.5812 22.9845 10.5812C22.598 10.5812 22.2847 10.8945 22.2847 11.2811C22.2847 11.6676 22.598 11.9809 22.9845 11.9809Z" fill="#E8E158"/>
<path d="M21.7065 9.60387C21.7065 9.60387 23.4899 9.64535 24.4335 10.3686C25.3744 11.0918 25.5248 12.2816 25.5248 12.2816C25.5248 12.2816 26.5668 10.944 25.5248 9.90197C24.4827 8.85993 21.7091 9.60387 21.7091 9.60387H21.7065Z" fill="#70E970"/>
<path d="M29.8254 5.57305C29.8254 5.57305 28.8197 5.59637 28.2883 6.00334C27.7569 6.41031 27.6739 7.08167 27.6739 7.08167C27.6739 7.08167 27.0881 6.32736 27.6739 5.74153C28.2598 5.15571 29.8254 5.57305 29.8254 5.57305Z" fill="#70E970"/>
<path d="M5.75218 5.57305C5.75218 5.57305 4.74643 5.59637 4.21504 6.00334C3.68365 6.41031 3.6007 7.08167 3.6007 7.08167C3.6007 7.08167 3.01487 6.32736 3.6007 5.74153C4.18652 5.15571 5.75218 5.57305 5.75218 5.57305Z" fill="#70E970"/>
<path d="M9.51317 9.82678C9.51317 9.82678 8.05898 9.86048 7.29171 10.4489C6.52443 11.0373 6.4026 12.0068 6.4026 12.0068C6.4026 12.0068 5.55497 10.9155 6.4026 10.0678C7.25023 9.22022 9.51317 9.82678 9.51317 9.82678Z" fill="#70E970"/>
<path d="M10.3867 6.04742C10.3867 6.04742 8.93252 6.01373 8.16524 5.42531C7.39797 4.83689 7.27614 3.86743 7.27614 3.86743C7.27614 3.86743 6.42851 4.95872 7.27614 5.80635C8.12377 6.65398 10.3867 6.04742 10.3867 6.04742Z" fill="#70E970"/>
<path d="M14.7998 5.62366C14.8515 5.5151 14.5708 5.27332 14.1727 5.08364C13.7747 4.89395 13.4101 4.82818 13.3583 4.93674C13.3066 5.0453 13.5873 5.28707 13.9854 5.47676C14.3834 5.66645 14.748 5.73222 14.7998 5.62366Z" fill="#F3FFF3"/>
<path d="M13.0127 11.6241C13.0644 11.5156 12.7837 11.2738 12.3856 11.0841C11.9876 10.8944 11.6229 10.8287 11.5712 10.9372C11.5195 11.0458 11.8002 11.2876 12.1983 11.4772C12.5963 11.6669 12.9609 11.7327 13.0127 11.6241Z" fill="#F3FFF3"/>
<path d="M4.78708 9.49646C4.83881 9.3879 4.55807 9.14613 4.16002 8.95644C3.76198 8.76675 3.39736 8.70098 3.34562 8.80954C3.29389 8.9181 3.57463 9.15988 3.97268 9.34956C4.37073 9.53925 4.73534 9.60502 4.78708 9.49646Z" fill="#F3FFF3"/>
<path d="M6.47409 4.96118C6.52582 4.85263 6.24508 4.61085 5.84703 4.42116C5.44899 4.23147 5.08437 4.16571 5.03264 4.27426C4.9809 4.38282 5.26164 4.6246 5.65969 4.81429C6.05774 5.00397 6.42235 5.06974 6.47409 4.96118Z" fill="#F3FFF3"/>
<path d="M23.0053 7.98462C23.0571 7.87606 22.7763 7.63429 22.3783 7.4446C21.9802 7.25491 21.6156 7.18914 21.5639 7.2977C21.5122 7.40626 21.7929 7.64803 22.1909 7.83772C22.589 8.02741 22.9536 8.09318 23.0053 7.98462Z" fill="#F3FFF3"/>
<path d="M27.3593 4.96033C27.4111 4.85177 27.1303 4.60999 26.7323 4.42031C26.3342 4.23062 25.9696 4.16485 25.9179 4.27341C25.8662 4.38197 26.1469 4.62374 26.5449 4.81343C26.943 5.00312 27.3076 5.06889 27.3593 4.96033Z" fill="#F3FFF3"/>
<path d="M29.1743 10.0066C29.226 9.89803 28.9453 9.65626 28.5472 9.46657C28.1492 9.27688 27.7846 9.21111 27.7328 9.31967C27.6811 9.42823 27.9618 9.67001 28.3599 9.85969C28.7579 10.0494 29.1226 10.1152 29.1743 10.0066Z" fill="#F3FFF3"/>
<path d="M20.6665 12.8906C20.7182 12.7821 20.4375 12.5403 20.0394 12.3506C19.6414 12.1609 19.2768 12.0951 19.225 12.2037C19.1733 12.3123 19.454 12.554 19.8521 12.7437C20.2501 12.9334 20.6147 12.9992 20.6665 12.8906Z" fill="#F3FFF3"/>
<path d="M34.7269 12.0716C36.1863 17.5514 32.6143 24.742 19.1429 27.4042C18.6789 27.4949 18.5338 28.0833 18.9019 28.3814C21.6547 30.6003 25.6881 32 30.188 32C38.4855 32 45.2121 27.2383 45.2121 21.3645C45.2121 16.7893 41.1295 12.8907 35.4034 11.3899C34.9887 11.281 34.6154 11.6595 34.7269 12.0742V12.0716Z" fill="#E8C696"/>
<path d="M41.3291 18.7879C41.7701 18.7879 42.1275 18.5128 42.1275 18.1735C42.1275 17.8343 41.7701 17.5592 41.3291 17.5592C40.8882 17.5592 40.5308 17.8343 40.5308 18.1735C40.5308 18.5128 40.8882 18.7879 41.3291 18.7879Z" fill="#F1DABA"/>
<path d="M24.6617 30.3774C25.1026 30.3774 25.46 30.1023 25.46 29.763C25.46 29.4237 25.1026 29.1487 24.6617 29.1487C24.2207 29.1487 23.8633 29.4237 23.8633 29.763C23.8633 30.1023 24.2207 30.3774 24.6617 30.3774Z" fill="#F1DABA"/>
<path d="M31.9302 30.6158C32.3711 30.6158 32.7286 30.415 32.7286 30.1673C32.7286 29.9196 32.3711 29.7189 31.9302 29.7189C31.4893 29.7189 31.1318 29.9196 31.1318 30.1673C31.1318 30.415 31.4893 30.6158 31.9302 30.6158Z" fill="#F1DABA"/>
<path d="M36.8267 22.8264C37.2676 22.8264 37.6251 22.6257 37.6251 22.378C37.6251 22.1303 37.2676 21.9296 36.8267 21.9296C36.3858 21.9296 36.0283 22.1303 36.0283 22.378C36.0283 22.6257 36.3858 22.8264 36.8267 22.8264Z" fill="#F1DABA"/>
<path d="M27.8915 29.3068C28.5257 29.3068 29.0398 28.8635 29.0398 28.3166C29.0398 27.7697 28.5257 27.3264 27.8915 27.3264C27.2573 27.3264 26.7432 27.7697 26.7432 28.3166C26.7432 28.8635 27.2573 29.3068 27.8915 29.3068Z" fill="#DA9A43"/>
<path d="M28.3739 29.1461C29.0081 29.1461 29.5222 28.7388 29.5222 28.2363C29.5222 27.7338 29.0081 27.3264 28.3739 27.3264C27.7397 27.3264 27.2256 27.7338 27.2256 28.2363C27.2256 28.7388 27.7397 29.1461 28.3739 29.1461Z" fill="#9A5E28"/>
<path d="M36.3318 29.3327C36.9831 29.3327 37.5112 28.8777 37.5112 28.3165C37.5112 27.7553 36.9831 27.3004 36.3318 27.3004C35.6804 27.3004 35.1523 27.7553 35.1523 28.3165C35.1523 28.8777 35.6804 29.3327 36.3318 29.3327Z" fill="#DA9A43"/>
<path d="M36.8269 29.1668C37.4783 29.1668 38.0063 28.749 38.0063 28.2336C38.0063 27.7182 37.4783 27.3004 36.8269 27.3004C36.1755 27.3004 35.6475 27.7182 35.6475 28.2336C35.6475 28.749 36.1755 29.1668 36.8269 29.1668Z" fill="#9A5E28"/>
<path d="M38.6877 16.7271C39.3391 16.7271 39.8671 16.2721 39.8671 15.7109C39.8671 15.1498 39.3391 14.6948 38.6877 14.6948C38.0363 14.6948 37.5083 15.1498 37.5083 15.7109C37.5083 16.2721 38.0363 16.7271 38.6877 16.7271Z" fill="#DA9A43"/>
<path d="M39.1828 16.5639C39.8342 16.5639 40.3623 16.1461 40.3623 15.6307C40.3623 15.1153 39.8342 14.6975 39.1828 14.6975C38.5315 14.6975 38.0034 15.1153 38.0034 15.6307C38.0034 16.1461 38.5315 16.5639 39.1828 16.5639Z" fill="#9A5E28"/>
<path d="M32.5704 26.6991C32.9842 26.6991 33.3195 26.4101 33.3195 26.0536C33.3195 25.6972 32.9842 25.4082 32.5704 25.4082C32.1567 25.4082 31.8213 25.6972 31.8213 26.0536C31.8213 26.4101 32.1567 26.6991 32.5704 26.6991Z" fill="#DA9A43"/>
<path d="M32.8868 26.5954C33.3006 26.5954 33.636 26.3296 33.636 26.0018C33.636 25.674 33.3006 25.4082 32.8868 25.4082C32.4731 25.4082 32.1377 25.674 32.1377 26.0018C32.1377 26.3296 32.4731 26.5954 32.8868 26.5954Z" fill="#9A5E28"/>
<path d="M39.7091 21.9296C40.1228 21.9296 40.4582 21.6406 40.4582 21.2841C40.4582 20.9276 40.1228 20.6387 39.7091 20.6387C39.2954 20.6387 38.96 20.9276 38.96 21.2841C38.96 21.6406 39.2954 21.9296 39.7091 21.9296Z" fill="#DA9A43"/>
<path d="M40.0228 21.8259C40.4365 21.8259 40.7719 21.5601 40.7719 21.2323C40.7719 20.9044 40.4365 20.6387 40.0228 20.6387C39.6091 20.6387 39.2737 20.9044 39.2737 21.2323C39.2737 21.5601 39.6091 21.8259 40.0228 21.8259Z" fill="#9A5E28"/>
</g>
<defs>
<clipPath id="clip0_109_10242">
<rect width="44.4241" height="32" fill="white" transform="translate(0.788086)"/>
</clipPath>
</defs>
</svg>
