<svg width="38" height="33" viewBox="0 0 38 33" fill="none" xmlns="http://www.w3.org/2000/svg">
<g clip-path="url(#clip0_109_10290)">
<path d="M34.1757 17.1035H3.80873C1.90609 17.1035 0.36377 15.5612 0.36377 13.6586V12.772C0.36377 -3.52216 37.6206 -3.52216 37.6206 12.772V13.6586C37.6206 15.5612 36.0783 17.1035 34.1757 17.1035Z" fill="#EFAD60"/>
<path d="M34.8833 26.0075C36.3737 26.0075 37.6283 24.8203 37.6361 23.3298C37.6361 23.3195 37.6361 23.3091 37.6361 23.3013V22.0752C37.6361 20.634 36.0938 19.4675 34.1912 19.4675H3.82679C1.92416 19.4675 0.381836 20.6366 0.381836 22.0752V23.3013C0.381836 23.3013 0.381836 23.322 0.381836 23.3298C0.389612 24.8203 1.64421 26.0075 3.13469 26.0075H34.8858H34.8833Z" fill="#9E5528"/>
<path d="M34.8833 32.5501C36.3737 32.5501 37.6283 31.3629 37.6361 29.8724C37.6361 29.8621 37.6361 29.8517 37.6361 29.8439V28.6178C37.6361 27.1766 36.0938 26.0101 34.1912 26.0101H3.82679C1.92416 26.0101 0.381836 27.1792 0.381836 28.6178V29.8439C0.381836 29.8439 0.381836 29.8646 0.381836 29.8724C0.389612 31.3629 1.64421 32.5501 3.13469 32.5501H34.8858H34.8833Z" fill="#EFAD60"/>
<path d="M32.6592 19.4623L13.7107 23.1302L5.3562 19.4623H32.6592Z" fill="#FEE45A"/>
<path d="M9.98587 10.0684C9.98587 10.0684 6.42426 11.2556 7.75663 12.5853C9.0864 13.9151 9.98587 10.0684 9.98587 10.0684Z" fill="#EFC9A3"/>
<path d="M15.3387 3.8446C15.3387 3.8446 11.777 5.03181 13.1094 6.36158C14.4392 7.69134 15.3387 3.8446 15.3387 3.8446Z" fill="#EFC9A3"/>
<path d="M13.8765 9.5033C13.8765 9.5033 11.9558 12.8627 13.8377 12.8653C15.7196 12.8679 13.8765 9.5033 13.8765 9.5033Z" fill="#EFC9A3"/>
<path d="M24.1544 9.5033C24.1544 9.5033 22.2336 12.8627 24.1155 12.8653C25.9974 12.8679 24.1544 9.5033 24.1544 9.5033Z" fill="#EFC9A3"/>
<path d="M18.9159 9.5033C18.9159 9.5033 16.9951 12.8627 18.877 12.8653C20.7589 12.8679 18.9159 9.5033 18.9159 9.5033Z" fill="#EFC9A3"/>
<path d="M18.9159 3.56213C18.9159 3.56213 16.9951 6.92155 18.877 6.92414C20.8263 6.92673 18.9159 3.56213 18.9159 3.56213Z" fill="#EFC9A3"/>
<path d="M28.0142 10.0684C28.0142 10.0684 31.5758 11.2556 30.2434 12.5853C28.9136 13.9151 28.0142 10.0684 28.0142 10.0684Z" fill="#EFC9A3"/>
<path d="M22.4644 3.8446C22.4644 3.8446 26.026 5.03181 24.6936 6.36158C23.3612 7.69134 22.4644 3.8446 22.4644 3.8446Z" fill="#EFC9A3"/>
<path d="M36.4646 17.119H1.61327C0.996344 17.119 0.439034 17.5701 0.384599 18.187C0.324979 18.8817 0.869329 19.4623 1.55106 19.4623H1.74288C2.81084 19.4623 3.50813 20.481 3.2541 21.5179C3.19189 21.7667 3.25929 22.0078 3.37852 22.2178C3.75438 22.8736 4.72644 22.9047 5.07119 22.2333C5.13081 22.1193 5.16192 21.9948 5.15155 21.8626C5.0349 20.564 6.10546 19.4623 7.40931 19.4623H36.405C37.0219 19.4623 37.5793 19.0113 37.6337 18.3944C37.6933 17.6997 37.149 17.119 36.4672 17.119H36.4646Z" fill="#E94444"/>
</g>
<defs>
<clipPath id="clip0_109_10290">
<rect width="37.2724" height="32" fill="white" transform="translate(0.36377 0.550049)"/>
</clipPath>
</defs>
</svg>
