<svg width="36" height="32" viewBox="0 0 36 32" fill="none" xmlns="http://www.w3.org/2000/svg">
<g clip-path="url(#clip0_109_11595)">
<path d="M19.1264 27.4379C23.4423 23.3371 27.6934 23.1556 33.4661 22.9561C31.2602 23.9981 32.1934 25.4393 29.7749 26.7587C31.8668 26.1781 33.1369 27.7515 35.3247 27.5675C30.5966 32.2437 25.993 32.083 19.3623 29.9497L19.1238 27.4353L19.1264 27.4379Z" fill="url(#paint0_linear_109_11595)"/>
<path d="M21.6925 29.5375C21.55 29.9652 21.4126 30.2218 21.4126 30.2218C21.4126 30.2218 21.3607 30.8569 20.7231 31.3701C20.088 31.8782 18.8749 32.2644 16.5523 31.7745C11.8968 30.7921 11.7439 28.1559 11.7439 28.1559L13.2577 23.4511L13.6569 22.2095C13.6569 22.2095 13.9161 21.4863 15.6736 21.8466C17.4311 22.2095 20.6375 24.1821 21.1015 24.8457C22.3665 26.6446 22.0191 28.5499 21.6925 29.5375Z" fill="url(#paint1_linear_109_11595)"/>
<path d="M21.6925 29.5375C17.7862 28.5836 13.4858 26.7768 13.2551 23.4511L13.6543 22.2095C13.6543 22.2095 13.9135 21.4863 15.671 21.8466C17.4285 22.2095 20.635 24.1821 21.099 24.8457C22.3639 26.6446 22.0166 28.5499 21.69 29.5375H21.6925Z" fill="url(#paint2_linear_109_11595)"/>
<path d="M15.7202 25.5145C15.6814 25.9136 15.6036 26.3854 15.4455 26.8753C15.1396 27.824 14.5279 28.8402 13.2888 29.5323C11.4121 30.5821 9.14658 29.5867 6.71774 27.4897C5.18319 26.1651 4.92657 24.3765 4.94471 23.2385C4.95508 22.575 5.05877 22.1317 5.05877 22.1317L5.33613 19.3711C5.33613 19.3711 6.55184 19.0471 8.19267 19.0419C9.15694 19.0419 10.2664 19.1481 11.3629 19.5033C11.7517 19.6277 12.1379 19.7832 12.5138 19.9725C15.7721 21.6236 15.8758 23.9229 15.7177 25.517L15.7202 25.5145Z" fill="url(#paint3_linear_109_11595)"/>
<path d="M11.3887 19.0392C11.3913 19.1948 11.3861 19.3477 11.3654 19.5006C11.2591 20.3975 10.7718 21.2011 10.0564 21.8413C9.19059 22.6112 7.98525 23.1348 6.69177 23.2878C6.0541 23.3629 5.47605 23.3474 4.94726 23.2359C3.35827 22.9093 2.1944 21.7402 1.14718 19.6406C-0.252582 16.8437 1.8963 13.9431 1.8963 13.9431C1.8963 13.9431 1.93519 13.9379 2.01036 13.9275C2.71801 13.8238 6.53365 13.2795 8.45183 13.2225C8.80696 13.2121 9.09728 13.2199 9.28909 13.2458C10.0512 13.3573 10.6059 14.49 10.9532 15.8509C11.2228 16.9007 11.3654 18.0827 11.3887 19.0392Z" fill="url(#paint4_linear_109_11595)"/>
<path d="M13.2836 11.351C13.2395 12.0923 13.1332 12.7844 12.9777 13.3755C12.8247 13.9613 12.6277 14.4486 12.4048 14.783C12.0678 15.2859 11.5598 15.628 10.9532 15.8509C9.98117 16.2061 8.76027 16.2475 7.61195 16.1542C6.35995 16.0531 5.19089 15.7861 4.52471 15.584C3.6382 15.317 2.59097 15.0526 2.01292 13.925C1.5256 12.984 1.37007 11.4391 1.91183 8.78477C2.79834 4.42997 5.86744 3.39052 7.36051 3.14167C7.86339 3.05872 8.19 3.06391 8.19 3.06391C12.3737 3.64455 13.4883 7.99935 13.2887 11.3458L13.2836 11.351Z" fill="url(#paint5_linear_109_11595)"/>
<path d="M17.6489 11.8149C17.1408 12.4293 16.5239 12.9192 15.78 13.2121C15.3626 13.378 14.9038 13.4843 14.4035 13.5128C13.924 13.5413 13.447 13.492 12.9779 13.3754C12.0421 13.1473 11.1426 12.6496 10.3365 11.9808C7.73655 9.82417 6.1061 5.86078 7.35551 3.14421C7.95948 1.83518 9.23222 0.813878 11.3889 0.425057C17.3119 -0.642906 19.2172 0.531335 19.8315 1.39711C20.1218 1.80408 20.1244 2.14365 20.1244 2.14365C20.1244 2.14365 20.2929 8.63956 17.6489 11.8149Z" fill="url(#paint6_linear_109_11595)"/>
<path d="M27.2578 14.8349C26.6667 15.5658 26.0135 16.0687 25.3344 16.3953C21.6769 18.1554 17.2184 14.8763 17.2184 14.8763C16.56 14.4331 16.0908 13.8654 15.7772 13.2122C15.505 12.6445 15.352 12.0172 15.2924 11.351C14.9632 7.54317 17.7938 2.54033 19.8313 1.39461C20.1423 1.22093 20.4326 1.13539 20.6919 1.15613C23.2944 1.37128 27.6155 3.30761 28.9349 5.81939C30.5861 8.96107 31.0086 10.1975 27.2578 14.8323V14.8349Z" fill="url(#paint7_linear_109_11595)"/>
<path d="M15.7203 25.5145C15.6814 25.9136 15.6037 26.3854 15.4455 26.8753C14.2402 26.3413 11.8243 24.0421 10.0565 21.8414C9.23735 20.8253 8.55562 19.8299 8.19531 19.0419C9.15959 19.0419 10.269 19.1481 11.3655 19.5033C11.7543 19.6277 12.1406 19.7832 12.5164 19.9725C15.7747 21.6236 15.8784 23.9229 15.7203 25.517V25.5145Z" fill="url(#paint8_linear_109_11595)"/>
<path d="M25.3344 16.3953C21.6769 18.1553 17.2184 14.8763 17.2184 14.8763C16.56 14.433 16.0909 13.8653 15.7772 13.2121C15.505 12.6444 15.3521 12.0171 15.2925 11.351C16.0986 11.4261 16.8866 11.5868 17.6461 11.8124C21.0626 12.8181 23.8958 15.0759 25.3318 16.3927L25.3344 16.3953Z" fill="url(#paint9_linear_109_11595)"/>
<path d="M11.3889 19.0392C11.3915 19.1948 11.3863 19.3477 11.3655 19.5006C11.2593 20.3975 10.7719 21.2011 10.0565 21.8413C9.23738 20.8252 8.55565 19.8298 8.19534 19.0418C8.06314 18.7567 7.97501 18.5001 7.93613 18.2771C7.83244 17.6784 7.65877 16.9344 7.61211 16.1568C7.5499 15.1562 7.69246 14.0986 8.45196 13.2225C8.80709 13.2121 9.09741 13.2199 9.28922 13.2458C10.0513 13.3573 10.606 14.49 10.9534 15.8509C11.223 16.9007 11.3655 18.0827 11.3889 19.0392Z" fill="url(#paint10_linear_109_11595)"/>
<path d="M17.6489 11.815C17.1408 12.4293 16.5239 12.9192 15.7799 13.2122C15.3626 13.3781 14.9038 13.4843 14.4035 13.5128C13.924 13.5414 13.447 13.4921 12.9778 13.3755C12.0421 13.1474 11.1426 12.6497 10.3364 11.9809C11.0985 11.688 12.0628 11.4702 13.2733 11.351C13.2733 11.351 13.2785 11.351 13.2811 11.351C13.9628 11.2862 14.6342 11.2914 15.2926 11.351C16.0988 11.4262 16.8868 11.5869 17.6463 11.8124L17.6489 11.815Z" fill="url(#paint11_linear_109_11595)"/>
<path d="M13.2837 11.351C13.2396 12.0923 13.1334 12.7844 12.9778 13.3754C12.8249 13.9612 12.6279 14.4486 12.405 14.7829C12.068 15.2858 11.5599 15.628 10.9534 15.8509C9.98133 16.206 8.76043 16.2475 7.61211 16.1542C7.5499 15.1536 7.69246 14.096 8.45196 13.2199C8.8693 12.7377 9.47586 12.3126 10.3364 11.9808C11.0985 11.6879 12.0628 11.4702 13.2733 11.351C13.2733 11.351 13.2785 11.351 13.2811 11.351H13.2837Z" fill="url(#paint12_linear_109_11595)"/>
<path d="M27.6103 8.03051C27.447 8.03051 27.2941 7.92423 27.2448 7.76092C27.2397 7.74278 26.6201 5.81163 25.0985 4.87328C23.0067 3.58239 21.0056 3.45278 20.9848 3.45278C20.7723 3.43982 20.6116 3.25837 20.6245 3.04841C20.6375 2.83844 20.8137 2.67514 21.0289 2.6881C21.117 2.69328 23.2374 2.82548 25.5029 4.22265C27.2734 5.31394 27.9525 7.44468 27.9784 7.53541C28.0406 7.73759 27.9292 7.95274 27.7244 8.01495C27.6855 8.02791 27.6492 8.0331 27.6103 8.0331V8.03051Z" fill="url(#paint13_linear_109_11595)"/>
<path d="M9.49381 3.81046C9.40568 3.81046 9.31496 3.77935 9.24497 3.71714C9.08425 3.57976 9.06611 3.3361 9.20349 3.17538C9.2683 3.10021 10.8158 1.33496 13.5583 1.33496C14.9036 1.33496 15.9949 1.66935 16.039 1.68231C16.2412 1.74452 16.3552 1.95967 16.2904 2.16185C16.2282 2.36404 16.0131 2.4781 15.8109 2.41329C15.8005 2.4107 14.7818 2.09964 13.5583 2.09964C11.1657 2.09964 9.79969 3.65752 9.78673 3.67307C9.71155 3.76121 9.60268 3.80786 9.49641 3.80786L9.49381 3.81046Z" fill="url(#paint14_linear_109_11595)"/>
<path d="M3.55011 12.7974C3.39977 12.7974 3.25979 12.7093 3.19758 12.5641C3.1587 12.4734 2.26182 10.3038 3.47494 7.84641C4.07113 6.63847 4.85396 5.80898 4.88506 5.77269C5.03022 5.61976 5.27389 5.61198 5.42682 5.75973C5.57976 5.90489 5.58753 6.14855 5.43978 6.30149C5.43201 6.30927 4.70361 7.08691 4.16186 8.18598C3.10426 10.3297 3.89487 12.2453 3.90264 12.2634C3.98559 12.4578 3.89487 12.6833 3.70045 12.7663C3.6512 12.787 3.59936 12.7974 3.55011 12.7974Z" fill="url(#paint15_linear_109_11595)"/>
<path d="M4.5143 21.4785C4.45986 21.4785 4.40283 21.4656 4.3484 21.4397C4.2836 21.4085 2.75682 20.6594 2.24099 18.7516C1.98955 17.821 2.01547 17.0045 2.01806 16.9682C2.02584 16.7557 2.20988 16.5923 2.41466 16.5975C2.62722 16.6053 2.79311 16.7842 2.78534 16.9941C2.78534 17.0019 2.76201 17.7355 2.98234 18.5468C3.40745 20.1177 4.66723 20.7372 4.68019 20.7424C4.87201 20.8331 4.95237 21.0638 4.86164 21.253C4.79684 21.3904 4.65946 21.4708 4.5143 21.4708V21.4785Z" fill="url(#paint16_linear_109_11595)"/>
<path d="M10.5981 28.5888C10.5981 28.5888 10.5748 28.5888 10.5644 28.5888C10.4918 28.5836 8.79914 28.4177 7.64563 26.8131C7.08314 26.0303 6.82133 25.2553 6.81096 25.2242C6.74357 25.022 6.85244 24.8068 7.05463 24.7394C7.25681 24.672 7.47455 24.7809 7.53936 24.9831C7.53936 24.9909 7.77783 25.683 8.27034 26.3673C9.21388 27.6763 10.5773 27.8215 10.6344 27.8267C10.8443 27.8474 10.9999 28.034 10.9817 28.244C10.9636 28.4436 10.7977 28.5939 10.6007 28.5939L10.5981 28.5888Z" fill="url(#paint17_linear_109_11595)"/>
<path d="M17.9392 31.3676C17.5167 31.3676 17.0035 31.2872 16.4695 31.015C15.8396 30.6962 15.4041 30.2789 15.386 30.2607C15.233 30.113 15.2304 29.8693 15.3782 29.719C15.5259 29.566 15.7696 29.5634 15.9199 29.7112C15.9225 29.7138 16.2932 30.0663 16.8142 30.3307C17.7993 30.8284 18.6728 30.4888 18.7091 30.4759C18.9061 30.3981 19.129 30.4914 19.2094 30.6884C19.2897 30.8828 19.1964 31.1058 19.002 31.1861C18.9735 31.1991 18.551 31.3676 17.9392 31.3676Z" fill="url(#paint18_linear_109_11595)"/>
</g>
<defs>
<linearGradient id="paint0_linear_109_11595" x1="19.1264" y1="27.1709" x2="35.3273" y2="27.1709" gradientUnits="userSpaceOnUse">
<stop stop-color="#A52319"/>
<stop offset="1" stop-color="#D53C2C"/>
</linearGradient>
<linearGradient id="paint1_linear_109_11595" x1="11.7439" y1="26.8728" x2="21.9984" y2="26.8728" gradientUnits="userSpaceOnUse">
<stop stop-color="#F99466"/>
<stop offset="1" stop-color="#AD4323"/>
</linearGradient>
<linearGradient id="paint2_linear_109_11595" x1="13.2577" y1="25.6415" x2="21.9984" y2="25.6415" gradientUnits="userSpaceOnUse">
<stop stop-color="#A52319"/>
<stop offset="1" stop-color="#D53C2C"/>
</linearGradient>
<linearGradient id="paint3_linear_109_11595" x1="4.94471" y1="24.4957" x2="15.7643" y2="24.4957" gradientUnits="userSpaceOnUse">
<stop stop-color="#F99466"/>
<stop offset="1" stop-color="#AD4323"/>
</linearGradient>
<linearGradient id="paint4_linear_109_11595" x1="0.672813" y1="18.2745" x2="11.3887" y2="18.2745" gradientUnits="userSpaceOnUse">
<stop stop-color="#F99466"/>
<stop offset="1" stop-color="#AD4323"/>
</linearGradient>
<linearGradient id="paint5_linear_109_11595" x1="1.56707" y1="9.6324" x2="13.3043" y2="9.6324" gradientUnits="userSpaceOnUse">
<stop stop-color="#F99466"/>
<stop offset="1" stop-color="#AD4323"/>
</linearGradient>
<linearGradient id="paint6_linear_109_11595" x1="6.92781" y1="6.76025" x2="20.127" y2="6.76025" gradientUnits="userSpaceOnUse">
<stop stop-color="#F99466"/>
<stop offset="1" stop-color="#AD4323"/>
</linearGradient>
<linearGradient id="paint7_linear_109_11595" x1="15.2665" y1="9.03624" x2="30.148" y2="9.03624" gradientUnits="userSpaceOnUse">
<stop stop-color="#F99466"/>
<stop offset="1" stop-color="#AD4323"/>
</linearGradient>
<linearGradient id="paint8_linear_109_11595" x1="8.19531" y1="22.956" x2="15.7644" y2="22.956" gradientUnits="userSpaceOnUse">
<stop stop-color="#A52319"/>
<stop offset="1" stop-color="#D53C2C"/>
</linearGradient>
<linearGradient id="paint9_linear_109_11595" x1="15.2951" y1="14.1349" x2="25.3344" y2="14.1349" gradientUnits="userSpaceOnUse">
<stop stop-color="#A52319"/>
<stop offset="1" stop-color="#D53C2C"/>
</linearGradient>
<linearGradient id="paint10_linear_109_11595" x1="7.59915" y1="17.528" x2="11.3889" y2="17.528" gradientUnits="userSpaceOnUse">
<stop stop-color="#A52319"/>
<stop offset="1" stop-color="#D53C2C"/>
</linearGradient>
<linearGradient id="paint11_linear_109_11595" x1="10.3364" y1="12.4138" x2="17.6489" y2="12.4138" gradientUnits="userSpaceOnUse">
<stop stop-color="#A52319"/>
<stop offset="1" stop-color="#D53C2C"/>
</linearGradient>
<linearGradient id="paint12_linear_109_11595" x1="7.59915" y1="13.7746" x2="13.2837" y2="13.7746" gradientUnits="userSpaceOnUse">
<stop stop-color="#A52319"/>
<stop offset="1" stop-color="#D53C2C"/>
</linearGradient>
<linearGradient id="paint13_linear_109_11595" x1="20.6219" y1="5.35801" x2="27.994" y2="5.35801" gradientUnits="userSpaceOnUse">
<stop stop-color="#F99466" stop-opacity="0"/>
<stop offset="1" stop-color="white"/>
</linearGradient>
<linearGradient id="paint14_linear_109_11595" x1="9.11018" y1="2.57401" x2="16.3086" y2="2.57401" gradientUnits="userSpaceOnUse">
<stop stop-color="#F99466" stop-opacity="0"/>
<stop offset="1" stop-color="white"/>
</linearGradient>
<linearGradient id="paint15_linear_109_11595" x1="2.84246" y1="9.22543" x2="5.54606" y2="9.22543" gradientUnits="userSpaceOnUse">
<stop stop-color="#F99466" stop-opacity="0"/>
<stop offset="1" stop-color="white"/>
</linearGradient>
<linearGradient id="paint16_linear_109_11595" x1="4.90053" y1="19.0393" x2="2.01547" y2="19.0393" gradientUnits="userSpaceOnUse">
<stop stop-color="#F99466" stop-opacity="0"/>
<stop offset="1" stop-color="white"/>
</linearGradient>
<linearGradient id="paint17_linear_109_11595" x1="10.9817" y1="26.6524" x2="6.79023" y2="26.6524" gradientUnits="userSpaceOnUse">
<stop stop-color="#F99466" stop-opacity="0"/>
<stop offset="1" stop-color="white"/>
</linearGradient>
<linearGradient id="paint18_linear_109_11595" x1="19.2379" y1="30.4837" x2="15.2693" y2="30.4837" gradientUnits="userSpaceOnUse">
<stop stop-color="#F99466" stop-opacity="0"/>
<stop offset="1" stop-color="white"/>
</linearGradient>
<clipPath id="clip0_109_11595">
<rect width="34.6544" height="32" fill="white" transform="translate(0.672852)"/>
</clipPath>
</defs>
</svg>
