<svg width="36" height="32" viewBox="0 0 36 32" fill="none" xmlns="http://www.w3.org/2000/svg">
<g clip-path="url(#clip0_109_10134)">
<path d="M31.5688 15.9987C31.5688 24.8353 24.5519 32 15.8967 32C7.24154 32 0.224609 24.8353 0.224609 15.9987C0.224609 7.16209 7.24154 0 15.8967 0C24.5519 0 31.5688 7.16209 31.5688 15.9987Z" fill="#131C21"/>
<path d="M19.7772 0C19.7772 0 19.7538 0 19.7409 0C19.7357 0 19.7279 0 19.7227 0H15.5675C8.77353 1.8482 3.77588 8.61887 3.77588 15.9987C3.77588 23.3785 8.77353 29.5867 15.5675 31.4349V31.9974H19.3676C19.5024 32 19.6372 31.9974 19.7746 31.9974C28.6112 31.9974 35.7759 24.8327 35.7759 15.9961C35.7759 7.1595 28.6138 0 19.7772 0Z" fill="#131C21"/>
<path d="M29.7648 15.9987C29.7648 24.1898 23.4089 30.8309 15.5676 30.8309C7.72639 30.8309 1.37305 24.1898 1.37305 15.9987C1.37305 7.80748 7.72898 1.16382 15.5676 1.16382C23.4063 1.16382 29.7648 7.80489 29.7648 15.9987Z" fill="#F1FAFF"/>
<path d="M22.7971 9.96415C21.9287 8.31555 20.1998 7.1776 19.3988 6.7162C19.1292 6.56067 18.8182 6.49586 18.5123 6.52956C18.5123 6.52956 10.4663 4.17071 7.81453 10.0704C5.16536 15.9701 6.7336 16.9785 6.05965 18.399C5.39087 19.8117 5.55936 23.1685 8.78399 24.1302C8.79176 24.1328 8.79954 24.1354 8.80991 24.138C8.82028 24.1406 8.82805 24.1432 8.83842 24.1458C8.84101 24.1458 8.8462 24.1458 8.84879 24.1484C9.29982 24.2831 10.023 24.3713 11.104 24.4983C11.104 24.4983 16.1509 25.7192 19.2096 24.2935C22.2709 22.8678 24.6453 21.7662 25.0367 19.7262C25.4281 17.6861 25.8144 14.179 25.8144 14.179C26.1954 12.9788 23.948 12.1545 22.7945 9.96415H22.7971Z" fill="#D6E4EA"/>
<path d="M25.3529 14.2594C25.3529 14.2594 25.3192 14.6923 25.2544 15.3403C25.2492 15.3948 25.244 15.4518 25.2388 15.5114C25.2103 15.7914 25.1792 16.1024 25.1429 16.4342C25.1326 16.5223 25.1222 16.6131 25.1144 16.7038C25.0833 16.963 25.0522 17.23 25.0185 17.4996C25.0055 17.6136 24.99 17.7303 24.9744 17.8469C24.9433 18.0828 24.9122 18.3187 24.8759 18.5468C24.8578 18.679 24.8371 18.8112 24.8163 18.9382C24.78 19.1689 24.7411 19.3867 24.7023 19.5914C24.6997 19.6096 24.6945 19.6277 24.6893 19.6459C24.6582 19.8014 24.6141 19.9492 24.5571 20.0917C24.132 21.1908 23.0433 21.9969 21.5736 22.7798C21.374 22.8886 21.1666 22.9949 20.9514 23.1012C20.6222 23.2671 20.2775 23.4304 19.9224 23.5989C19.7046 23.7026 19.4817 23.8063 19.2536 23.9125C19.2043 23.9359 19.1525 23.9592 19.1032 23.9825C19.0721 23.9981 19.0384 24.011 19.0073 24.024C19.0047 24.0266 19.0021 24.0266 18.9996 24.0266C18.8233 24.1069 18.6418 24.1769 18.4526 24.2366C18.2582 24.2988 18.0586 24.3532 17.8538 24.4025C17.649 24.4491 17.4391 24.488 17.2291 24.5217C17.0969 24.5398 16.9647 24.558 16.8299 24.5735H16.8273L16.6977 24.5865H16.6951C16.3296 24.6254 15.9616 24.6435 15.5987 24.6461C15.565 24.6487 15.5339 24.6487 15.5002 24.6487H15.4198C15.3057 24.6487 15.1943 24.6461 15.0828 24.6461C14.7847 24.6383 14.4944 24.6228 14.2145 24.6046L14.1237 24.5969C13.8645 24.5761 13.6131 24.5528 13.3772 24.5243C13.2554 24.5113 13.1387 24.4958 13.0273 24.4828C12.0889 24.3584 11.4305 24.208 11.3242 24.1821C11.5057 24.2003 11.7027 24.2236 11.91 24.2495C14.9532 24.6098 16.3737 18.4716 17.0891 16.2191C17.4132 15.1952 19.0747 14.9359 20.8244 14.8504C20.954 14.8426 21.0862 14.8374 21.2158 14.8323C21.5528 14.8193 21.8924 14.8115 22.2242 14.8037C22.3538 14.8012 22.4808 14.7986 22.6078 14.796C22.8904 14.7908 23.1625 14.783 23.4192 14.7726C23.5514 14.7649 23.681 14.7597 23.8028 14.7519C24.1709 14.726 24.4949 14.6897 24.7489 14.6301C24.92 14.5912 25.06 14.5394 25.1637 14.4745C25.2622 14.4175 25.327 14.3449 25.3529 14.2594Z" fill="#7DAC40"/>
<path d="M18.4295 6.90806L14.9119 20.9264C14.9119 20.9264 12.2835 24.742 9.13146 23.8399C8.64932 23.7026 8.23717 23.5081 7.88723 23.2748C7.80428 23.2204 7.72392 23.1634 7.64875 23.1038C5.9483 21.7714 5.93793 19.4229 6.46414 18.3161C7.10958 16.95 5.60355 15.9806 8.14903 10.3115C9.71728 6.82252 13.2452 6.33779 15.7285 6.48035C16.0395 6.4985 16.3376 6.52701 16.6098 6.56071C17.6985 6.69291 18.4295 6.90806 18.4295 6.90806Z" fill="#FFBF7E"/>
<path d="M25.3527 14.2594C24.9872 15.4129 17.8044 13.9665 17.0889 16.2191C16.3735 18.4716 14.953 24.6098 11.9098 24.2495C11.6973 24.2236 11.4977 24.2003 11.3111 24.1795C8.7889 23.884 8.29898 23.8089 8.62559 22.785C8.97294 21.6859 10.1964 21.7714 9.61838 19.6536C9.04033 17.5333 8.35342 12.2375 10.5153 9.77758C12.3272 7.71683 16.9749 7.06361 18.4291 6.90808C18.7246 6.87698 19.0227 6.93919 19.2819 7.08694C20.0518 7.5302 21.7133 8.62408 22.548 10.2105C23.6574 12.3153 25.7182 13.1059 25.3527 14.2594Z" fill="#FD8C59"/>
<g opacity="0.4">
<path d="M15.7281 6.48035C13.7452 6.93138 11.4641 7.70643 10.2743 9.01546C7.90765 11.6206 8.15909 17.274 8.80972 19.5836C9.20372 20.986 8.81231 21.3955 8.35868 21.8699C8.11762 22.1239 7.86618 22.3857 7.73139 22.8057C7.69769 22.9016 7.66917 23.0027 7.64844 23.1038C7.72361 23.1634 7.80397 23.2204 7.88691 23.2748C7.89469 23.1712 7.9258 23.0441 7.97764 22.886C8.09429 22.5231 8.31462 22.2924 8.54791 22.0488C9.0119 21.5614 9.49404 21.0586 9.05856 19.5136C8.4209 17.2507 8.16687 11.7217 10.4661 9.18914C11.7803 7.74272 14.5072 6.96249 16.6095 6.5607C16.3373 6.52701 16.0392 6.49849 15.7281 6.48035Z" fill="white"/>
</g>
<path d="M15.5676 1.16382C7.72898 1.16382 1.37305 7.80489 1.37305 15.9987C1.37305 24.1924 7.72898 30.8309 15.5676 30.8309C23.4063 30.8309 29.7648 24.1898 29.7648 15.9987C29.7648 7.80748 23.4089 1.16382 15.5676 1.16382ZM28.492 17.5125L28.448 17.7095C28.4169 17.8443 28.3961 17.9531 28.378 18.0594L28.3624 18.1449C28.2302 19.0159 28.0151 19.8765 27.7248 20.6982C27.6677 20.8615 27.6315 20.9237 27.6315 20.9237C27.3567 21.3333 27.2634 21.7428 27.1882 22.0746C27.1001 22.466 27.0508 22.6475 26.8357 22.8186L26.7216 22.9093L26.6464 23.0363C26.5609 23.1841 26.4728 23.3292 26.382 23.4718C26.2913 23.617 26.2006 23.7569 26.1047 23.8969C26.0295 24.0058 25.9543 24.1147 25.8766 24.2209C25.3841 24.5346 25.086 24.983 24.8164 25.3848C24.679 25.5922 24.5494 25.7866 24.4042 25.9473C24.2798 26.0536 24.1761 26.1443 24.0776 26.2324L23.9351 26.3594C23.8003 26.4787 23.6629 26.5979 23.5229 26.7094C23.4607 26.7612 23.4114 26.8001 23.3752 26.826C22.7556 26.896 22.4368 27.3859 22.2424 27.6866C22.2035 27.7462 22.1517 27.8266 22.1102 27.881L21.9573 27.8551L21.7421 27.9536C21.6332 28.0055 21.5451 28.0469 21.4622 28.091L21.3662 28.1377C20.9411 28.3606 20.5005 28.5628 20.0572 28.7339C19.8654 28.8064 19.7228 28.8557 19.6269 28.8816L19.601 28.8894L19.5751 28.8972C19.2744 29.0008 18.362 29.3171 18.0198 29.3352H17.9654L17.9161 29.3482C17.7269 29.3845 17.5376 29.4156 17.3484 29.4415C17.1929 29.4648 17.0348 29.4856 16.8767 29.5011C16.7678 29.4804 16.6356 29.4622 16.4723 29.4622C16.2779 29.4622 16.0705 29.4933 15.8865 29.5245C15.5702 29.5504 15.2592 29.5633 14.9559 29.5633C14.7978 29.5633 14.65 29.5607 14.51 29.553C14.3675 29.527 14.2456 29.5063 14.129 29.4882L14.1031 29.483C12.9833 29.3508 11.8868 29.0682 10.8421 28.6379C10.6166 28.5446 10.5311 28.498 10.4974 28.4772L10.3367 28.3735L10.1423 28.3554C9.77937 28.3243 9.47868 28.0884 9.13133 27.811C8.90063 27.627 8.66215 27.4378 8.37961 27.2926C8.23704 27.1915 8.09966 27.0878 7.96487 26.9867C7.67195 26.7638 7.38423 26.5253 7.11205 26.2791C6.98763 26.165 6.86839 26.0536 6.75174 25.9395C6.54956 25.6907 6.29553 25.5144 6.05186 25.3433C5.62675 25.0478 5.44012 24.8923 5.41161 24.6357L5.39346 24.4568L5.29755 24.3013C5.19127 24.138 5.09796 23.998 5.01242 23.8658L4.92687 23.7388C4.7195 23.4277 4.5225 23.1037 4.34105 22.7719C4.24773 22.606 4.16219 22.4375 4.07924 22.2716L4.00148 22.1161L3.8641 22.0072C3.69042 21.8699 3.6334 21.608 3.55822 21.1907C3.49342 20.8278 3.41825 20.4208 3.19532 20.0372C3.14866 19.8791 3.10719 19.721 3.06572 19.5628C2.96721 19.187 2.88427 18.7982 2.81687 18.4093C2.79095 18.2512 2.76762 18.0983 2.74947 17.9428C2.83242 17.3336 2.7417 16.7607 2.66134 16.2527C2.59135 15.812 2.52655 15.3999 2.60431 15.0551C2.65097 14.814 2.6743 14.617 2.69504 14.446L2.708 14.35C2.76503 13.8575 2.84798 13.3676 2.95425 12.8907C2.98277 12.7611 3.01647 12.6366 3.04498 12.5563L3.06572 12.4941L3.07608 12.4293C3.09941 12.2737 3.19532 12.0819 3.28605 11.8953C3.43121 11.5972 3.60488 11.2421 3.58155 10.8429C3.61266 10.7599 3.64895 10.6744 3.68265 10.5914C3.92372 10.0108 4.20626 9.44053 4.51991 8.90655C4.55361 8.85211 4.57953 8.81064 4.59767 8.78213C5.16276 8.37516 5.4453 7.79193 5.67082 7.32275C5.88597 6.8769 6.02854 6.59695 6.26183 6.4829L6.37847 6.42587L6.4692 6.33255C6.6014 6.20035 6.7336 6.07074 6.86321 5.94891C6.95911 5.85819 7.05502 5.76746 7.16649 5.66896L7.26758 5.57305C7.65381 5.20497 8.09188 4.78763 8.64142 4.52064L8.68548 4.49991L8.72436 4.47398C8.83583 4.4014 8.94729 4.32882 9.05875 4.26143C9.1728 4.19144 9.28686 4.12664 9.40091 4.05924C9.51238 3.99703 9.57718 3.96333 9.61347 3.94519C10.1811 3.86742 10.5518 3.55377 10.8033 3.33863C10.8344 3.3127 10.8707 3.2816 10.9044 3.25309L10.9614 3.26605L11.345 3.15199C11.415 3.13125 11.4824 3.11311 11.5705 3.0846C12.1615 2.885 12.7707 2.72688 13.385 2.61801C13.5483 2.5895 13.665 2.57394 13.7376 2.57394C13.7713 2.57654 13.805 2.57654 13.8413 2.57654C14.313 2.57654 14.7511 2.46767 15.1373 2.37176C15.4406 2.29658 15.7283 2.224 15.9616 2.224C16.0368 2.224 16.099 2.23178 16.1586 2.24733C16.2364 2.26548 16.3038 2.29658 16.3738 2.34584L16.5345 2.45989L16.7315 2.48063C16.9389 2.50396 17.1411 2.5221 17.3406 2.54025C17.8513 2.5895 18.3334 2.63356 18.7508 2.73984C18.8026 2.75539 18.8389 2.76576 18.8622 2.77354C19.3677 3.24272 20.0157 3.38528 20.5394 3.50193C20.9256 3.58747 21.2885 3.66783 21.4647 3.8415L21.5114 3.88816L21.5658 3.92704C21.7862 4.07998 21.9702 4.19403 22.1335 4.29513L22.1568 4.31068C22.9449 4.80059 23.6862 5.37864 24.3576 6.02927C24.4742 6.14332 24.5364 6.22109 24.552 6.24442L24.5727 6.27552L24.5961 6.30663C24.819 6.58917 25.0652 6.83543 25.3037 7.0739C25.6433 7.41088 25.9621 7.72972 26.0943 8.05373L26.1254 8.12891L26.1695 8.1963C26.2758 8.35442 26.3794 8.51254 26.4779 8.67585C26.7553 9.12688 27.0093 9.60124 27.2297 10.0782C27.2582 10.1456 27.2815 10.1948 27.2945 10.2285C27.3074 10.8895 27.6159 11.3795 27.8647 11.7735C28.098 12.1441 28.2173 12.3489 28.181 12.5978L28.1602 12.7274C28.1602 12.7274 28.2225 13.0747 28.2458 13.1862C28.3547 13.7331 28.4324 14.293 28.4791 14.8529C28.4946 15.0681 28.4946 15.1666 28.4895 15.2106C28.4117 15.6591 28.5128 16.092 28.6035 16.4756C28.7305 17.02 28.7513 17.2247 28.6268 17.3647L28.492 17.5125Z" fill="#D6E4EA"/>
<path d="M6.05918 13.798C6.22339 13.4198 6.21492 13.0517 6.04027 12.9759C5.86562 12.9001 5.59092 13.1452 5.42672 13.5234C5.26251 13.9015 5.27098 14.2696 5.44563 14.3454C5.62028 14.4213 5.89498 14.1762 6.05918 13.798Z" fill="#D6E4EA"/>
<path d="M8.89319 7.13131C9.10045 7.04436 9.11536 6.60894 8.9265 6.15877C8.73764 5.70861 8.41652 5.41417 8.20926 5.50113C8.002 5.58808 7.98709 6.0235 8.17595 6.47366C8.36481 6.92383 8.68593 7.21826 8.89319 7.13131Z" fill="#D6E4EA"/>
<path d="M6.87788 8.79498C6.92442 8.30903 6.78077 7.89772 6.55703 7.87629C6.33329 7.85487 6.11419 8.23144 6.06766 8.71739C6.02112 9.20335 6.16477 9.61466 6.38851 9.63608C6.61225 9.65751 6.83135 9.28094 6.87788 8.79498Z" fill="#D6E4EA"/>
<path d="M4.2628 16.1392C4.427 15.761 4.41854 15.3929 4.24389 15.3171C4.06923 15.2412 3.79454 15.4864 3.63033 15.8645C3.46612 16.2427 3.47459 16.6108 3.64924 16.6866C3.82389 16.7625 4.09859 16.5173 4.2628 16.1392Z" fill="#D6E4EA"/>
<path d="M4.02676 14.3372C4.25049 14.3158 4.39415 13.9045 4.34761 13.4185C4.30108 12.9326 4.08198 12.556 3.85824 12.5774C3.6345 12.5988 3.49085 13.0102 3.53738 13.4961C3.58392 13.9821 3.80302 14.3586 4.02676 14.3372Z" fill="#D6E4EA"/>
<path d="M27.1555 13.6483C27.3302 13.5724 27.3386 13.2044 27.1744 12.8262C27.0102 12.448 26.7355 12.2029 26.5609 12.2787C26.3862 12.3545 26.3777 12.7226 26.542 13.1008C26.7062 13.479 26.9809 13.7241 27.1555 13.6483Z" fill="#D6E4EA"/>
<path d="M5.04516 12.2578C5.21981 12.1819 5.22827 11.8139 5.06407 11.4357C4.89986 11.0575 4.62516 10.8124 4.45051 10.8882C4.27586 10.964 4.26739 11.3321 4.4316 11.7103C4.59581 12.0885 4.8705 12.3336 5.04516 12.2578Z" fill="#D6E4EA"/>
<path d="M23.7922 7.30131C23.9811 6.85114 23.9662 6.41573 23.7589 6.32877C23.5517 6.24182 23.2305 6.53626 23.0417 6.98642C22.8528 7.43658 22.8677 7.872 23.075 7.95896C23.2822 8.04591 23.6034 7.75147 23.7922 7.30131Z" fill="#D6E4EA"/>
<path d="M25.5824 10.4676C25.8062 10.4462 25.9498 10.0348 25.9033 9.54889C25.8567 9.06294 25.6376 8.68636 25.4139 8.70779C25.1902 8.72921 25.0465 9.14052 25.093 9.62648C25.1396 10.1124 25.3587 10.489 25.5824 10.4676Z" fill="#D6E4EA"/>
<path d="M26.7372 16.8398C26.9609 16.8183 27.1046 16.407 27.0581 15.9211C27.0115 15.4351 26.7924 15.0586 26.5687 15.08C26.3449 15.1014 26.2013 15.5127 26.2478 15.9987C26.2944 16.4846 26.5135 16.8612 26.7372 16.8398Z" fill="#D6E4EA"/>
<path d="M27.173 19.0926C27.3372 18.7145 27.3287 18.3464 27.154 18.2706C26.9794 18.1947 26.7047 18.4398 26.5405 18.818C26.3763 19.1962 26.3847 19.5643 26.5594 19.6401C26.734 19.7159 27.0087 19.4708 27.173 19.0926Z" fill="#D6E4EA"/>
<path d="M23.7609 25.5935C23.9681 25.5065 23.983 25.0711 23.7942 24.6209C23.6053 24.1708 23.2842 23.8763 23.0769 23.9633C22.8697 24.0502 22.8548 24.4857 23.0436 24.9358C23.2325 25.386 23.5536 25.6804 23.7609 25.5935Z" fill="#D6E4EA"/>
<path d="M25.9038 22.3693C25.9503 21.8834 25.8066 21.4721 25.5829 21.4506C25.3592 21.4292 25.1401 21.8058 25.0935 22.2917C25.047 22.7777 25.1907 23.189 25.4144 23.2104C25.6381 23.2319 25.8572 22.8553 25.9038 22.3693Z" fill="#D6E4EA"/>
<path d="M4.02318 19.6409C4.19783 19.5651 4.2063 19.197 4.04209 18.8189C3.87789 18.4407 3.60319 18.1956 3.42854 18.2714C3.25389 18.3472 3.24542 18.7153 3.40963 19.0935C3.57383 19.4717 3.84853 19.7168 4.02318 19.6409Z" fill="#D6E4EA"/>
<path d="M5.38598 17.8275C5.56063 17.7516 5.56909 17.3836 5.40489 17.0054C5.24068 16.6272 4.96598 16.3821 4.79133 16.4579C4.61668 16.5337 4.60821 16.9018 4.77242 17.28C4.93663 17.6582 5.21133 17.9033 5.38598 17.8275Z" fill="#D6E4EA"/>
<path d="M7.80932 25.1394C7.99818 24.6893 7.98326 24.2539 7.776 24.1669C7.56874 24.08 7.24762 24.3744 7.05876 24.8246C6.8699 25.2747 6.88481 25.7101 7.09207 25.7971C7.29933 25.884 7.62045 25.5896 7.80932 25.1394Z" fill="#D6E4EA"/>
<path d="M5.17373 23.2134C5.39747 23.192 5.54112 22.7807 5.49458 22.2947C5.44805 21.8088 5.22895 21.4322 5.00521 21.4536C4.78147 21.4751 4.63782 21.8864 4.68436 22.3723C4.73089 22.8583 4.94999 23.2349 5.17373 23.2134Z" fill="#D6E4EA"/>
<path d="M18.2414 5.57635C18.3032 5.39625 18.0371 5.14181 17.6471 5.00806C17.2571 4.8743 16.8909 4.91188 16.8291 5.09198C16.7674 5.27209 17.0334 5.52652 17.4234 5.66028C17.8134 5.79403 18.1797 5.75646 18.2414 5.57635Z" fill="#D6E4EA"/>
<path d="M16.6831 4.01997C17.0842 3.92421 17.3734 3.69645 17.3292 3.51126C17.285 3.32606 16.924 3.25356 16.523 3.34932C16.122 3.44508 15.8327 3.67284 15.8769 3.85803C15.9212 4.04323 16.2821 4.11573 16.6831 4.01997Z" fill="#D6E4EA"/>
<path d="M11.5165 5.25103C11.7426 4.81837 11.7644 4.38324 11.5652 4.27914C11.366 4.17505 11.0212 4.4414 10.7951 4.87407C10.569 5.30673 10.5472 5.74186 10.7464 5.84595C10.9456 5.95005 11.2904 5.68369 11.5165 5.25103Z" fill="#D6E4EA"/>
<path d="M14.7924 4.48992C14.9275 4.31026 14.7206 3.92683 14.3304 3.63351C13.9402 3.3402 13.5143 3.24807 13.3793 3.42773C13.2442 3.6074 13.4511 3.99083 13.8413 4.28415C14.2316 4.57746 14.6574 4.66959 14.7924 4.48992Z" fill="#D6E4EA"/>
<path d="M20.7309 5.62873C21.1475 5.37416 21.3901 5.01233 21.2729 4.82054C21.1557 4.62876 20.723 4.67965 20.3065 4.93421C19.8899 5.18878 19.6473 5.55061 19.7645 5.7424C19.8817 5.93418 20.3144 5.88329 20.7309 5.62873Z" fill="#D6E4EA"/>
<path d="M19.2345 4.41932C19.502 4.25584 19.6577 4.02329 19.5823 3.89991C19.5069 3.77653 19.229 3.80905 18.9614 3.97254C18.6939 4.13602 18.5382 4.36857 18.6136 4.49195C18.689 4.61533 18.967 4.58281 19.2345 4.41932Z" fill="#D6E4EA"/>
<path d="M18.1801 26.5509C18.5489 26.3666 18.7789 26.0792 18.6938 25.9088C18.6087 25.7385 18.2407 25.7498 17.8719 25.9341C17.5031 26.1184 17.2731 26.4059 17.3582 26.5762C17.4433 26.7465 17.8113 26.7352 18.1801 26.5509Z" fill="#D6E4EA"/>
<path d="M18.0628 28.0768C18.0821 27.8874 17.7652 27.7 17.355 27.6583C16.9448 27.6165 16.5967 27.7363 16.5774 27.9257C16.5581 28.1151 16.875 28.3025 17.2852 28.3442C17.6954 28.386 18.0435 28.2663 18.0628 28.0768Z" fill="#D6E4EA"/>
<path d="M15.0749 28.3558C15.4228 28.0133 15.577 27.6059 15.4194 27.4457C15.2617 27.2855 14.8518 27.4333 14.5039 27.7758C14.156 28.1182 14.0018 28.5257 14.1595 28.6859C14.3172 28.8461 14.727 28.6983 15.0749 28.3558Z" fill="#D6E4EA"/>
<path d="M10.2011 25.5561C10.2862 25.3858 10.0563 25.0983 9.68743 24.914C9.31861 24.7297 8.95063 24.7184 8.86552 24.8887C8.78042 25.0591 9.01041 25.3465 9.37924 25.5308C9.74806 25.7151 10.116 25.7264 10.2011 25.5561Z" fill="#D6E4EA"/>
<path d="M10.272 27.3182C10.6822 27.2764 10.9991 27.089 10.9798 26.8996C10.9605 26.7102 10.6124 26.5905 10.2022 26.6322C9.79199 26.6739 9.4751 26.8613 9.49437 27.0507C9.51365 27.2402 9.86179 27.3599 10.272 27.3182Z" fill="#D6E4EA"/>
<path d="M13.3998 27.6618C13.5575 27.5017 13.4033 27.0942 13.0554 26.7517C12.7075 26.4093 12.2977 26.2615 12.14 26.4217C11.9823 26.5818 12.1365 26.9893 12.4844 27.3318C12.8323 27.6742 13.2421 27.822 13.3998 27.6618Z" fill="#D6E4EA"/>
<path d="M21.7983 26.2566C21.889 26.051 21.6005 25.7245 21.1539 25.5275C20.7073 25.3304 20.2716 25.3373 20.1809 25.543C20.0902 25.7486 20.3787 26.075 20.8253 26.2721C21.2719 26.4692 21.7075 26.4623 21.7983 26.2566Z" fill="#D6E4EA"/>
<path d="M20.2416 27.3939C20.3 27.2616 20.1148 27.0517 19.8279 26.9252C19.5411 26.7986 19.2612 26.8032 19.2029 26.9355C19.1445 27.0678 19.3297 27.2777 19.6165 27.4042C19.9034 27.5308 20.1832 27.5262 20.2416 27.3939Z" fill="#D6E4EA"/>
<g opacity="0.4">
<path d="M10.9872 23.0882C10.6891 23.0882 10.4169 22.9845 10.2951 22.7201C10.1551 22.4142 10.3262 22.0565 10.5672 21.8621C10.7331 21.7273 10.9249 21.6496 11.1116 21.5718C11.1764 21.5459 11.2412 21.5174 11.306 21.4888C12.3428 21.0119 12.9313 19.9154 13.2449 19.0807C13.416 18.6193 13.5534 18.1372 13.683 17.668C13.8411 17.1003 14.007 16.5145 14.2377 15.9572C15.4016 13.1655 18.437 11.2395 21.4594 11.3665C22.0245 11.3899 22.4341 11.4806 22.7892 11.6543C23.1987 11.8564 24.1371 12.8259 24.2252 13.1396C24.3211 13.4791 24.1241 13.8083 23.8883 13.9872C23.6472 14.166 23.3543 14.236 23.0743 14.2827C22.333 14.4071 21.5968 14.3553 20.8866 14.3086C19.7927 14.2334 18.7584 14.1634 17.8045 14.7156C16.988 15.1848 16.2933 16.0168 15.6841 17.2507C15.5001 17.6214 15.3083 18.0491 15.1061 18.5027C14.7484 19.2985 14.3803 20.1202 14.007 20.7501C13.5171 21.577 12.6721 22.6423 11.4175 23.0234C11.2775 23.0675 11.1271 23.0908 10.9846 23.0908L10.9872 23.0882ZM21.1691 11.618C18.3463 11.618 15.5675 13.448 14.4814 16.0557C14.2558 16.5975 14.0925 17.1781 13.937 17.738C13.8048 18.2124 13.6674 18.7023 13.4912 19.1715C13.162 20.0528 12.5347 21.2115 11.4175 21.7247C11.3501 21.7558 11.2827 21.7843 11.2153 21.8129C11.039 21.8854 10.8705 21.9554 10.7331 22.0669C10.5724 22.1965 10.4506 22.4324 10.5335 22.6164C10.645 22.8627 11.0338 22.873 11.3475 22.7771C12.5217 22.4194 13.3227 21.4059 13.7893 20.6205C14.1548 20.001 14.5202 19.187 14.8754 18.399C15.0802 17.9454 15.272 17.5151 15.4586 17.1392C16.0911 15.8561 16.8195 14.9903 17.6801 14.4926C18.704 13.9016 19.7771 13.9742 20.9099 14.052C21.6046 14.0986 22.3252 14.1479 23.038 14.0287C23.2869 13.9872 23.5435 13.9276 23.7405 13.7824C23.9012 13.6632 24.0438 13.4325 23.9842 13.2147C23.9271 13.0125 23.0691 12.082 22.6829 11.8927C22.3641 11.7346 21.9856 11.6543 21.4568 11.6335C21.3635 11.6283 21.2676 11.6283 21.1743 11.6283L21.1691 11.618Z" fill="white"/>
</g>
<g opacity="0.4">
<path d="M10.7643 21.1441C10.6191 21.1441 10.5155 21.0948 10.4533 21.0015C10.3003 20.7605 10.5155 20.3094 10.8706 19.5681C11.1842 18.9123 11.5731 18.0983 11.8115 17.1937C12.1744 15.825 13.1672 12.4967 14.5307 11.1332C15.9356 9.73089 17.2395 8.82623 19.3806 8.66293C20.0701 8.61108 20.9229 8.64738 21.4232 9.40947C21.6565 9.76459 21.7083 10.0886 21.5735 10.3452C21.3765 10.7237 20.814 10.9207 19.855 10.9492C17.4443 11.0166 15.2928 12.5952 13.9526 15.2807C13.8204 15.5451 13.6494 16.0687 13.4524 16.6726C12.838 18.5597 11.9956 21.1467 10.7643 21.1467V21.1441ZM19.7746 8.904C19.6502 8.904 19.5258 8.90918 19.4013 8.91955C17.338 9.07767 16.0782 9.95382 14.7147 11.3147C13.3953 12.6315 12.4207 15.908 12.063 17.2559C11.8167 18.1839 11.4227 19.0108 11.1039 19.6769C10.8654 20.1746 10.5958 20.7397 10.6736 20.8616C10.6814 20.8745 10.7176 20.8849 10.7643 20.8849C11.8063 20.8849 12.6488 18.3005 13.2061 16.5897C13.4057 15.9754 13.5794 15.4466 13.7194 15.164C15.1036 12.3904 17.338 10.76 19.8472 10.69C20.8996 10.6615 21.2417 10.4204 21.3454 10.226C21.4569 10.0108 21.3325 9.74126 21.208 9.55203C20.8633 9.02583 20.3189 8.904 19.7746 8.904Z" fill="white"/>
</g>
<g opacity="0.4">
<path d="M11.3059 14.0987C10.943 14.0987 10.7875 13.6762 10.7616 13.3133C10.7408 12.9944 11.1193 11.5739 11.2696 11.1566C11.4588 10.6226 11.7673 10.1457 12.1872 9.73869L12.3272 9.60131C12.5916 9.33432 12.8949 9.03103 13.2811 8.86773C13.657 8.70702 14.178 8.69146 14.4917 9.01807C14.8649 9.40689 14.7249 10.0523 14.3932 10.493C14.2273 10.7133 13.8903 10.9233 13.5637 11.1255C13.2733 11.3043 12.9753 11.491 12.8379 11.6595C12.5527 12.012 12.4102 12.4812 12.2857 12.8959C12.0991 13.5154 11.9202 14.1013 11.3059 14.1013V14.0987ZM12.3687 9.92273C11.9799 10.3038 11.6921 10.747 11.5133 11.2421C11.3474 11.7087 11.0052 13.0514 11.0208 13.2951C11.0337 13.5051 11.1245 13.8395 11.3059 13.8395C11.7103 13.8395 11.8425 13.4714 12.0395 12.8182C12.1717 12.3801 12.322 11.885 12.6383 11.4936C12.8016 11.2914 13.1074 11.1022 13.4289 10.9026C13.7347 10.7133 14.051 10.5163 14.1884 10.3349C14.4476 9.99272 14.5772 9.47688 14.3076 9.19693C14.0821 8.96105 13.6725 8.98438 13.3874 9.10621C13.0478 9.25137 12.7653 9.5365 12.5138 9.78535L12.3713 9.92532L12.3687 9.92273Z" fill="white"/>
</g>
<g opacity="0.4">
<path d="M10.6527 17.8469C10.3935 17.8469 10.1291 17.7251 9.96581 17.5099C9.74807 17.2196 9.71956 16.7919 9.89582 16.4419C9.93989 16.3564 9.99433 16.2735 10.0462 16.1957C10.1524 16.0376 10.2509 15.8898 10.2406 15.7343C10.2354 15.6643 10.2069 15.5865 10.1784 15.5062C10.1317 15.3766 10.0773 15.2288 10.1136 15.0681C10.1239 15.0189 10.1576 14.9515 10.2484 14.8996C10.5205 14.7441 11.1738 14.8478 11.2697 14.8789C11.5937 14.9774 11.7648 15.3429 11.7337 15.8587C11.7103 16.2398 11.6403 16.6208 11.5289 16.9863C11.4511 17.2377 11.3137 17.5929 11.0053 17.7588C10.8964 17.8184 10.7746 17.8443 10.6501 17.8443L10.6527 17.8469ZM10.3676 15.1329C10.3494 15.2159 10.3831 15.3092 10.4246 15.4155C10.4583 15.5088 10.4946 15.6073 10.5024 15.7161C10.5179 15.9598 10.3831 16.162 10.2639 16.3383C10.2147 16.4108 10.1654 16.4834 10.1291 16.5586C9.99692 16.8204 10.0151 17.1392 10.1758 17.3518C10.3391 17.5695 10.6657 17.6499 10.886 17.5306C11.1089 17.4088 11.2152 17.134 11.2852 16.9085C11.3915 16.5612 11.4563 16.2009 11.4796 15.8406C11.4978 15.5399 11.4356 15.1951 11.1997 15.1251C11.0234 15.0707 10.4505 15.0448 10.3702 15.1329H10.3676Z" fill="white"/>
</g>
<g opacity="0.3">
<path d="M25.2545 15.3403C25.2493 15.3948 25.2441 15.4518 25.2389 15.5114C23.3311 16.162 21.1226 15.9573 19.1811 16.3176C18.2376 16.4731 17.9861 17.0226 17.8332 17.9143C17.0607 21.2478 15.9331 23.1608 13.3773 24.5243C13.2555 24.5113 13.1388 24.4958 13.0273 24.4828C15.5365 22.9275 16.5475 21.2115 17.3303 17.7977C17.4288 17.3959 17.4988 16.9189 17.8202 16.5016C18.1287 16.105 18.6212 15.9184 19.0878 15.8406C19.9691 15.6929 20.8323 15.6903 21.6877 15.6643C22.8697 15.6073 24.101 15.6229 25.2545 15.3403Z" fill="black"/>
</g>
<g opacity="0.3">
<path d="M25.1431 16.4342C25.1327 16.5223 25.1224 16.6131 25.1146 16.7038C23.4945 17.0097 21.7474 16.9293 20.174 17.2222C19.2304 17.3777 18.979 17.9247 18.8261 18.819C18.191 21.5589 17.3148 23.3423 15.5988 24.6461C15.5651 24.6487 15.534 24.6487 15.5003 24.6487H15.42C15.3059 24.6487 15.1945 24.6461 15.083 24.6461C16.8379 23.2593 17.6596 21.5874 18.3232 18.7023C18.4217 18.3005 18.4917 17.821 18.8131 17.4063C19.1216 17.0097 19.6141 16.823 20.0807 16.7427C20.962 16.5975 21.8252 16.5949 22.6806 16.569C23.4919 16.5301 24.3266 16.5223 25.1431 16.4342Z" fill="black"/>
</g>
<g opacity="0.3">
<path d="M25.0184 17.4995C25.0054 17.6136 24.9899 17.7302 24.9743 17.8469C23.6938 17.9765 22.377 17.9816 21.1665 18.2072C20.2255 18.3601 19.9715 18.9096 19.8211 19.8013C19.3623 21.7688 18.7817 23.2463 17.8537 24.4024C17.6489 24.449 17.439 24.4879 17.229 24.5216C18.2322 23.3318 18.818 21.8491 19.3157 19.6873C19.4142 19.2855 19.4842 18.806 19.8056 18.3912C20.1141 17.9946 20.6092 17.808 21.0732 17.7276C21.9545 17.5825 22.8177 17.5799 23.6731 17.5539C24.1163 17.5332 24.5674 17.5202 25.0184 17.4995Z" fill="black"/>
</g>
<g opacity="0.3">
<path d="M24.8758 18.5468C24.8576 18.679 24.8369 18.8112 24.8162 18.9382C23.9115 19.0004 23.0094 19.0496 22.1592 19.2077C21.2183 19.3607 20.9642 19.9102 20.8139 20.8019C20.565 21.8699 20.2825 22.7927 19.9222 23.5988C19.7044 23.7025 19.4815 23.8062 19.2534 23.9125C19.6837 23.026 20.0129 21.9762 20.3084 20.6879C20.4069 20.2861 20.4769 19.8065 20.7983 19.3918C21.1068 18.9952 21.6019 18.8086 22.0659 18.7282C22.9472 18.583 23.8104 18.5805 24.6658 18.5545C24.7358 18.5519 24.8058 18.5468 24.8758 18.5468Z" fill="black"/>
</g>
<g opacity="0.3">
<path d="M24.689 19.6459C24.6579 19.8014 24.6139 19.9492 24.5568 20.0917C24.0773 20.1332 23.6081 20.185 23.1519 20.2706C22.211 20.4261 21.9569 20.9756 21.8066 21.8673C21.734 22.1836 21.6562 22.4869 21.5733 22.7798C21.3737 22.8886 21.1663 22.9949 20.9512 23.1012C21.0756 22.6839 21.1896 22.2354 21.3011 21.7533C21.3996 21.3489 21.4696 20.872 21.791 20.4546C22.0995 20.0606 22.5946 19.874 23.0586 19.7936C23.6081 19.7029 24.1525 19.6666 24.689 19.6459Z" fill="black"/>
</g>
<g opacity="0.4">
<path d="M7.42055 21.7792C7.38167 21.7792 7.3402 21.774 7.30131 21.7637C7.12505 21.717 6.97989 21.5667 6.8762 21.3178C6.63513 20.7423 6.57292 20.2239 6.69216 19.7807C6.74141 19.594 6.79585 19.4152 6.84769 19.2337C7.10172 18.3705 7.34279 17.554 7.17171 16.4446C6.68179 13.2277 8.71922 10.4464 8.73995 10.4178L9.30763 9.73352L8.96288 10.5475C8.96288 10.5475 8.44963 11.7709 8.08933 13.8317C7.79641 15.5088 8.00119 17.7614 8.23449 18.7568C8.25522 18.8501 8.28114 18.9486 8.30707 19.0471C8.51703 19.8662 8.77624 20.8875 7.82493 21.6159C7.68495 21.7248 7.54757 21.7792 7.41796 21.7792H7.42055ZM8.78402 10.563C8.37187 11.211 7.06024 13.4558 7.43092 16.4057C7.57867 17.5748 7.36093 18.4146 7.09913 19.3063C7.04728 19.4852 6.99285 19.664 6.9436 19.8455C6.83991 20.2317 6.89694 20.6931 7.11727 21.2141C7.16652 21.3308 7.24947 21.4785 7.36871 21.5096C7.44907 21.5304 7.55275 21.4967 7.6694 21.4085C8.48592 20.7838 8.25781 19.8947 8.05822 19.1093C8.0323 19.0082 8.00638 18.9097 7.98564 18.8138C7.79382 17.9921 7.44388 15.6695 7.83789 13.785C8.14894 12.2997 8.59739 11.1359 8.78402 10.563Z" fill="white"/>
</g>
</g>
<defs>
<clipPath id="clip0_109_10134">
<rect width="35.5512" height="32" fill="white" transform="translate(0.224609)"/>
</clipPath>
</defs>
</svg>
