<svg width="24" height="32" viewBox="0 0 24 32" fill="none" xmlns="http://www.w3.org/2000/svg">
<g clip-path="url(#clip0_109_11573)">
<path d="M4.86112 0.259225L12.3706 22.492C12.5935 23.153 10.1517 23.9773 9.92875 23.3163L2.41932 1.08353C2.19121 0.412161 4.63301 -0.41214 4.86112 0.259225Z" fill="#D6AD8E"/>
<path d="M3.75373 1.00841C4.42783 0.780761 4.91081 0.408196 4.83248 0.176261C4.75416 -0.0556747 4.14419 -0.0591509 3.47009 0.168496C2.79598 0.396144 2.31301 0.768709 2.39133 1.00064C2.46966 1.23258 3.07962 1.23606 3.75373 1.00841Z" fill="#C4997C"/>
<path d="M5.001 0.67395L5.32502 1.63045C5.56868 2.35366 4.60181 3.51494 3.30834 3.70935L2.9895 2.76322C4.31149 2.85913 5.21097 1.29088 5.0036 0.67395H5.001Z" fill="#B78358"/>
<path d="M5.58963 2.41589L5.91365 3.37239C6.15731 4.0956 5.19044 5.25688 3.89696 5.45129L3.57812 4.50516C4.90012 4.60107 5.79959 3.03282 5.59222 2.41589H5.58963Z" fill="#B78358"/>
<path d="M6.17801 4.15515L6.50202 5.11165C6.74569 5.83486 5.77882 6.99614 4.48534 7.19055L4.1665 6.24442C5.4885 6.34033 6.38797 4.77208 6.1806 4.15515H6.17801Z" fill="#B78358"/>
<path d="M6.7637 5.89709L7.08772 6.8536C7.33138 7.5768 6.36451 8.73808 5.07103 8.93249L4.7522 7.98636C6.07419 8.08227 6.97366 6.51402 6.76629 5.89709H6.7637Z" fill="#B78358"/>
<path d="M7.35208 7.63647L7.6761 8.59298C7.91976 9.31618 6.95289 10.4775 5.65941 10.6719L5.34058 9.72574C6.66257 9.82165 7.56204 8.2534 7.35467 7.63647H7.35208Z" fill="#B78358"/>
<path d="M7.9407 9.37842L8.26472 10.3349C8.50838 11.0581 7.54151 12.2194 6.24803 12.4138L5.9292 11.4677C7.25119 11.5636 8.15067 9.99535 7.94329 9.37842H7.9407Z" fill="#B78358"/>
<path d="M8.52908 11.1177L8.8531 12.0742C9.09676 12.7974 8.12989 13.9587 6.83641 14.1531L6.51758 13.2069C7.83957 13.3029 8.73904 11.7346 8.53167 11.1177H8.52908Z" fill="#B78358"/>
<path d="M9.11746 12.8596L9.44148 13.8161C9.68514 14.5393 8.71827 15.7006 7.42479 15.895L7.10596 14.9489C8.42795 15.0448 9.32742 13.4765 9.12005 12.8596H9.11746Z" fill="#B78358"/>
<path d="M9.70584 14.599L10.0299 15.5555C10.2735 16.2787 9.30665 17.44 8.01317 17.6344L7.69434 16.6883C9.01633 16.7842 9.9158 15.2159 9.70843 14.599H9.70584Z" fill="#B78358"/>
<path d="M10.2918 16.3408L10.6158 17.2973C10.8595 18.0205 9.89259 19.1818 8.59911 19.3762L8.28027 18.4301C9.60227 18.526 10.5017 16.9578 10.2944 16.3408H10.2918Z" fill="#B78358"/>
<path d="M10.8802 18.0802L11.2042 19.0367C11.4478 19.7599 10.481 20.9212 9.18749 21.1156L8.86865 20.1695C10.1906 20.2654 11.0901 18.6971 10.8827 18.0802H10.8802Z" fill="#B78358"/>
<path d="M11.4685 19.8221L11.7926 20.7786C12.0362 21.5019 11.0693 22.6631 9.77586 22.8575L9.45703 21.9114C10.779 22.0073 11.6785 20.4391 11.4711 19.8221H11.4685Z" fill="#B78358"/>
<path d="M11.9533 15.0863C15.465 15.0863 18.3118 12.2395 18.3118 8.72779C18.3118 5.21607 15.465 2.36926 11.9533 2.36926C8.44154 2.36926 5.59473 5.21607 5.59473 8.72779C5.59473 12.2395 8.44154 15.0863 11.9533 15.0863Z" fill="url(#paint0_linear_109_11573)"/>
<path d="M13.0444 13.0333C13.0444 13.5465 12.9822 14.0442 12.8682 14.5238C12.5753 14.3968 12.2642 14.332 11.9506 14.3242C11.7225 14.3268 11.4918 14.3631 11.2714 14.4331C10.9137 14.5445 10.5767 14.7415 10.2916 15.0267L10.1749 15.1433C9.23918 16.0791 7.72018 16.0791 6.78183 15.1433C6.31265 14.6741 5.7009 14.4408 5.08397 14.4408C4.46704 14.4408 3.8553 14.6741 3.38871 15.1433L2.65773 15.8743C2.24558 16.2864 1.62606 16.372 1.13096 16.1283C0.617713 15.2133 0.327393 14.1557 0.327393 13.0333C0.327393 9.52095 3.17357 6.67737 6.68592 6.67737C8.94368 6.67737 10.9267 7.8542 12.0542 9.62982C12.679 10.6148 13.0444 11.7813 13.0444 13.0359V13.0333Z" fill="#B78358"/>
<path d="M6.6886 19.3919C10.2003 19.3919 13.0471 16.545 13.0471 13.0333C13.0471 9.52161 10.2003 6.6748 6.6886 6.6748C3.17689 6.6748 0.330078 9.52161 0.330078 13.0333C0.330078 16.545 3.17689 19.3919 6.6886 19.3919Z" fill="url(#paint1_linear_109_11573)"/>
<path d="M17.3863 6.67471C13.9154 6.67471 11.1003 9.48978 11.1003 12.9607C11.1003 15.8872 13.1015 18.3471 15.8103 19.047C15.9917 19.2544 16.2535 19.3892 16.5516 19.3892C16.7434 19.3892 16.9197 19.3321 17.0726 19.2362C17.1763 19.2414 17.28 19.244 17.3863 19.244C20.8572 19.244 23.6722 16.4289 23.6722 12.9581C23.6722 9.48719 20.8572 6.67212 17.3863 6.67212V6.67471Z" fill="url(#paint2_linear_109_11573)"/>
<path d="M21.2771 15.8716L20.5462 15.1407C20.0796 14.6715 19.4626 14.4382 18.8509 14.4382C18.2392 14.4382 17.6222 14.6715 17.153 15.1407C16.2147 16.0764 14.6957 16.0764 13.7599 15.1407L13.6433 15.024C13.3037 14.6818 12.8838 14.4667 12.4457 14.3734V14.3682C12.3032 14.3397 12.158 14.3241 12.0128 14.3215C12.0076 14.3215 12.0025 14.3215 11.9999 14.3215C11.9947 14.3215 11.9895 14.3215 11.9869 14.3215C11.8417 14.3215 11.6966 14.3397 11.554 14.3682V14.3734C11.1134 14.4667 10.696 14.6818 10.3565 15.024L10.2398 15.1407C9.30404 16.0764 7.78505 16.0764 6.84669 15.1407C6.37751 14.6715 5.76577 14.4382 5.14884 14.4382C4.53191 14.4382 3.92016 14.6715 3.45358 15.1407L2.72259 15.8716C2.28193 16.3123 1.60797 16.3797 1.09473 16.0712L1.37986 16.7607L3.89424 22.8393C4.89481 25.2578 7.25366 26.8338 9.86913 26.8338C10.1387 27.1293 10.2528 27.4248 10.2528 27.7125C10.2528 28.7572 8.74932 29.6981 7.85244 30.1647C7.40141 30.398 7.39622 31.046 7.84207 31.2871C8.63527 31.72 10.0661 31.9533 11.554 31.9948C11.611 31.9974 11.6681 31.9974 11.7277 31.9999C11.7562 31.9999 11.7821 31.9999 11.8106 31.9999C11.8729 31.9999 11.9377 31.9999 11.9999 31.9999C12.0647 31.9999 12.1269 31.9999 12.1891 31.9999C12.2176 31.9999 12.2435 31.9999 12.272 31.9999C12.3291 31.9999 12.3861 31.9999 12.4457 31.9974C13.9336 31.9559 15.3619 31.72 16.1577 31.2897C16.6035 31.0486 16.5983 30.4006 16.1473 30.1673C15.2504 29.7007 13.747 28.7598 13.747 27.7151C13.747 27.4274 13.861 27.1319 14.1306 26.8364C16.7461 26.8364 19.1049 25.2604 20.1055 22.8419L22.6199 16.7633L22.905 16.0738C22.3918 16.3823 21.7178 16.3149 21.2771 15.8742V15.8716Z" fill="url(#paint3_linear_109_11573)"/>
</g>
<defs>
<linearGradient id="paint0_linear_109_11573" x1="11.9533" y1="2.37185" x2="11.9533" y2="15.0863" gradientUnits="userSpaceOnUse">
<stop stop-color="#FDEAAF"/>
<stop offset="1" stop-color="#D6BD76"/>
</linearGradient>
<linearGradient id="paint1_linear_109_11573" x1="6.6886" y1="6.6748" x2="6.6886" y2="19.3893" gradientUnits="userSpaceOnUse">
<stop stop-color="#EE81A7"/>
<stop offset="1" stop-color="#B53968"/>
</linearGradient>
<linearGradient id="paint2_linear_109_11573" x1="17.3863" y1="6.67471" x2="17.3863" y2="19.3892" gradientUnits="userSpaceOnUse">
<stop stop-color="#B78358"/>
<stop offset="1" stop-color="#87542E"/>
</linearGradient>
<linearGradient id="paint3_linear_109_11573" x1="11.9999" y1="14.3241" x2="11.9999" y2="31.9999" gradientUnits="userSpaceOnUse">
<stop stop-color="#BDEFE8"/>
<stop offset="1" stop-color="#5DBAAB"/>
</linearGradient>
<clipPath id="clip0_109_11573">
<rect width="23.3422" height="32" fill="white" transform="translate(0.330078)"/>
</clipPath>
</defs>
</svg>
